SplineFontDB: 3.0
FontName: LerLatmo
FullName: LerLatmo
FamilyName: LerLatmo
Weight: Regular
Copyright: Copyright (c) 2016, TUSF,
UComments: "2016-12-6: Created with FontForge (http://fontforge.org)"
Version: 001.000
ItalicAngle: 0
UnderlinePosition: -306
UnderlineWidth: 102
Ascent: 1638
Descent: 410
InvalidEm: 0
LayerCount: 2
Layer: 0 0 "Back" 1
Layer: 1 0 "Fore" 0
XUID: [1021 913 -1209976370 4439358]
StyleMap: 0x0000
FSType: 0
OS2Version: 0
OS2_WeightWidthSlopeOnly: 0
OS2_UseTypoMetrics: 1
CreationTime: 1481039941
ModificationTime: 1481102825
OS2TypoAscent: 0
OS2TypoAOffset: 1
OS2TypoDescent: 0
OS2TypoDOffset: 1
OS2TypoLinegap: 184
OS2WinAscent: 0
OS2WinAOffset: 1
OS2WinDescent: 0
OS2WinDOffset: 1
HheadAscent: 0
HheadAOffset: 1
HheadDescent: 0
HheadDOffset: 1
OS2Vendor: 'PfEd'
Lookup: 4 0 0 "ccmp" { "ccmp-1"  } ['ccmp' ('DFLT' <'dflt' > 'latn' <'dflt' > ) ]
Lookup: 4 0 0 "ccmp-0" { "ccmp-0 subtable"  } ['ccmp' ('latn' <'dflt' > 'DFLT' <'dflt' > ) ]
Lookup: 4 0 0 "ccmp-1" { "ccmp-1 subtable"  } ['ccmp' ('latn' <'dflt' > 'DFLT' <'dflt' > ) ]
MarkAttachClasses: 1
DEI: 91125
Encoding: Custom
UnicodeInterp: none
NameList: AGL For New Fonts
DisplaySize: -48
AntiAlias: 1
FitToEm: 0
WinInfo: 196 14 12
BeginPrivate: 0
EndPrivate
BeginChars: 494 291

StartChar: B
Encoding: 66 66 0
Width: 1200
VWidth: 2251
GlyphClass: 2
Flags: HW
LayerCount: 2
Fore
SplineSet
1120 -540 m 5
 1104 -538.666992188 1083 -532.333007812 1057 -521 c 132
 1031 -509.666992188 1005.66699219 -493 981 -471 c 132
 956.333007812 -449 935.333007812 -421.666992188 918 -389 c 132
 900.666992188 -356.333007812 892.666992188 -316.666992188 894 -270 c 6
 894 708 l 5
 883.333007812 681.333007812 856.333007812 640 813 584 c 132
 769.666992188 528 718.333007812 466.333007812 659 399 c 132
 599.666992188 331.666992188 536.666992188 262.666992188 470 192 c 132
 403.333007812 121.333007812 342 57.3330078125 286 0 c 5
 80 0 l 5
 188 94.6669921875 286.666992188 186.666992188 376 276 c 132
 465.333007812 365.333007812 544.333007812 448.666992188 613 526 c 132
 681.666992188 603.333007812 739.666992188 674 787 738 c 132
 834.333007812 802 869.333007812 856 892 900 c 5
 1098 900 l 5
 1098 -282 l 6
 1098 -314 1098 -314 1098 -350 c 132
 1098 -374 1098.66699219 -397.666992188 1100 -421 c 132
 1101.33300781 -444.333007812 1103.33300781 -466.333007812 1106 -487 c 132
 1108.66699219 -507.666992188 1113.33300781 -525.333007812 1120 -540 c 5
EndSplineSet
EndChar

StartChar: b
Encoding: 98 98 1
Width: 1200
VWidth: 2251
GlyphClass: 2
Flags: HW
LayerCount: 2
Fore
SplineSet
1120 -540 m 5
 1104 -538.666992188 1083 -532.333007812 1057 -521 c 132
 1031 -509.666992188 1005.66699219 -493 981 -471 c 132
 956.333007812 -449 935.333007812 -421.666992188 918 -389 c 132
 900.666992188 -356.333007812 892.666992188 -316.666992188 894 -270 c 6
 894 708 l 5
 883.333007812 681.333007812 856.333007812 640 813 584 c 132
 769.666992188 528 718.333007812 466.333007812 659 399 c 132
 599.666992188 331.666992188 536.666992188 262.666992188 470 192 c 132
 403.333007812 121.333007812 342 57.3330078125 286 0 c 5
 80 0 l 5
 188 94.6669921875 286.666992188 186.666992188 376 276 c 132
 465.333007812 365.333007812 544.333007812 448.666992188 613 526 c 132
 681.666992188 603.333007812 739.666992188 674 787 738 c 132
 834.333007812 802 869.333007812 856 892 900 c 5
 1098 900 l 5
 1098 -282 l 6
 1098 -314 1098 -314 1098 -350 c 132
 1098 -374 1098.66699219 -397.666992188 1100 -421 c 132
 1101.33300781 -444.333007812 1103.33300781 -466.333007812 1106 -487 c 132
 1108.66699219 -507.666992188 1113.33300781 -525.333007812 1120 -540 c 5
EndSplineSet
EndChar

StartChar: C
Encoding: 67 67 2
Width: 1187
VWidth: 1977
GlyphClass: 2
Flags: HW
LayerCount: 2
Fore
SplineSet
1093.5 -1 m 5
 887.5 -1 l 5
 887.5 419 l 6
 886.166992188 561.666992188 858.5 664.333007812 804.5 727 c 132
 750.5 789.666992188 678.833007812 821 589.5 821 c 4
 534.833007812 821 488.833007812 809 451.5 785 c 132
 414.166992188 761 384.166992188 729.666992188 361.5 691 c 132
 338.833007812 652.333007812 322.166992188 608.333007812 311.5 559 c 132
 300.833007812 509.666992188 295.5 460.333007812 295.5 411 c 6
 295.5 -1 l 5
 89.5 -1 l 5
 89.5 943 l 5
 295.5 943 l 5
 295.5 817 l 5
 336.833007812 849 382.5 874.333007812 432.5 893 c 132
 482.5 911.666992188 537.5 921.666992188 597.5 923 c 4
 657.5 923 710.166992188 913.666992188 755.5 895 c 132
 800.833007812 876.333007812 844.833007812 850.333007812 887.5 817 c 5
 887.5 1185 l 6
 887.5 1235.66699219 897.166992188 1277 916.5 1309 c 132
 935.833007812 1341 958.833007812 1367 985.5 1387 c 132
 1012.16699219 1407 1039.5 1422 1067.5 1432 c 132
 1095.5 1442 1118.16699219 1449.66699219 1135.5 1455 c 5
 1131.5 1447 1127.16699219 1437.33300781 1122.5 1426 c 132
 1117.83300781 1414.66699219 1113.5 1398.66699219 1109.5 1378 c 132
 1105.5 1357.33300781 1101.83300781 1331.33300781 1098.5 1300 c 132
 1095.16699219 1268.66699219 1093.5 1230.33300781 1093.5 1185 c 6
 1093.5 -1 l 5
EndSplineSet
EndChar

StartChar: c
Encoding: 99 99 3
Width: 1187
VWidth: 1977
GlyphClass: 2
Flags: HW
LayerCount: 2
Fore
SplineSet
1093.5 -1 m 5
 887.5 -1 l 5
 887.5 419 l 6
 886.166992188 561.666992188 858.5 664.333007812 804.5 727 c 132
 750.5 789.666992188 678.833007812 821 589.5 821 c 4
 534.833007812 821 488.833007812 809 451.5 785 c 132
 414.166992188 761 384.166992188 729.666992188 361.5 691 c 132
 338.833007812 652.333007812 322.166992188 608.333007812 311.5 559 c 132
 300.833007812 509.666992188 295.5 460.333007812 295.5 411 c 6
 295.5 -1 l 5
 89.5 -1 l 5
 89.5 943 l 5
 295.5 943 l 5
 295.5 817 l 5
 336.833007812 849 382.5 874.333007812 432.5 893 c 132
 482.5 911.666992188 537.5 921.666992188 597.5 923 c 4
 657.5 923 710.166992188 913.666992188 755.5 895 c 132
 800.833007812 876.333007812 844.833007812 850.333007812 887.5 817 c 5
 887.5 1185 l 6
 887.5 1235.66699219 897.166992188 1277 916.5 1309 c 132
 935.833007812 1341 958.833007812 1367 985.5 1387 c 132
 1012.16699219 1407 1039.5 1422 1067.5 1432 c 132
 1095.5 1442 1118.16699219 1449.66699219 1135.5 1455 c 5
 1131.5 1447 1127.16699219 1437.33300781 1122.5 1426 c 132
 1117.83300781 1414.66699219 1113.5 1398.66699219 1109.5 1378 c 132
 1105.5 1357.33300781 1101.83300781 1331.33300781 1098.5 1300 c 132
 1095.16699219 1268.66699219 1093.5 1230.33300781 1093.5 1185 c 6
 1093.5 -1 l 5
EndSplineSet
EndChar

StartChar: D
Encoding: 68 68 4
Width: 1191
VWidth: 2240
GlyphClass: 2
Flags: HW
LayerCount: 2
Fore
SplineSet
1129.62207031 -547.5 m 5
 1118.95507812 -546.166992188 1101.95507812 -542.166992188 1078.62207031 -535.5 c 132
 1055.2890625 -528.833007812 1031.2890625 -517.166992188 1006.62207031 -500.5 c 132
 981.955078125 -483.833007812 959.622070312 -461.166992188 939.622070312 -432.5 c 132
 919.622070312 -403.833007812 908.2890625 -365.5 905.622070312 -317.5 c 6
 905.622070312 98.5 l 5
 862.955078125 65.1669921875 815.955078125 36.8330078125 764.622070312 13.5 c 132
 713.2890625 -9.8330078125 656.955078125 -21.5 595.622070312 -21.5 c 4
 492.955078125 -21.5 405.955078125 -1.8330078125 334.622070312 37.5 c 132
 263.2890625 76.8330078125 207.622070312 127.166992188 167.622070312 188.5 c 132
 127.622070312 249.833007812 102.622070312 317.833007812 92.6220703125 392.5 c 132
 82.6220703125 467.166992188 86.2890625 539.833007812 103.622070312 610.5 c 132
 120.955078125 681.166992188 151.955078125 745.833007812 196.622070312 804.5 c 132
 241.2890625 863.166992188 298.955078125 906.5 369.622070312 934.5 c 5
 349.622070312 895.833007812 330.622070312 837.166992188 312.622070312 758.5 c 132
 294.622070312 679.833007812 285.622070312 588.5 285.622070312 484.5 c 4
 285.622070312 420.5 289.622070312 362.833007812 297.622070312 311.5 c 132
 305.622070312 260.166992188 320.2890625 216.5 341.622070312 180.5 c 132
 362.955078125 144.5 392.622070312 117.166992188 430.622070312 98.5 c 132
 468.622070312 79.8330078125 517.622070312 70.5 577.622070312 70.5 c 4
 633.622070312 70.5 682.2890625 83.5 723.622070312 109.5 c 132
 764.955078125 135.5 799.2890625 169.166992188 826.622070312 210.5 c 132
 853.955078125 251.833007812 873.955078125 298.5 886.622070312 350.5 c 132
 899.2890625 402.5 905.622070312 453.833007812 905.622070312 504.5 c 6
 905.622070312 892.5 l 5
 1109.62207031 892.5 l 5
 1109.62207031 -355.5 l 6
 1109.62207031 -390.166992188 1110.95507812 -425.166992188 1113.62207031 -460.5 c 132
 1116.2890625 -495.833007812 1121.62207031 -524.833007812 1129.62207031 -547.5 c 5
EndSplineSet
EndChar

StartChar: d
Encoding: 100 100 5
Width: 1191
VWidth: 2240
GlyphClass: 2
Flags: HW
LayerCount: 2
Fore
SplineSet
1129.62207031 -547.5 m 5
 1118.95507812 -546.166992188 1101.95507812 -542.166992188 1078.62207031 -535.5 c 132
 1055.2890625 -528.833007812 1031.2890625 -517.166992188 1006.62207031 -500.5 c 132
 981.955078125 -483.833007812 959.622070312 -461.166992188 939.622070312 -432.5 c 132
 919.622070312 -403.833007812 908.2890625 -365.5 905.622070312 -317.5 c 6
 905.622070312 98.5 l 5
 862.955078125 65.1669921875 815.955078125 36.8330078125 764.622070312 13.5 c 132
 713.2890625 -9.8330078125 656.955078125 -21.5 595.622070312 -21.5 c 4
 492.955078125 -21.5 405.955078125 -1.8330078125 334.622070312 37.5 c 132
 263.2890625 76.8330078125 207.622070312 127.166992188 167.622070312 188.5 c 132
 127.622070312 249.833007812 102.622070312 317.833007812 92.6220703125 392.5 c 132
 82.6220703125 467.166992188 86.2890625 539.833007812 103.622070312 610.5 c 132
 120.955078125 681.166992188 151.955078125 745.833007812 196.622070312 804.5 c 132
 241.2890625 863.166992188 298.955078125 906.5 369.622070312 934.5 c 5
 349.622070312 895.833007812 330.622070312 837.166992188 312.622070312 758.5 c 132
 294.622070312 679.833007812 285.622070312 588.5 285.622070312 484.5 c 4
 285.622070312 420.5 289.622070312 362.833007812 297.622070312 311.5 c 132
 305.622070312 260.166992188 320.2890625 216.5 341.622070312 180.5 c 132
 362.955078125 144.5 392.622070312 117.166992188 430.622070312 98.5 c 132
 468.622070312 79.8330078125 517.622070312 70.5 577.622070312 70.5 c 4
 633.622070312 70.5 682.2890625 83.5 723.622070312 109.5 c 132
 764.955078125 135.5 799.2890625 169.166992188 826.622070312 210.5 c 132
 853.955078125 251.833007812 873.955078125 298.5 886.622070312 350.5 c 132
 899.2890625 402.5 905.622070312 453.833007812 905.622070312 504.5 c 6
 905.622070312 892.5 l 5
 1109.62207031 892.5 l 5
 1109.62207031 -355.5 l 6
 1109.62207031 -390.166992188 1110.95507812 -425.166992188 1113.62207031 -460.5 c 132
 1116.2890625 -495.833007812 1121.62207031 -524.833007812 1129.62207031 -547.5 c 5
EndSplineSet
EndChar

StartChar: F
Encoding: 70 70 6
Width: 1188
VWidth: 2111
GlyphClass: 2
Flags: HW
LayerCount: 2
Fore
SplineSet
690 920 m 5
 690 884 l 6
 690 802.666992188 682.333007812 719.666992188 667 635 c 132
 651.666992188 550.333007812 632.333007812 472.333007812 609 401 c 132
 585.666992188 329.666992188 560.333007812 270 533 222 c 132
 505.666992188 174 479.333007812 146 454 138 c 5
 603.333007812 138 722.666992188 141 812 147 c 132
 901.333007812 153 970 159.333007812 1018 166 c 4
 1074 174 1112.66699219 184 1134 196 c 5
 1072 0 l 5
 90 0 l 5
 90 144 l 5
 176.666992188 154.666992188 246.333007812 184.666992188 299 234 c 132
 351.666992188 283.333007812 392.333007812 344.666992188 421 418 c 132
 449.666992188 491.333007812 469 571.666992188 479 659 c 132
 489 746.333007812 494 833.333007812 494 920 c 5
 690 920 l 5
EndSplineSet
EndChar

StartChar: f
Encoding: 102 102 7
Width: 1188
VWidth: 2111
GlyphClass: 2
Flags: HW
LayerCount: 2
Fore
SplineSet
690 920 m 5
 690 884 l 6
 690 802.666992188 682.333007812 719.666992188 667 635 c 132
 651.666992188 550.333007812 632.333007812 472.333007812 609 401 c 132
 585.666992188 329.666992188 560.333007812 270 533 222 c 132
 505.666992188 174 479.333007812 146 454 138 c 5
 603.333007812 138 722.666992188 141 812 147 c 132
 901.333007812 153 970 159.333007812 1018 166 c 4
 1074 174 1112.66699219 184 1134 196 c 5
 1072 0 l 5
 90 0 l 5
 90 144 l 5
 176.666992188 154.666992188 246.333007812 184.666992188 299 234 c 132
 351.666992188 283.333007812 392.333007812 344.666992188 421 418 c 132
 449.666992188 491.333007812 469 571.666992188 479 659 c 132
 489 746.333007812 494 833.333007812 494 920 c 5
 690 920 l 5
EndSplineSet
EndChar

StartChar: J
Encoding: 74 74 8
Width: 1193
VWidth: 2241
GlyphClass: 2
Flags: HW
LayerCount: 2
Fore
SplineSet
1121 -177 m 5
 1110.33300781 -175.666992188 1093 -170 1069 -160 c 132
 1045 -150 1020 -134.666992188 994 -114 c 132
 968 -93.3330078125 945 -66.6669921875 925 -34 c 132
 905 -1.3330078125 894.333007812 38.3330078125 893 85 c 5
 810.333007812 19.6669921875 710.333007812 -13.6669921875 593 -15 c 4
 533 -15 479.666992188 -5.3330078125 433 14 c 132
 386.333007812 33.3330078125 341.666992188 59.6669921875 299 93 c 5
 299 -497 l 5
 93 -497 l 5
 93 903 l 5
 299 903 l 5
 299 499 l 6
 299 425.666992188 306.333007812 363 321 311 c 132
 335.666992188 259 356.333007812 216.333007812 383 183 c 132
 409.666992188 149.666992188 441.333007812 125.333007812 478 110 c 132
 514.666992188 94.6669921875 555.666992188 87 601 87 c 4
 654.333007812 87 699.666992188 99 737 123 c 132
 774.333007812 147 804.666992188 178.666992188 828 218 c 132
 851.333007812 257.333007812 868 301.333007812 878 350 c 132
 888 398.666992188 893 448.333007812 893 499 c 6
 893 903 l 5
 1099 903 l 5
 1099 97 l 6
 1099 77 1099.33300781 54.3330078125 1100 29 c 132
 1100.66699219 3.6669921875 1102 -22 1104 -48 c 132
 1106 -74 1108.33300781 -98.3330078125 1111 -121 c 132
 1113.66699219 -143.666992188 1117 -162.333007812 1121 -177 c 5
EndSplineSet
EndChar

StartChar: j
Encoding: 106 106 9
Width: 1193
VWidth: 2241
GlyphClass: 2
Flags: HW
LayerCount: 2
Fore
SplineSet
1121 -177 m 5
 1110.33300781 -175.666992188 1093 -170 1069 -160 c 132
 1045 -150 1020 -134.666992188 994 -114 c 132
 968 -93.3330078125 945 -66.6669921875 925 -34 c 132
 905 -1.3330078125 894.333007812 38.3330078125 893 85 c 5
 810.333007812 19.6669921875 710.333007812 -13.6669921875 593 -15 c 4
 533 -15 479.666992188 -5.3330078125 433 14 c 132
 386.333007812 33.3330078125 341.666992188 59.6669921875 299 93 c 5
 299 -497 l 5
 93 -497 l 5
 93 903 l 5
 299 903 l 5
 299 499 l 6
 299 425.666992188 306.333007812 363 321 311 c 132
 335.666992188 259 356.333007812 216.333007812 383 183 c 132
 409.666992188 149.666992188 441.333007812 125.333007812 478 110 c 132
 514.666992188 94.6669921875 555.666992188 87 601 87 c 4
 654.333007812 87 699.666992188 99 737 123 c 132
 774.333007812 147 804.666992188 178.666992188 828 218 c 132
 851.333007812 257.333007812 868 301.333007812 878 350 c 132
 888 398.666992188 893 448.333007812 893 499 c 6
 893 903 l 5
 1099 903 l 5
 1099 97 l 6
 1099 77 1099.33300781 54.3330078125 1100 29 c 132
 1100.66699219 3.6669921875 1102 -22 1104 -48 c 132
 1106 -74 1108.33300781 -98.3330078125 1111 -121 c 132
 1113.66699219 -143.666992188 1117 -162.333007812 1121 -177 c 5
EndSplineSet
EndChar

StartChar: K
Encoding: 75 75 10
Width: 1200
GlyphClass: 2
Flags: HW
LayerCount: 2
Fore
SplineSet
922 0 m 5
 880 96 880 96 859 198 c 132
 838 300 838 300 835 393 c 132
 832 486 832 486 843 564 c 132
 854 642 854 642 874 694 c 5
 806 624 806 624 723 536 c 132
 640 448 640 448 560 355 c 132
 480 262 480 262 412 170 c 132
 344 78 344 78 308 0 c 5
 102 0 l 5
 102 1400 l 5
 308 1400 l 5
 308 256 l 5
 394 372 394 372 485 468 c 132
 576 564 576 564 658 644 c 132
 740 724 740 724 809 787 c 132
 878 850 878 850 920 900 c 5
 1126 900 l 5
 1062 788 1062 788 1035 673 c 132
 1008 558 1008 558 1008 450 c 4
 1008 378 1008 378 1024 294 c 132
 1040 210 1040 210 1069 122 c 132
 1098 34 1098 34 1138 -54 c 132
 1178 -142 1178 -142 1226 -224 c 5
 922 0 l 5
EndSplineSet
EndChar

StartChar: k
Encoding: 107 107 11
Width: 1200
GlyphClass: 2
Flags: HW
LayerCount: 2
Fore
SplineSet
922 0 m 5
 880 96 880 96 859 198 c 132
 838 300 838 300 835 393 c 132
 832 486 832 486 843 564 c 132
 854 642 854 642 874 694 c 5
 806 624 806 624 723 536 c 132
 640 448 640 448 560 355 c 132
 480 262 480 262 412 170 c 132
 344 78 344 78 308 0 c 5
 102 0 l 5
 102 1400 l 5
 308 1400 l 5
 308 256 l 5
 394 372 394 372 485 468 c 132
 576 564 576 564 658 644 c 132
 740 724 740 724 809 787 c 132
 878 850 878 850 920 900 c 5
 1126 900 l 5
 1062 788 1062 788 1035 673 c 132
 1008 558 1008 558 1008 450 c 4
 1008 378 1008 378 1024 294 c 132
 1040 210 1040 210 1069 122 c 132
 1098 34 1098 34 1138 -54 c 132
 1178 -142 1178 -142 1226 -224 c 5
 922 0 l 5
EndSplineSet
EndChar

StartChar: L
Encoding: 76 76 12
Width: 1203
VWidth: 2116
GlyphClass: 2
Flags: HW
LayerCount: 2
Fore
SplineSet
311 448.5 m 4
 311 397.833007812 320.666992188 349.166992188 340 302.5 c 132
 359.333007812 255.833007812 385.666992188 215.166992188 419 180.5 c 132
 452.333007812 145.833007812 491.333007812 118.166992188 536 97.5 c 132
 580.666992188 76.8330078125 627.666992188 66.5 677 66.5 c 4
 717 66.5 756.333007812 69.1669921875 795 74.5 c 132
 833.666992188 79.8330078125 871 89.5 907 103.5 c 132
 943 117.5 977.666992188 136.5 1011 160.5 c 132
 1044.33300781 184.5 1076.33300781 215.166992188 1107 252.5 c 5
 1109 72.5 l 5
 1085 56.5 1056.33300781 42.5 1023 30.5 c 132
 989.666992188 18.5 953.666992188 8.5 915 0.5 c 132
 876.333007812 -7.5 836.666992188 -13.1669921875 796 -16.5 c 132
 755.333007812 -19.8330078125 716.333007812 -21.5 679 -21.5 c 4
 608.333007812 -21.5 537.666992188 -12.8330078125 467 4.5 c 132
 396.333007812 21.8330078125 332.666992188 49.5 276 87.5 c 132
 219.333007812 125.5 173.333007812 174.166992188 138 233.5 c 132
 102.666992188 292.833007812 85 364.5 85 448.5 c 260
 85 532.5 102.666992188 604.166992188 138 663.5 c 132
 173.333007812 722.833007812 219.333007812 771.166992188 276 808.5 c 132
 332.666992188 845.833007812 396.333007812 873.166992188 467 890.5 c 132
 537.666992188 907.833007812 608.333007812 916.5 679 916.5 c 4
 716.333007812 916.5 755.333007812 914.833007812 796 911.5 c 132
 836.666992188 908.166992188 876.333007812 902.5 915 894.5 c 132
 953.666992188 886.5 989.666992188 876.5 1023 864.5 c 132
 1056.33300781 852.5 1085 838.5 1109 822.5 c 5
 1107 642.5 l 5
 1047 713.166992188 981 761.833007812 909 788.5 c 132
 837 815.166992188 759.666992188 828.5 677 828.5 c 4
 627.666992188 828.5 580.666992188 818.5 536 798.5 c 132
 491.333007812 778.5 452.333007812 751.166992188 419 716.5 c 132
 385.666992188 681.833007812 359.333007812 641.5 340 595.5 c 132
 320.666992188 549.5 311 500.5 311 448.5 c 4
EndSplineSet
EndChar

StartChar: l
Encoding: 108 108 13
Width: 1203
VWidth: 2116
GlyphClass: 2
Flags: HW
LayerCount: 2
Fore
SplineSet
311 448.5 m 4
 311 397.833007812 320.666992188 349.166992188 340 302.5 c 132
 359.333007812 255.833007812 385.666992188 215.166992188 419 180.5 c 132
 452.333007812 145.833007812 491.333007812 118.166992188 536 97.5 c 132
 580.666992188 76.8330078125 627.666992188 66.5 677 66.5 c 4
 717 66.5 756.333007812 69.1669921875 795 74.5 c 132
 833.666992188 79.8330078125 871 89.5 907 103.5 c 132
 943 117.5 977.666992188 136.5 1011 160.5 c 132
 1044.33300781 184.5 1076.33300781 215.166992188 1107 252.5 c 5
 1109 72.5 l 5
 1085 56.5 1056.33300781 42.5 1023 30.5 c 132
 989.666992188 18.5 953.666992188 8.5 915 0.5 c 132
 876.333007812 -7.5 836.666992188 -13.1669921875 796 -16.5 c 132
 755.333007812 -19.8330078125 716.333007812 -21.5 679 -21.5 c 4
 608.333007812 -21.5 537.666992188 -12.8330078125 467 4.5 c 132
 396.333007812 21.8330078125 332.666992188 49.5 276 87.5 c 132
 219.333007812 125.5 173.333007812 174.166992188 138 233.5 c 132
 102.666992188 292.833007812 85 364.5 85 448.5 c 260
 85 532.5 102.666992188 604.166992188 138 663.5 c 132
 173.333007812 722.833007812 219.333007812 771.166992188 276 808.5 c 132
 332.666992188 845.833007812 396.333007812 873.166992188 467 890.5 c 132
 537.666992188 907.833007812 608.333007812 916.5 679 916.5 c 4
 716.333007812 916.5 755.333007812 914.833007812 796 911.5 c 132
 836.666992188 908.166992188 876.333007812 902.5 915 894.5 c 132
 953.666992188 886.5 989.666992188 876.5 1023 864.5 c 132
 1056.33300781 852.5 1085 838.5 1109 822.5 c 5
 1107 642.5 l 5
 1047 713.166992188 981 761.833007812 909 788.5 c 132
 837 815.166992188 759.666992188 828.5 677 828.5 c 4
 627.666992188 828.5 580.666992188 818.5 536 798.5 c 132
 491.333007812 778.5 452.333007812 751.166992188 419 716.5 c 132
 385.666992188 681.833007812 359.333007812 641.5 340 595.5 c 132
 320.666992188 549.5 311 500.5 311 448.5 c 4
EndSplineSet
EndChar

StartChar: M
Encoding: 77 77 14
Width: 1183
VWidth: 2111
GlyphClass: 2
Flags: HW
LayerCount: 2
Fore
SplineSet
83.5 114.5 m 5
 405.5 114.5 l 6
 481.5 114.5 549.166992188 124.166992188 608.5 143.5 c 132
 667.833007812 162.833007812 717.833007812 189.5 758.5 223.5 c 132
 799.166992188 257.5 830.166992188 297.833007812 851.5 344.5 c 132
 872.833007812 391.166992188 883.5 441.833007812 883.5 496.5 c 4
 883.5 529.833007812 876.166992188 566.166992188 861.5 605.5 c 132
 846.833007812 644.833007812 824.833007812 681.5 795.5 715.5 c 132
 766.166992188 749.5 729.166992188 777.833007812 684.5 800.5 c 132
 639.833007812 823.166992188 588.166992188 834.5 529.5 834.5 c 4
 466.833007812 834.5 409.833007812 827.5 358.5 813.5 c 132
 307.166992188 799.5 262.5 782.5 224.5 762.5 c 132
 186.5 742.5 155.5 722.166992188 131.5 701.5 c 132
 107.5 680.833007812 91.5 663.833007812 83.5 650.5 c 5
 83.5 830.5 l 5
 119.5 847.833007812 155.166992188 862.5 190.5 874.5 c 132
 225.833007812 886.5 263.166992188 895.5 302.5 901.5 c 132
 341.833007812 907.5 384.5 911.833007812 430.5 914.5 c 132
 476.5 917.166992188 527.5 918.5 583.5 918.5 c 4
 660.833007812 918.5 731.5 907.5 795.5 885.5 c 132
 859.5 863.5 914.5 834.5 960.5 798.5 c 132
 1006.5 762.5 1042.5 720.833007812 1068.5 673.5 c 132
 1094.5 626.166992188 1107.5 577.166992188 1107.5 526.5 c 4
 1107.5 490.5 1104.5 454.5 1098.5 418.5 c 132
 1092.5 382.5 1080.16699219 346.833007812 1061.5 311.5 c 132
 1042.83300781 276.166992188 1016.83300781 242.5 983.5 210.5 c 132
 950.166992188 178.5 906.833007812 148.5 853.5 120.5 c 5
 880.166992188 121.833007812 907.833007812 124.5 936.5 128.5 c 132
 965.166992188 132.5 992.833007812 137.833007812 1019.5 144.5 c 132
 1046.16699219 151.166992188 1070.83300781 158.166992188 1093.5 165.5 c 132
 1116.16699219 172.833007812 1134.83300781 179.833007812 1149.5 186.5 c 5
 1049.5 0.5 l 5
 83.5 0.5 l 5
 83.5 114.5 l 5
EndSplineSet
EndChar

StartChar: m
Encoding: 109 109 15
Width: 1183
VWidth: 2111
GlyphClass: 2
Flags: HW
LayerCount: 2
Fore
SplineSet
83.5 114.5 m 5
 405.5 114.5 l 6
 481.5 114.5 549.166992188 124.166992188 608.5 143.5 c 132
 667.833007812 162.833007812 717.833007812 189.5 758.5 223.5 c 132
 799.166992188 257.5 830.166992188 297.833007812 851.5 344.5 c 132
 872.833007812 391.166992188 883.5 441.833007812 883.5 496.5 c 4
 883.5 529.833007812 876.166992188 566.166992188 861.5 605.5 c 132
 846.833007812 644.833007812 824.833007812 681.5 795.5 715.5 c 132
 766.166992188 749.5 729.166992188 777.833007812 684.5 800.5 c 132
 639.833007812 823.166992188 588.166992188 834.5 529.5 834.5 c 4
 466.833007812 834.5 409.833007812 827.5 358.5 813.5 c 132
 307.166992188 799.5 262.5 782.5 224.5 762.5 c 132
 186.5 742.5 155.5 722.166992188 131.5 701.5 c 132
 107.5 680.833007812 91.5 663.833007812 83.5 650.5 c 5
 83.5 830.5 l 5
 119.5 847.833007812 155.166992188 862.5 190.5 874.5 c 132
 225.833007812 886.5 263.166992188 895.5 302.5 901.5 c 132
 341.833007812 907.5 384.5 911.833007812 430.5 914.5 c 132
 476.5 917.166992188 527.5 918.5 583.5 918.5 c 4
 660.833007812 918.5 731.5 907.5 795.5 885.5 c 132
 859.5 863.5 914.5 834.5 960.5 798.5 c 132
 1006.5 762.5 1042.5 720.833007812 1068.5 673.5 c 132
 1094.5 626.166992188 1107.5 577.166992188 1107.5 526.5 c 4
 1107.5 490.5 1104.5 454.5 1098.5 418.5 c 132
 1092.5 382.5 1080.16699219 346.833007812 1061.5 311.5 c 132
 1042.83300781 276.166992188 1016.83300781 242.5 983.5 210.5 c 132
 950.166992188 178.5 906.833007812 148.5 853.5 120.5 c 5
 880.166992188 121.833007812 907.833007812 124.5 936.5 128.5 c 132
 965.166992188 132.5 992.833007812 137.833007812 1019.5 144.5 c 132
 1046.16699219 151.166992188 1070.83300781 158.166992188 1093.5 165.5 c 132
 1116.16699219 172.833007812 1134.83300781 179.833007812 1149.5 186.5 c 5
 1049.5 0.5 l 5
 83.5 0.5 l 5
 83.5 114.5 l 5
EndSplineSet
EndChar

StartChar: N
Encoding: 78 78 16
Width: 1181
VWidth: 2121
GlyphClass: 2
Flags: HW
LayerCount: 2
Fore
SplineSet
1081 779 m 5
 725 779 l 6
 653 779 589 768.666992188 533 748 c 132
 477 727.333007812 430.333007812 699.666992188 393 665 c 132
 355.666992188 630.333007812 327.333007812 590 308 544 c 132
 288.666992188 498 279 450.333007812 279 401 c 4
 279 357 288 314.666992188 306 274 c 132
 324 233.333007812 349.666992188 197.333007812 383 166 c 132
 416.333007812 134.666992188 455.666992188 109.666992188 501 91 c 132
 546.333007812 72.3330078125 596.333007812 63 651 63 c 4
 696.333007812 63 735 67 767 75 c 132
 799 83 826 93 848 105 c 132
 870 117 888.333007812 129.333007812 903 142 c 132
 917.666992188 154.666992188 931 165 943 173 c 4
 953.666992188 181 964.333007812 186 975 188 c 132
 985.666992188 190 999.333007812 191.333007812 1016 192 c 132
 1032.66699219 192.666992188 1053.66699219 193.666992188 1079 195 c 132
 1104.33300781 196.333007812 1138.33300781 200.333007812 1181 207 c 5
 1145 161.666992188 1108 124 1070 94 c 132
 1032 64 990.333007812 40 945 22 c 132
 899.666992188 4 849 -8.6669921875 793 -16 c 132
 737 -23.3330078125 673 -27 601 -27 c 4
 513 -27 435 -14.3330078125 367 11 c 132
 299 36.3330078125 242 69 196 109 c 132
 150 149 115.333007812 193.333007812 92 242 c 132
 68.6669921875 290.666992188 57 339 57 387 c 4
 57 439 66 487 84 531 c 132
 102 575 124 613.666992188 150 647 c 132
 176 680.333007812 203.666992188 707.666992188 233 729 c 132
 262.333007812 750.333007812 288.333007812 765 311 773 c 5
 240.333007812 770.333007812 186 762.666992188 148 750 c 132
 110 737.333007812 89.6669921875 729.666992188 87 727 c 6
 87 893 l 5
 1081 893 l 5
 1081 779 l 5
EndSplineSet
EndChar

StartChar: n
Encoding: 110 110 17
Width: 1181
VWidth: 2121
GlyphClass: 2
Flags: HW
LayerCount: 2
Fore
SplineSet
1081 779 m 5
 725 779 l 6
 653 779 589 768.666992188 533 748 c 132
 477 727.333007812 430.333007812 699.666992188 393 665 c 132
 355.666992188 630.333007812 327.333007812 590 308 544 c 132
 288.666992188 498 279 450.333007812 279 401 c 4
 279 357 288 314.666992188 306 274 c 132
 324 233.333007812 349.666992188 197.333007812 383 166 c 132
 416.333007812 134.666992188 455.666992188 109.666992188 501 91 c 132
 546.333007812 72.3330078125 596.333007812 63 651 63 c 4
 696.333007812 63 735 67 767 75 c 132
 799 83 826 93 848 105 c 132
 870 117 888.333007812 129.333007812 903 142 c 132
 917.666992188 154.666992188 931 165 943 173 c 4
 953.666992188 181 964.333007812 186 975 188 c 132
 985.666992188 190 999.333007812 191.333007812 1016 192 c 132
 1032.66699219 192.666992188 1053.66699219 193.666992188 1079 195 c 132
 1104.33300781 196.333007812 1138.33300781 200.333007812 1181 207 c 5
 1145 161.666992188 1108 124 1070 94 c 132
 1032 64 990.333007812 40 945 22 c 132
 899.666992188 4 849 -8.6669921875 793 -16 c 132
 737 -23.3330078125 673 -27 601 -27 c 4
 513 -27 435 -14.3330078125 367 11 c 132
 299 36.3330078125 242 69 196 109 c 132
 150 149 115.333007812 193.333007812 92 242 c 132
 68.6669921875 290.666992188 57 339 57 387 c 4
 57 439 66 487 84 531 c 132
 102 575 124 613.666992188 150 647 c 132
 176 680.333007812 203.666992188 707.666992188 233 729 c 132
 262.333007812 750.333007812 288.333007812 765 311 773 c 5
 240.333007812 770.333007812 186 762.666992188 148 750 c 132
 110 737.333007812 89.6669921875 729.666992188 87 727 c 6
 87 893 l 5
 1081 893 l 5
 1081 779 l 5
EndSplineSet
EndChar

StartChar: P
Encoding: 80 80 18
Width: 1193
VWidth: 1991
GlyphClass: 2
Flags: HW
LayerCount: 2
Fore
SplineSet
1119 900 m 5
 1091 866.666992188 1055.66699219 825.333007812 1013 776 c 132
 970.333007812 726.666992188 924 673.666992188 874 617 c 132
 824 560.333007812 771.666992188 502 717 442 c 132
 662.333007812 382 609.666992188 324.333007812 559 269 c 132
 508.333007812 213.666992188 460.666992188 162.666992188 416 116 c 132
 371.333007812 69.3330078125 333.666992188 30.6669921875 303 0 c 5
 95 0 l 5
 95 1400 l 5
 301 1400 l 5
 301 200 l 5
 313 208 333 222.333007812 361 243 c 132
 389 263.666992188 421 289.666992188 457 321 c 132
 493 352.333007812 532.333007812 388.666992188 575 430 c 132
 617.666992188 471.333007812 659.666992188 516.666992188 701 566 c 132
 742.333007812 615.333007812 781.666992188 668 819 724 c 132
 856.333007812 780 888.333007812 838.666992188 915 900 c 5
 1119 900 l 5
 1119 900 l 5
EndSplineSet
EndChar

StartChar: p
Encoding: 112 112 19
Width: 1193
VWidth: 1991
GlyphClass: 2
Flags: HW
LayerCount: 2
Fore
SplineSet
1119 900 m 5
 1091 866.666992188 1055.66699219 825.333007812 1013 776 c 132
 970.333007812 726.666992188 924 673.666992188 874 617 c 132
 824 560.333007812 771.666992188 502 717 442 c 132
 662.333007812 382 609.666992188 324.333007812 559 269 c 132
 508.333007812 213.666992188 460.666992188 162.666992188 416 116 c 132
 371.333007812 69.3330078125 333.666992188 30.6669921875 303 0 c 5
 95 0 l 5
 95 1400 l 5
 301 1400 l 5
 301 200 l 5
 313 208 333 222.333007812 361 243 c 132
 389 263.666992188 421 289.666992188 457 321 c 132
 493 352.333007812 532.333007812 388.666992188 575 430 c 132
 617.666992188 471.333007812 659.666992188 516.666992188 701 566 c 132
 742.333007812 615.333007812 781.666992188 668 819 724 c 132
 856.333007812 780 888.333007812 838.666992188 915 900 c 5
 1119 900 l 5
 1119 900 l 5
EndSplineSet
EndChar

StartChar: R
Encoding: 82 82 20
Width: 1193
VWidth: 2116
GlyphClass: 2
Flags: HW
LayerCount: 2
Fore
SplineSet
893 448.5 m 4
 893 500.5 883.333007812 549.5 864 595.5 c 132
 844.666992188 641.5 818.333007812 681.833007812 785 716.5 c 132
 751.666992188 751.166992188 712.666992188 778.5 668 798.5 c 132
 623.333007812 818.5 576.333007812 828.5 527 828.5 c 4
 444.333007812 828.5 367 815.166992188 295 788.5 c 132
 223 761.833007812 157 713.166992188 97 642.5 c 5
 95 822.5 l 5
 119 838.5 147.666992188 852.5 181 864.5 c 132
 214.333007812 876.5 250.333007812 886.5 289 894.5 c 132
 327.666992188 902.5 367 908.166992188 407 911.5 c 132
 447 914.833007812 486.333007812 916.5 525 916.5 c 4
 595.666992188 916.5 666.333007812 907.833007812 737 890.5 c 132
 807.666992188 873.166992188 871.333007812 845.833007812 928 808.5 c 132
 984.666992188 771.166992188 1030.66699219 722.833007812 1066 663.5 c 132
 1101.33300781 604.166992188 1119 532.5 1119 448.5 c 260
 1119 364.5 1101.33300781 292.833007812 1066 233.5 c 132
 1030.66699219 174.166992188 984.666992188 125.5 928 87.5 c 132
 871.333007812 49.5 807.666992188 21.8330078125 737 4.5 c 132
 666.333007812 -12.8330078125 595.666992188 -21.5 525 -21.5 c 4
 486.333007812 -21.5 447 -19.8330078125 407 -16.5 c 132
 367 -13.1669921875 327.666992188 -7.5 289 0.5 c 132
 250.333007812 8.5 214.333007812 18.5 181 30.5 c 132
 147.666992188 42.5 119 56.5 95 72.5 c 5
 97 252.5 l 5
 127.666992188 215.166992188 159.666992188 184.5 193 160.5 c 132
 226.333007812 136.5 261 117.5 297 103.5 c 132
 333 89.5 370.333007812 79.8330078125 409 74.5 c 132
 447.666992188 69.1669921875 487 66.5 527 66.5 c 4
 576.333007812 66.5 623.333007812 76.8330078125 668 97.5 c 132
 712.666992188 118.166992188 751.666992188 145.833007812 785 180.5 c 132
 818.333007812 215.166992188 844.666992188 255.833007812 864 302.5 c 132
 883.333007812 349.166992188 893 397.833007812 893 448.5 c 4
EndSplineSet
EndChar

StartChar: r
Encoding: 114 114 21
Width: 1193
VWidth: 2116
GlyphClass: 2
Flags: HW
LayerCount: 2
Fore
SplineSet
893 448.5 m 4
 893 500.5 883.333007812 549.5 864 595.5 c 132
 844.666992188 641.5 818.333007812 681.833007812 785 716.5 c 132
 751.666992188 751.166992188 712.666992188 778.5 668 798.5 c 132
 623.333007812 818.5 576.333007812 828.5 527 828.5 c 4
 444.333007812 828.5 367 815.166992188 295 788.5 c 132
 223 761.833007812 157 713.166992188 97 642.5 c 5
 95 822.5 l 5
 119 838.5 147.666992188 852.5 181 864.5 c 132
 214.333007812 876.5 250.333007812 886.5 289 894.5 c 132
 327.666992188 902.5 367 908.166992188 407 911.5 c 132
 447 914.833007812 486.333007812 916.5 525 916.5 c 4
 595.666992188 916.5 666.333007812 907.833007812 737 890.5 c 132
 807.666992188 873.166992188 871.333007812 845.833007812 928 808.5 c 132
 984.666992188 771.166992188 1030.66699219 722.833007812 1066 663.5 c 132
 1101.33300781 604.166992188 1119 532.5 1119 448.5 c 260
 1119 364.5 1101.33300781 292.833007812 1066 233.5 c 132
 1030.66699219 174.166992188 984.666992188 125.5 928 87.5 c 132
 871.333007812 49.5 807.666992188 21.8330078125 737 4.5 c 132
 666.333007812 -12.8330078125 595.666992188 -21.5 525 -21.5 c 4
 486.333007812 -21.5 447 -19.8330078125 407 -16.5 c 132
 367 -13.1669921875 327.666992188 -7.5 289 0.5 c 132
 250.333007812 8.5 214.333007812 18.5 181 30.5 c 132
 147.666992188 42.5 119 56.5 95 72.5 c 5
 97 252.5 l 5
 127.666992188 215.166992188 159.666992188 184.5 193 160.5 c 132
 226.333007812 136.5 261 117.5 297 103.5 c 132
 333 89.5 370.333007812 79.8330078125 409 74.5 c 132
 447.666992188 69.1669921875 487 66.5 527 66.5 c 4
 576.333007812 66.5 623.333007812 76.8330078125 668 97.5 c 132
 712.666992188 118.166992188 751.666992188 145.833007812 785 180.5 c 132
 818.333007812 215.166992188 844.666992188 255.833007812 864 302.5 c 132
 883.333007812 349.166992188 893 397.833007812 893 448.5 c 4
EndSplineSet
EndChar

StartChar: S
Encoding: 83 83 22
Width: 1192
VWidth: 1979
GlyphClass: 2
Flags: HW
LayerCount: 2
Fore
SplineSet
1092.5 574 m 6
 1092.5 500.666992188 1083.5 428.333007812 1065.5 357 c 132
 1047.5 285.666992188 1018.83300781 222 979.5 166 c 132
 940.166992188 110 889.833007812 65 828.5 31 c 132
 767.166992188 -3 693.166992188 -20 606.5 -20 c 4
 535.833007812 -20 468.5 -8.6669921875 404.5 14 c 132
 340.5 36.6669921875 283.833007812 68.6669921875 234.5 110 c 132
 185.166992188 151.333007812 146.166992188 201 117.5 259 c 132
 88.8330078125 317 74.5 381.333007812 74.5 452 c 4
 74.5 528 85.8330078125 595.333007812 108.5 654 c 132
 131.166992188 712.666992188 162.5 762 202.5 802 c 132
 242.5 842 290.166992188 872.333007812 345.5 893 c 132
 400.833007812 913.666992188 461.833007812 924 528.5 924 c 4
 596.5 924 651.833007812 913.333007812 694.5 892 c 132
 737.166992188 870.666992188 768.166992188 842.333007812 787.5 807 c 132
 806.833007812 771.666992188 814.5 731.666992188 810.5 687 c 132
 806.5 642.333007812 790.5 596.666992188 762.5 550 c 5
 564.5 596 l 5
 580.5 609.333007812 594.5 630.666992188 606.5 660 c 132
 618.5 689.333007812 624.833007812 719.333007812 625.5 750 c 132
 626.166992188 780.666992188 619.5 807.666992188 605.5 831 c 132
 591.5 854.333007812 567.166992188 866 532.5 866 c 4
 499.166992188 866 468.166992188 856.333007812 439.5 837 c 132
 410.833007812 817.666992188 385.833007812 791.333007812 364.5 758 c 132
 343.166992188 724.666992188 326.5 685.333007812 314.5 640 c 132
 302.5 594.666992188 296.5 545.333007812 296.5 492 c 4
 296.5 432 304.5 376 320.5 324 c 132
 336.5 272 359.166992188 226.666992188 388.5 188 c 132
 417.833007812 149.333007812 451.833007812 118.666992188 490.5 96 c 132
 529.166992188 73.3330078125 571.833007812 62 618.5 62 c 4
 659.833007812 64.6669921875 697.166992188 79.3330078125 730.5 106 c 132
 763.833007812 132.666992188 792.5 167 816.5 209 c 132
 840.5 251 859.166992188 298.333007812 872.5 351 c 132
 885.833007812 403.666992188 892.5 457.333007812 892.5 512 c 6
 892.5 1198 l 6
 892.5 1248.66699219 902.166992188 1290 921.5 1322 c 132
 940.833007812 1354 963.833007812 1380 990.5 1400 c 132
 1017.16699219 1420 1044.5 1435 1072.5 1445 c 132
 1100.5 1455 1123.16699219 1462.66699219 1140.5 1468 c 5
 1133.83300781 1453.33300781 1124.16699219 1425.33300781 1111.5 1384 c 132
 1098.83300781 1342.66699219 1092.5 1280.66699219 1092.5 1198 c 6
 1092.5 574 l 6
EndSplineSet
EndChar

StartChar: s
Encoding: 115 115 23
Width: 1192
VWidth: 1979
GlyphClass: 2
Flags: HW
LayerCount: 2
Fore
SplineSet
1092.5 574 m 6
 1092.5 500.666992188 1083.5 428.333007812 1065.5 357 c 132
 1047.5 285.666992188 1018.83300781 222 979.5 166 c 132
 940.166992188 110 889.833007812 65 828.5 31 c 132
 767.166992188 -3 693.166992188 -20 606.5 -20 c 4
 535.833007812 -20 468.5 -8.6669921875 404.5 14 c 132
 340.5 36.6669921875 283.833007812 68.6669921875 234.5 110 c 132
 185.166992188 151.333007812 146.166992188 201 117.5 259 c 132
 88.8330078125 317 74.5 381.333007812 74.5 452 c 4
 74.5 528 85.8330078125 595.333007812 108.5 654 c 132
 131.166992188 712.666992188 162.5 762 202.5 802 c 132
 242.5 842 290.166992188 872.333007812 345.5 893 c 132
 400.833007812 913.666992188 461.833007812 924 528.5 924 c 4
 596.5 924 651.833007812 913.333007812 694.5 892 c 132
 737.166992188 870.666992188 768.166992188 842.333007812 787.5 807 c 132
 806.833007812 771.666992188 814.5 731.666992188 810.5 687 c 132
 806.5 642.333007812 790.5 596.666992188 762.5 550 c 5
 564.5 596 l 5
 580.5 609.333007812 594.5 630.666992188 606.5 660 c 132
 618.5 689.333007812 624.833007812 719.333007812 625.5 750 c 132
 626.166992188 780.666992188 619.5 807.666992188 605.5 831 c 132
 591.5 854.333007812 567.166992188 866 532.5 866 c 4
 499.166992188 866 468.166992188 856.333007812 439.5 837 c 132
 410.833007812 817.666992188 385.833007812 791.333007812 364.5 758 c 132
 343.166992188 724.666992188 326.5 685.333007812 314.5 640 c 132
 302.5 594.666992188 296.5 545.333007812 296.5 492 c 4
 296.5 432 304.5 376 320.5 324 c 132
 336.5 272 359.166992188 226.666992188 388.5 188 c 132
 417.833007812 149.333007812 451.833007812 118.666992188 490.5 96 c 132
 529.166992188 73.3330078125 571.833007812 62 618.5 62 c 4
 659.833007812 64.6669921875 697.166992188 79.3330078125 730.5 106 c 132
 763.833007812 132.666992188 792.5 167 816.5 209 c 132
 840.5 251 859.166992188 298.333007812 872.5 351 c 132
 885.833007812 403.666992188 892.5 457.333007812 892.5 512 c 6
 892.5 1198 l 6
 892.5 1248.66699219 902.166992188 1290 921.5 1322 c 132
 940.833007812 1354 963.833007812 1380 990.5 1400 c 132
 1017.16699219 1420 1044.5 1435 1072.5 1445 c 132
 1100.5 1455 1123.16699219 1462.66699219 1140.5 1468 c 5
 1133.83300781 1453.33300781 1124.16699219 1425.33300781 1111.5 1384 c 132
 1098.83300781 1342.66699219 1092.5 1280.66699219 1092.5 1198 c 6
 1092.5 574 l 6
EndSplineSet
EndChar

StartChar: T
Encoding: 84 84 24
Width: 1192
VWidth: 2086
GlyphClass: 2
Flags: HW
LayerCount: 2
Fore
SplineSet
300 774 m 5
 337.333007812 810 383 840 437 864 c 132
 491 888 548 900 608 900 c 4
 700 900 778.666992188 883 844 849 c 132
 909.333007812 815 962.666992188 770.666992188 1004 716 c 132
 1045.33300781 661.333007812 1075.33300781 599.666992188 1094 531 c 132
 1112.66699219 462.333007812 1122 392.666992188 1122 322 c 4
 1122 243.333007812 1114.33300781 167 1099 93 c 132
 1083.66699219 19 1060.33300781 -49.3330078125 1029 -112 c 132
 997.666992188 -174.666992188 958 -229.333007812 910 -276 c 132
 862 -322.666992188 804.666992188 -357.333007812 738 -380 c 5
 779.333007812 -346.666992188 812 -303.666992188 836 -251 c 132
 860 -198.333007812 878.333007812 -141 891 -79 c 132
 903.666992188 -17 912 47.6669921875 916 115 c 132
 920 182.333007812 922 248 922 312 c 4
 922 370.666992188 916 429 904 487 c 132
 892 545 873.333007812 597 848 643 c 132
 822.666992188 689 790 726.333007812 750 755 c 132
 710 783.666992188 662 798 606 798 c 260
 550 798 502.666992188 785 464 759 c 132
 425.333007812 733 393.666992188 699.666992188 369 659 c 132
 344.333007812 618.333007812 326.666992188 572.333007812 316 521 c 132
 305.333007812 469.666992188 300 418.666992188 300 368 c 6
 300 0 l 5
 94 0 l 5
 94 1400 l 5
 300 1400 l 5
 300 774 l 5
EndSplineSet
EndChar

StartChar: t
Encoding: 116 116 25
Width: 1192
VWidth: 2086
GlyphClass: 2
Flags: HW
LayerCount: 2
Fore
SplineSet
300 774 m 5
 337.333007812 810 383 840 437 864 c 132
 491 888 548 900 608 900 c 4
 700 900 778.666992188 883 844 849 c 132
 909.333007812 815 962.666992188 770.666992188 1004 716 c 132
 1045.33300781 661.333007812 1075.33300781 599.666992188 1094 531 c 132
 1112.66699219 462.333007812 1122 392.666992188 1122 322 c 4
 1122 243.333007812 1114.33300781 167 1099 93 c 132
 1083.66699219 19 1060.33300781 -49.3330078125 1029 -112 c 132
 997.666992188 -174.666992188 958 -229.333007812 910 -276 c 132
 862 -322.666992188 804.666992188 -357.333007812 738 -380 c 5
 779.333007812 -346.666992188 812 -303.666992188 836 -251 c 132
 860 -198.333007812 878.333007812 -141 891 -79 c 132
 903.666992188 -17 912 47.6669921875 916 115 c 132
 920 182.333007812 922 248 922 312 c 4
 922 370.666992188 916 429 904 487 c 132
 892 545 873.333007812 597 848 643 c 132
 822.666992188 689 790 726.333007812 750 755 c 132
 710 783.666992188 662 798 606 798 c 260
 550 798 502.666992188 785 464 759 c 132
 425.333007812 733 393.666992188 699.666992188 369 659 c 132
 344.333007812 618.333007812 326.666992188 572.333007812 316 521 c 132
 305.333007812 469.666992188 300 418.666992188 300 368 c 6
 300 0 l 5
 94 0 l 5
 94 1400 l 5
 300 1400 l 5
 300 774 l 5
EndSplineSet
EndChar

StartChar: V
Encoding: 86 86 26
Width: 1208
VWidth: 2142
GlyphClass: 2
Flags: HW
LayerCount: 2
Fore
SplineSet
720.5 80.5 m 4
 720.5 57.8330078125 716.166992188 40.1669921875 707.5 27.5 c 132
 698.833007812 14.8330078125 685.833007812 1.8330078125 668.5 -11.5 c 132
 651.166992188 -24.8330078125 630.5 -40.1669921875 606.5 -57.5 c 132
 582.5 -74.8330078125 554.5 -99.5 522.5 -131.5 c 5
 522.5 -124.833007812 522.166992188 -112.5 521.5 -94.5 c 132
 520.833007812 -76.5 520.5 -55.5 520.5 -31.5 c 132
 520.5 4.5 520.5 4.5 520.5 42.5 c 132
 520.5 80.5 520.5 80.5 520.5 112.5 c 4
 520.5 200.5 527.833007812 279.833007812 542.5 350.5 c 132
 557.166992188 421.166992188 576.5 482.5 600.5 534.5 c 132
 624.5 586.5 651.833007812 629.5 682.5 663.5 c 132
 713.166992188 697.5 744.5 721.833007812 776.5 736.5 c 5
 654.5 736.5 l 6
 529.166992188 736.5 428.833007812 732.833007812 353.5 725.5 c 132
 278.166992188 718.166992188 219.833007812 710.5 178.5 702.5 c 4
 130.5 693.166992188 95.8330078125 682.5 74.5 670.5 c 5
 136.5 874.5 l 5
 1108.5 874.5 l 5
 1108.5 732.5 l 5
 999.166992188 723.166992188 917.833007812 702.166992188 864.5 669.5 c 132
 811.166992188 636.833007812 774.166992188 592.833007812 753.5 537.5 c 132
 732.833007812 482.166992188 722.5 416.5 722.5 340.5 c 132
 722.5 264.5 721.833007812 177.833007812 720.5 80.5 c 4
EndSplineSet
EndChar

StartChar: v
Encoding: 118 118 27
Width: 1208
VWidth: 2142
GlyphClass: 2
Flags: HW
LayerCount: 2
Fore
SplineSet
720.5 80.5 m 4
 720.5 57.8330078125 716.166992188 40.1669921875 707.5 27.5 c 132
 698.833007812 14.8330078125 685.833007812 1.8330078125 668.5 -11.5 c 132
 651.166992188 -24.8330078125 630.5 -40.1669921875 606.5 -57.5 c 132
 582.5 -74.8330078125 554.5 -99.5 522.5 -131.5 c 5
 522.5 -124.833007812 522.166992188 -112.5 521.5 -94.5 c 132
 520.833007812 -76.5 520.5 -55.5 520.5 -31.5 c 132
 520.5 4.5 520.5 4.5 520.5 42.5 c 132
 520.5 80.5 520.5 80.5 520.5 112.5 c 4
 520.5 200.5 527.833007812 279.833007812 542.5 350.5 c 132
 557.166992188 421.166992188 576.5 482.5 600.5 534.5 c 132
 624.5 586.5 651.833007812 629.5 682.5 663.5 c 132
 713.166992188 697.5 744.5 721.833007812 776.5 736.5 c 5
 654.5 736.5 l 6
 529.166992188 736.5 428.833007812 732.833007812 353.5 725.5 c 132
 278.166992188 718.166992188 219.833007812 710.5 178.5 702.5 c 4
 130.5 693.166992188 95.8330078125 682.5 74.5 670.5 c 5
 136.5 874.5 l 5
 1108.5 874.5 l 5
 1108.5 732.5 l 5
 999.166992188 723.166992188 917.833007812 702.166992188 864.5 669.5 c 132
 811.166992188 636.833007812 774.166992188 592.833007812 753.5 537.5 c 132
 732.833007812 482.166992188 722.5 416.5 722.5 340.5 c 132
 722.5 264.5 721.833007812 177.833007812 720.5 80.5 c 4
EndSplineSet
EndChar

StartChar: Z
Encoding: 90 90 28
Width: 1199
VWidth: 2237
GlyphClass: 2
Flags: HW
LayerCount: 2
Fore
SplineSet
79.5 413 m 6
 79.5 491.666992188 89.5 566.666992188 109.5 638 c 132
 129.5 709.333007812 160.5 772.333007812 202.5 827 c 132
 244.5 881.666992188 297.5 925.333007812 361.5 958 c 132
 425.5 990.666992188 500.833007812 1007 587.5 1007 c 4
 663.5 1007 733.833007812 995.666992188 798.5 973 c 132
 863.166992188 950.333007812 919.5 918.333007812 967.5 877 c 132
 1015.5 835.666992188 1053.16699219 786 1080.5 728 c 132
 1107.83300781 670 1121.5 605.666992188 1121.5 535 c 4
 1121.5 383 1082.5 266.333007812 1004.5 185 c 132
 926.5 103.666992188 820.833007812 63 687.5 63 c 4
 660.833007812 63 630.5 66.3330078125 596.5 73 c 132
 562.5 79.6669921875 530.5 91 500.5 107 c 132
 470.5 123 445.5 144.333007812 425.5 171 c 132
 405.5 197.666992188 395.5 231.666992188 395.5 273 c 4
 395.5 307.666992188 404.5 337 422.5 361 c 132
 440.5 385 462.5 404.666992188 488.5 420 c 132
 514.5 435.333007812 542.833007812 446.666992188 573.5 454 c 132
 604.166992188 461.333007812 632.833007812 466.333007812 659.5 469 c 5
 628.833007812 446.333007812 605.166992188 415.666992188 588.5 377 c 132
 571.833007812 338.333007812 563.5 300 563.5 262 c 132
 563.5 224 572.833007812 191 591.5 163 c 132
 610.166992188 135 640.833007812 121 683.5 121 c 4
 716.833007812 121 746.833007812 130.666992188 773.5 150 c 132
 800.166992188 169.333007812 822.833007812 195.666992188 841.5 229 c 132
 860.166992188 262.333007812 874.5 301.666992188 884.5 347 c 132
 894.5 392.333007812 899.5 441.666992188 899.5 495 c 4
 899.5 555 892.833007812 611 879.5 663 c 132
 866.166992188 715 846.166992188 760.333007812 819.5 799 c 132
 792.833007812 837.666992188 759.166992188 868.333007812 718.5 891 c 132
 677.833007812 913.666992188 630.166992188 925 575.5 925 c 4
 532.833007812 925 493.5 913.666992188 457.5 891 c 132
 421.5 868.333007812 390.833007812 837 365.5 797 c 132
 340.166992188 757 320.5 709.666992188 306.5 655 c 132
 292.5 600.333007812 285.5 540.333007812 285.5 475 c 6
 285.5 -409 l 5
 79.5 -409 l 5
 79.5 413 l 6
EndSplineSet
EndChar

StartChar: z
Encoding: 122 122 29
Width: 1199
VWidth: 2237
GlyphClass: 2
Flags: HW
LayerCount: 2
Fore
SplineSet
79.5 413 m 6
 79.5 491.666992188 89.5 566.666992188 109.5 638 c 132
 129.5 709.333007812 160.5 772.333007812 202.5 827 c 132
 244.5 881.666992188 297.5 925.333007812 361.5 958 c 132
 425.5 990.666992188 500.833007812 1007 587.5 1007 c 4
 663.5 1007 733.833007812 995.666992188 798.5 973 c 132
 863.166992188 950.333007812 919.5 918.333007812 967.5 877 c 132
 1015.5 835.666992188 1053.16699219 786 1080.5 728 c 132
 1107.83300781 670 1121.5 605.666992188 1121.5 535 c 4
 1121.5 383 1082.5 266.333007812 1004.5 185 c 132
 926.5 103.666992188 820.833007812 63 687.5 63 c 4
 660.833007812 63 630.5 66.3330078125 596.5 73 c 132
 562.5 79.6669921875 530.5 91 500.5 107 c 132
 470.5 123 445.5 144.333007812 425.5 171 c 132
 405.5 197.666992188 395.5 231.666992188 395.5 273 c 4
 395.5 307.666992188 404.5 337 422.5 361 c 132
 440.5 385 462.5 404.666992188 488.5 420 c 132
 514.5 435.333007812 542.833007812 446.666992188 573.5 454 c 132
 604.166992188 461.333007812 632.833007812 466.333007812 659.5 469 c 5
 628.833007812 446.333007812 605.166992188 415.666992188 588.5 377 c 132
 571.833007812 338.333007812 563.5 300 563.5 262 c 132
 563.5 224 572.833007812 191 591.5 163 c 132
 610.166992188 135 640.833007812 121 683.5 121 c 4
 716.833007812 121 746.833007812 130.666992188 773.5 150 c 132
 800.166992188 169.333007812 822.833007812 195.666992188 841.5 229 c 132
 860.166992188 262.333007812 874.5 301.666992188 884.5 347 c 132
 894.5 392.333007812 899.5 441.666992188 899.5 495 c 4
 899.5 555 892.833007812 611 879.5 663 c 132
 866.166992188 715 846.166992188 760.333007812 819.5 799 c 132
 792.833007812 837.666992188 759.166992188 868.333007812 718.5 891 c 132
 677.833007812 913.666992188 630.166992188 925 575.5 925 c 4
 532.833007812 925 493.5 913.666992188 457.5 891 c 132
 421.5 868.333007812 390.833007812 837 365.5 797 c 132
 340.166992188 757 320.5 709.666992188 306.5 655 c 132
 292.5 600.333007812 285.5 540.333007812 285.5 475 c 6
 285.5 -409 l 5
 79.5 -409 l 5
 79.5 413 l 6
EndSplineSet
EndChar

StartChar: G
Encoding: 71 71 30
Width: 1198
VWidth: 2257
GlyphClass: 2
Flags: HW
LayerCount: 2
Fore
SplineSet
1144.5 -564 m 5
 1133.83300781 -562.666992188 1116.16699219 -556.333007812 1091.5 -545 c 132
 1066.83300781 -533.666992188 1041.83300781 -517 1016.5 -495 c 132
 991.166992188 -473 968.833007812 -445.666992188 949.5 -413 c 132
 930.166992188 -380.333007812 920.5 -340.666992188 920.5 -294 c 4
 920.5 -86 920.166992188 82.3330078125 919.5 211 c 132
 918.833007812 339.666992188 918.5 440 918.5 512 c 132
 918.5 620 918.5 620 918.5 657 c 132
 918.5 694 918.5 694 918.5 694 c 5
 870.5 632.666992188 820.833007812 571 769.5 509 c 132
 718.166992188 447 666.5 386.333007812 614.5 327 c 132
 562.5 267.666992188 510.5 210.333007812 458.5 155 c 132
 406.5 99.6669921875 356.5 48 308.5 0 c 5
 100.5 0 l 5
 115.166992188 57.3330078125 132.166992188 115.666992188 151.5 175 c 132
 170.833007812 234.333007812 187.833007812 293 202.5 351 c 132
 217.166992188 409 228.166992188 465.333007812 235.5 520 c 132
 242.833007812 574.666992188 242.5 625.666992188 234.5 673 c 132
 226.5 720.333007812 208.5 763.333007812 180.5 802 c 132
 152.5 840.666992188 111.833007812 873.333007812 58.5 900 c 5
 264.5 900 l 5
 309.833007812 885.333007812 344.5 862.333007812 368.5 831 c 132
 392.5 799.666992188 409.5 764 419.5 724 c 132
 429.5 684 433.166992188 641.333007812 430.5 596 c 132
 427.833007812 550.666992188 422.5 506.333007812 414.5 463 c 132
 406.5 419.666992188 396.5 379 384.5 341 c 132
 372.5 303 361.833007812 272 352.5 248 c 5
 456.5 352 556.5 456 652.5 560 c 132
 748.5 664 837.166992188 777.333007812 918.5 900 c 5
 1124.5 900 l 5
 1124.5 -294 l 6
 1124.5 -326 1124.5 -326 1124.5 -364 c 132
 1124.5 -389.333007812 1124.83300781 -414 1125.5 -438 c 132
 1126.16699219 -462 1127.83300781 -485 1130.5 -507 c 132
 1133.16699219 -529 1137.83300781 -548 1144.5 -564 c 5
EndSplineSet
EndChar

StartChar: g
Encoding: 103 103 31
Width: 1198
VWidth: 2257
GlyphClass: 2
Flags: HW
LayerCount: 2
Fore
SplineSet
1144.5 -564 m 5
 1133.83300781 -562.666992188 1116.16699219 -556.333007812 1091.5 -545 c 132
 1066.83300781 -533.666992188 1041.83300781 -517 1016.5 -495 c 132
 991.166992188 -473 968.833007812 -445.666992188 949.5 -413 c 132
 930.166992188 -380.333007812 920.5 -340.666992188 920.5 -294 c 4
 920.5 -86 920.166992188 82.3330078125 919.5 211 c 132
 918.833007812 339.666992188 918.5 440 918.5 512 c 132
 918.5 620 918.5 620 918.5 657 c 132
 918.5 694 918.5 694 918.5 694 c 5
 870.5 632.666992188 820.833007812 571 769.5 509 c 132
 718.166992188 447 666.5 386.333007812 614.5 327 c 132
 562.5 267.666992188 510.5 210.333007812 458.5 155 c 132
 406.5 99.6669921875 356.5 48 308.5 0 c 5
 100.5 0 l 5
 115.166992188 57.3330078125 132.166992188 115.666992188 151.5 175 c 132
 170.833007812 234.333007812 187.833007812 293 202.5 351 c 132
 217.166992188 409 228.166992188 465.333007812 235.5 520 c 132
 242.833007812 574.666992188 242.5 625.666992188 234.5 673 c 132
 226.5 720.333007812 208.5 763.333007812 180.5 802 c 132
 152.5 840.666992188 111.833007812 873.333007812 58.5 900 c 5
 264.5 900 l 5
 309.833007812 885.333007812 344.5 862.333007812 368.5 831 c 132
 392.5 799.666992188 409.5 764 419.5 724 c 132
 429.5 684 433.166992188 641.333007812 430.5 596 c 132
 427.833007812 550.666992188 422.5 506.333007812 414.5 463 c 132
 406.5 419.666992188 396.5 379 384.5 341 c 132
 372.5 303 361.833007812 272 352.5 248 c 5
 456.5 352 556.5 456 652.5 560 c 132
 748.5 664 837.166992188 777.333007812 918.5 900 c 5
 1124.5 900 l 5
 1124.5 -294 l 6
 1124.5 -326 1124.5 -326 1124.5 -364 c 132
 1124.5 -389.333007812 1124.83300781 -414 1125.5 -438 c 132
 1126.16699219 -462 1127.83300781 -485 1130.5 -507 c 132
 1133.16699219 -529 1137.83300781 -548 1144.5 -564 c 5
EndSplineSet
EndChar

StartChar: H
Encoding: 72 72 32
Width: 743
VWidth: 2137
GlyphClass: 2
Flags: HW
LayerCount: 2
Fore
SplineSet
545 275 m 6
 545 229.666992188 545.333007812 191.666992188 546 161 c 132
 546.666992188 130.333007812 548 104.666992188 550 84 c 132
 552 63.3330078125 554 47 556 35 c 132
 558 23 561 13 565 5 c 5
 547.666992188 10.3330078125 526.333007812 19 501 31 c 132
 475.666992188 43 451.666992188 59.6669921875 429 81 c 132
 406.333007812 102.333007812 386.666992188 128.666992188 370 160 c 132
 353.333007812 191.333007812 345 229.666992188 345 275 c 6
 345 989 l 5
 545 989 l 5
 545 275 l 6
EndSplineSet
EndChar

StartChar: x
Encoding: 120 120 33
Width: 1200
VWidth: 2115
GlyphClass: 2
Flags: HW
LayerCount: 2
Fore
SplineSet
68 457.5 m 260
 68 520.166992188 82.3330078125 579.833007812 111 636.5 c 132
 139.666992188 693.166992188 178.666992188 743.166992188 228 786.5 c 132
 277.333007812 829.833007812 334 864.5 398 890.5 c 132
 462 916.5 529.333007812 929.5 600 929.5 c 260
 670.666992188 929.5 738.333007812 916.5 803 890.5 c 132
 867.666992188 864.5 924.333007812 829.833007812 973 786.5 c 132
 1021.66699219 743.166992188 1060.33300781 693.166992188 1089 636.5 c 132
 1117.66699219 579.833007812 1132 520.166992188 1132 457.5 c 260
 1132 394.833007812 1117.66699219 335.166992188 1089 278.5 c 132
 1060.33300781 221.833007812 1021.66699219 172.166992188 973 129.5 c 132
 924.333007812 86.8330078125 867.666992188 52.5 803 26.5 c 132
 738.333007812 0.5 670.666992188 -12.5 600 -12.5 c 260
 529.333007812 -12.5 462 0.5 398 26.5 c 132
 334 52.5 277.333007812 86.8330078125 228 129.5 c 132
 178.666992188 172.166992188 139.666992188 221.833007812 111 278.5 c 132
 82.3330078125 335.166992188 68 394.833007812 68 457.5 c 260
294 455.5 m 260
 294 407.5 302 360.166992188 318 313.5 c 132
 334 266.833007812 355.666992188 225.5 383 189.5 c 132
 410.333007812 153.5 442.333007812 124.5 479 102.5 c 132
 515.666992188 80.5 555.333007812 69.5 598 69.5 c 260
 640.666992188 69.5 680.666992188 80.5 718 102.5 c 132
 755.333007812 124.5 788 153.5 816 189.5 c 132
 844 225.5 866.333007812 266.833007812 883 313.5 c 132
 899.666992188 360.166992188 908 407.5 908 455.5 c 260
 908 503.5 899.666992188 550.833007812 883 597.5 c 132
 866.333007812 644.166992188 844 685.5 816 721.5 c 132
 788 757.5 755.333007812 786.5 718 808.5 c 132
 680.666992188 830.5 640.666992188 841.5 598 841.5 c 260
 555.333007812 841.5 515.666992188 830.5 479 808.5 c 132
 442.333007812 786.5 410.333007812 757.5 383 721.5 c 132
 355.666992188 685.5 334 644.166992188 318 597.5 c 132
 302 550.833007812 294 503.5 294 455.5 c 260
EndSplineSet
EndChar

StartChar: X
Encoding: 88 88 34
Width: 1200
VWidth: 2115
GlyphClass: 2
Flags: HW
LayerCount: 2
Fore
SplineSet
68 457.5 m 260
 68 520.166992188 82.3330078125 579.833007812 111 636.5 c 132
 139.666992188 693.166992188 178.666992188 743.166992188 228 786.5 c 132
 277.333007812 829.833007812 334 864.5 398 890.5 c 132
 462 916.5 529.333007812 929.5 600 929.5 c 260
 670.666992188 929.5 738.333007812 916.5 803 890.5 c 132
 867.666992188 864.5 924.333007812 829.833007812 973 786.5 c 132
 1021.66699219 743.166992188 1060.33300781 693.166992188 1089 636.5 c 132
 1117.66699219 579.833007812 1132 520.166992188 1132 457.5 c 260
 1132 394.833007812 1117.66699219 335.166992188 1089 278.5 c 132
 1060.33300781 221.833007812 1021.66699219 172.166992188 973 129.5 c 132
 924.333007812 86.8330078125 867.666992188 52.5 803 26.5 c 132
 738.333007812 0.5 670.666992188 -12.5 600 -12.5 c 260
 529.333007812 -12.5 462 0.5 398 26.5 c 132
 334 52.5 277.333007812 86.8330078125 228 129.5 c 132
 178.666992188 172.166992188 139.666992188 221.833007812 111 278.5 c 132
 82.3330078125 335.166992188 68 394.833007812 68 457.5 c 260
294 455.5 m 260
 294 407.5 302 360.166992188 318 313.5 c 132
 334 266.833007812 355.666992188 225.5 383 189.5 c 132
 410.333007812 153.5 442.333007812 124.5 479 102.5 c 132
 515.666992188 80.5 555.333007812 69.5 598 69.5 c 260
 640.666992188 69.5 680.666992188 80.5 718 102.5 c 132
 755.333007812 124.5 788 153.5 816 189.5 c 132
 844 225.5 866.333007812 266.833007812 883 313.5 c 132
 899.666992188 360.166992188 908 407.5 908 455.5 c 260
 908 503.5 899.666992188 550.833007812 883 597.5 c 132
 866.333007812 644.166992188 844 685.5 816 721.5 c 132
 788 757.5 755.333007812 786.5 718 808.5 c 132
 680.666992188 830.5 640.666992188 841.5 598 841.5 c 260
 555.333007812 841.5 515.666992188 830.5 479 808.5 c 132
 442.333007812 786.5 410.333007812 757.5 383 721.5 c 132
 355.666992188 685.5 334 644.166992188 318 597.5 c 132
 302 550.833007812 294 503.5 294 455.5 c 260
EndSplineSet
EndChar

StartChar: A
Encoding: 65 65 35
Width: 304
VWidth: 2122
GlyphClass: 2
Flags: HW
LayerCount: 2
Fore
SplineSet
396 526 m 6
 396 458 396 458 396 412 c 132
 396 381.333007812 395.666992188 355.666992188 395 335 c 132
 394.333007812 314.333007812 394 298 394 286 c 132
 394 268 394 268 394 256 c 5
 376.666992188 261.333007812 356.666992188 270 334 282 c 132
 311.333007812 294 289.666992188 310.666992188 269 332 c 132
 248.333007812 353.333007812 231 379.666992188 217 411 c 132
 203 442.333007812 196 480.666992188 196 526 c 6
 196 768 l 5
 396 768 l 5
 396 526 l 6
EndSplineSet
EndChar

StartChar: a
Encoding: 97 97 36
Width: 304
VWidth: 2122
GlyphClass: 2
Flags: HW
LayerCount: 2
Fore
SplineSet
396 526 m 6
 396 458 396 458 396 412 c 132
 396 381.333007812 395.666992188 355.666992188 395 335 c 132
 394.333007812 314.333007812 394 298 394 286 c 132
 394 268 394 268 394 256 c 5
 376.666992188 261.333007812 356.666992188 270 334 282 c 132
 311.333007812 294 289.666992188 310.666992188 269 332 c 132
 248.333007812 353.333007812 231 379.666992188 217 411 c 132
 203 442.333007812 196 480.666992188 196 526 c 6
 196 768 l 5
 396 768 l 5
 396 526 l 6
EndSplineSet
EndChar

StartChar: E
Encoding: 69 69 37
Width: 303
VWidth: 2121
GlyphClass: 2
Flags: HW
LayerCount: 2
Fore
SplineSet
519.5 437.5 m 1
 439.5 438.833007812 372.166992188 439.166992188 317.5 438.5 c 128
 262.833007812 437.833007812 217.833007812 436.833007812 182.5 435.5 c 128
 147.166992188 434.166992188 119.833007812 432.5 100.5 430.5 c 128
 81.1669921875 428.5 66.8330078125 426.166992188 57.5 423.5 c 128
 48.1669921875 420.833007812 42.1669921875 418.5 39.5 416.5 c 128
 36.8330078125 414.5 34.1669921875 412.833007812 31.5 411.5 c 2
 113.5 613.5 l 1
 561.5 613.5 l 1
 519.5 437.5 l 1
EndSplineSet
EndChar

StartChar: e
Encoding: 101 101 38
Width: 303
VWidth: 2121
GlyphClass: 2
Flags: HW
LayerCount: 2
Fore
SplineSet
519.5 437.5 m 1
 439.5 438.833007812 372.166992188 439.166992188 317.5 438.5 c 128
 262.833007812 437.833007812 217.833007812 436.833007812 182.5 435.5 c 128
 147.166992188 434.166992188 119.833007812 432.5 100.5 430.5 c 128
 81.1669921875 428.5 66.8330078125 426.166992188 57.5 423.5 c 128
 48.1669921875 420.833007812 42.1669921875 418.5 39.5 416.5 c 128
 36.8330078125 414.5 34.1669921875 412.833007812 31.5 411.5 c 2
 113.5 613.5 l 1
 561.5 613.5 l 1
 519.5 437.5 l 1
EndSplineSet
EndChar

StartChar: I
Encoding: 73 73 39
Width: 300
VWidth: 2115
GlyphClass: 2
Flags: HW
LayerCount: 2
Fore
SplineSet
161.5 517.5 m 0
 161.5 556.166992188 175.166992188 589.166992188 202.5 616.5 c 128
 229.833007812 643.833007812 262.166992188 657.5 299.5 657.5 c 0
 338.166992188 657.5 371.166992188 643.833007812 398.5 616.5 c 128
 425.833007812 589.166992188 439.5 556.166992188 439.5 517.5 c 0
 439.5 480.166992188 425.833007812 447.833007812 398.5 420.5 c 128
 371.166992188 393.166992188 338.166992188 379.5 299.5 379.5 c 0
 262.166992188 379.5 229.833007812 393.166992188 202.5 420.5 c 128
 175.166992188 447.833007812 161.5 480.166992188 161.5 517.5 c 0
EndSplineSet
EndChar

StartChar: i
Encoding: 105 105 40
Width: 300
VWidth: 2115
GlyphClass: 2
Flags: HW
LayerCount: 2
Fore
SplineSet
161.5 517.5 m 0
 161.5 556.166992188 175.166992188 589.166992188 202.5 616.5 c 128
 229.833007812 643.833007812 262.166992188 657.5 299.5 657.5 c 0
 338.166992188 657.5 371.166992188 643.833007812 398.5 616.5 c 128
 425.833007812 589.166992188 439.5 556.166992188 439.5 517.5 c 0
 439.5 480.166992188 425.833007812 447.833007812 398.5 420.5 c 128
 371.166992188 393.166992188 338.166992188 379.5 299.5 379.5 c 0
 262.166992188 379.5 229.833007812 393.166992188 202.5 420.5 c 128
 175.166992188 447.833007812 161.5 480.166992188 161.5 517.5 c 0
EndSplineSet
EndChar

StartChar: O
Encoding: 79 79 41
Width: 301
VWidth: 2117
GlyphClass: 2
Flags: HW
LayerCount: 2
Fore
SplineSet
577 751.5 m 1
 551.666992188 718.166992188 526.333007812 681.166992188 501 640.5 c 128
 475.666992188 599.833007812 451.333007812 558.166992188 428 515.5 c 128
 404.666992188 472.833007812 383.666992188 431.166992188 365 390.5 c 128
 346.333007812 349.833007812 331.666992188 313.5 321 281.5 c 1
 163 281.5 l 1
 173.666992188 365.5 166.666992188 441.5 142 509.5 c 128
 117.333007812 577.5 77 628.166992188 21 661.5 c 1
 193 661.5 l 1
 221 653.5 241.666992188 637.5 255 613.5 c 128
 268.333007812 589.5 281 557.5 293 517.5 c 1
 313 546.833007812 331.666992188 575.166992188 349 602.5 c 128
 366.333007812 629.833007812 385.333007812 653.833007812 406 674.5 c 128
 426.666992188 695.166992188 450.333007812 712.166992188 477 725.5 c 128
 503.666992188 738.833007812 537 747.5 577 751.5 c 1
EndSplineSet
EndChar

StartChar: o
Encoding: 111 111 42
Width: 301
VWidth: 2117
GlyphClass: 2
Flags: HW
LayerCount: 2
Fore
SplineSet
577 751.5 m 1
 551.666992188 718.166992188 526.333007812 681.166992188 501 640.5 c 128
 475.666992188 599.833007812 451.333007812 558.166992188 428 515.5 c 128
 404.666992188 472.833007812 383.666992188 431.166992188 365 390.5 c 128
 346.333007812 349.833007812 331.666992188 313.5 321 281.5 c 1
 163 281.5 l 1
 173.666992188 365.5 166.666992188 441.5 142 509.5 c 128
 117.333007812 577.5 77 628.166992188 21 661.5 c 1
 193 661.5 l 1
 221 653.5 241.666992188 637.5 255 613.5 c 128
 268.333007812 589.5 281 557.5 293 517.5 c 1
 313 546.833007812 331.666992188 575.166992188 349 602.5 c 128
 366.333007812 629.833007812 385.333007812 653.833007812 406 674.5 c 128
 426.666992188 695.166992188 450.333007812 712.166992188 477 725.5 c 128
 503.666992188 738.833007812 537 747.5 577 751.5 c 1
EndSplineSet
EndChar

StartChar: U
Encoding: 85 85 43
Width: 297
VWidth: 2114
GlyphClass: 2
Flags: HW
LayerCount: 2
Fore
SplineSet
10.5 516.72265625 m 0
 10.5 556.72265625 20.5 592.72265625 40.5 624.72265625 c 128
 60.5 656.72265625 89.8330078125 674.055664062 128.5 676.72265625 c 0
 149.833007812 678.055664062 167.5 672.388671875 181.5 659.72265625 c 128
 195.5 647.055664062 205.166992188 631.72265625 210.5 613.72265625 c 128
 215.833007812 595.72265625 215.5 578.055664062 209.5 560.72265625 c 128
 203.5 543.388671875 190.5 530.72265625 170.5 522.72265625 c 1
 174.5 514.72265625 183.5 509.055664062 197.5 505.72265625 c 128
 211.5 502.388671875 225.166992188 501.388671875 238.5 502.72265625 c 0
 265.166992188 504.055664062 293.166992188 508.055664062 322.5 514.72265625 c 128
 351.833007812 521.388671875 381.833007812 532.055664062 412.5 546.72265625 c 128
 443.166992188 561.388671875 473.833007812 580.72265625 504.5 604.72265625 c 128
 535.166992188 628.72265625 565.833007812 659.388671875 596.5 696.72265625 c 1
 591.166992188 640.72265625 577.5 591.055664062 555.5 547.72265625 c 128
 533.5 504.388671875 505.833007812 468.055664062 472.5 438.72265625 c 128
 439.166992188 409.388671875 402.5 386.72265625 362.5 370.72265625 c 128
 322.5 354.72265625 281.833007812 345.388671875 240.5 342.72265625 c 0
 208.5 340.055664062 178.5 343.388671875 150.5 352.72265625 c 128
 122.5 362.055664062 98.1669921875 374.72265625 77.5 390.72265625 c 128
 56.8330078125 406.72265625 40.5 425.72265625 28.5 447.72265625 c 128
 16.5 469.72265625 10.5 492.72265625 10.5 516.72265625 c 0
EndSplineSet
EndChar

StartChar: u
Encoding: 117 117 44
Width: 297
VWidth: 2114
GlyphClass: 2
Flags: HW
LayerCount: 2
Fore
SplineSet
10.5 516.72265625 m 0
 10.5 556.72265625 20.5 592.72265625 40.5 624.72265625 c 128
 60.5 656.72265625 89.8330078125 674.055664062 128.5 676.72265625 c 0
 149.833007812 678.055664062 167.5 672.388671875 181.5 659.72265625 c 128
 195.5 647.055664062 205.166992188 631.72265625 210.5 613.72265625 c 128
 215.833007812 595.72265625 215.5 578.055664062 209.5 560.72265625 c 128
 203.5 543.388671875 190.5 530.72265625 170.5 522.72265625 c 1
 174.5 514.72265625 183.5 509.055664062 197.5 505.72265625 c 128
 211.5 502.388671875 225.166992188 501.388671875 238.5 502.72265625 c 0
 265.166992188 504.055664062 293.166992188 508.055664062 322.5 514.72265625 c 128
 351.833007812 521.388671875 381.833007812 532.055664062 412.5 546.72265625 c 128
 443.166992188 561.388671875 473.833007812 580.72265625 504.5 604.72265625 c 128
 535.166992188 628.72265625 565.833007812 659.388671875 596.5 696.72265625 c 1
 591.166992188 640.72265625 577.5 591.055664062 555.5 547.72265625 c 128
 533.5 504.388671875 505.833007812 468.055664062 472.5 438.72265625 c 128
 439.166992188 409.388671875 402.5 386.72265625 362.5 370.72265625 c 128
 322.5 354.72265625 281.833007812 345.388671875 240.5 342.72265625 c 0
 208.5 340.055664062 178.5 343.388671875 150.5 352.72265625 c 128
 122.5 362.055664062 98.1669921875 374.72265625 77.5 390.72265625 c 128
 56.8330078125 406.72265625 40.5 425.72265625 28.5 447.72265625 c 128
 16.5 469.72265625 10.5 492.72265625 10.5 516.72265625 c 0
EndSplineSet
EndChar

StartChar: Y
Encoding: 89 89 45
Width: 300
VWidth: 2116
GlyphClass: 2
Flags: HW
LayerCount: 2
Fore
SplineSet
72 518 m 256
 72 550 78 579.666992188 90 607 c 128
 102 634.333007812 118.333007812 658.333007812 139 679 c 128
 159.666992188 699.666992188 183.666992188 716 211 728 c 128
 238.333007812 740 268 746 300 746 c 256
 332 746 361.666992188 740 389 728 c 128
 416.333007812 716 440.333007812 699.666992188 461 679 c 128
 481.666992188 658.333007812 498 634.333007812 510 607 c 128
 522 579.666992188 528 550 528 518 c 256
 528 486 522 456.333007812 510 429 c 128
 498 401.666992188 481.666992188 377.666992188 461 357 c 128
 440.333007812 336.333007812 416.333007812 320 389 308 c 128
 361.666992188 296 332 290 300 290 c 256
 268 290 238.333007812 296 211 308 c 128
 183.666992188 320 159.666992188 336.333007812 139 357 c 128
 118.333007812 377.666992188 102 401.666992188 90 429 c 128
 78 456.333007812 72 486 72 518 c 256
150 518 m 256
 150 475.333007812 164.333007812 439.666992188 193 411 c 128
 221.666992188 382.333007812 257.333007812 368 300 368 c 256
 342.666992188 368 378.666992188 382.333007812 408 411 c 128
 437.333007812 439.666992188 452 475.333007812 452 518 c 256
 452 560.666992188 437.333007812 596.666992188 408 626 c 128
 378.666992188 655.333007812 342.666992188 670 300 670 c 256
 257.333007812 670 221.666992188 655.333007812 193 626 c 128
 164.333007812 596.666992188 150 560.666992188 150 518 c 256
EndSplineSet
EndChar

StartChar: y
Encoding: 121 121 46
Width: 300
VWidth: 2116
GlyphClass: 2
Flags: HW
LayerCount: 2
Fore
SplineSet
72 518 m 256
 72 550 78 579.666992188 90 607 c 128
 102 634.333007812 118.333007812 658.333007812 139 679 c 128
 159.666992188 699.666992188 183.666992188 716 211 728 c 128
 238.333007812 740 268 746 300 746 c 256
 332 746 361.666992188 740 389 728 c 128
 416.333007812 716 440.333007812 699.666992188 461 679 c 128
 481.666992188 658.333007812 498 634.333007812 510 607 c 128
 522 579.666992188 528 550 528 518 c 256
 528 486 522 456.333007812 510 429 c 128
 498 401.666992188 481.666992188 377.666992188 461 357 c 128
 440.333007812 336.333007812 416.333007812 320 389 308 c 128
 361.666992188 296 332 290 300 290 c 256
 268 290 238.333007812 296 211 308 c 128
 183.666992188 320 159.666992188 336.333007812 139 357 c 128
 118.333007812 377.666992188 102 401.666992188 90 429 c 128
 78 456.333007812 72 486 72 518 c 256
150 518 m 256
 150 475.333007812 164.333007812 439.666992188 193 411 c 128
 221.666992188 382.333007812 257.333007812 368 300 368 c 256
 342.666992188 368 378.666992188 382.333007812 408 411 c 128
 437.333007812 439.666992188 452 475.333007812 452 518 c 256
 452 560.666992188 437.333007812 596.666992188 408 626 c 128
 378.666992188 655.333007812 342.666992188 670 300 670 c 256
 257.333007812 670 221.666992188 655.333007812 193 626 c 128
 164.333007812 596.666992188 150 560.666992188 150 518 c 256
EndSplineSet
EndChar

StartChar: h
Encoding: 104 104 47
Width: 743
VWidth: 2137
GlyphClass: 2
Flags: HW
LayerCount: 2
Fore
SplineSet
545 275 m 6
 545 229.666992188 545.333007812 191.666992188 546 161 c 132
 546.666992188 130.333007812 548 104.666992188 550 84 c 132
 552 63.3330078125 554 47 556 35 c 132
 558 23 561 13 565 5 c 5
 547.666992188 10.3330078125 526.333007812 19 501 31 c 132
 475.666992188 43 451.666992188 59.6669921875 429 81 c 132
 406.333007812 102.333007812 386.666992188 128.666992188 370 160 c 132
 353.333007812 191.333007812 345 229.666992188 345 275 c 6
 345 989 l 5
 545 989 l 5
 545 275 l 6
EndSplineSet
EndChar

StartChar: period
Encoding: 46 46 48
Width: 600
GlyphClass: 2
Flags: HW
LayerCount: 2
Fore
SplineSet
146 450 m 260
 146 492.666992188 161 529 191 559 c 132
 221 589 257.333007812 604 300 604 c 260
 342.666992188 604 379 589 409 559 c 132
 439 529 454 492.666992188 454 450 c 260
 454 407.333007812 439 371.333007812 409 342 c 132
 379 312.666992188 342.666992188 298 300 298 c 260
 257.333007812 298 221 312.666992188 191 342 c 132
 161 371.333007812 146 407.333007812 146 450 c 260
EndSplineSet
EndChar

StartChar: quotesingle
Encoding: 39 39 49
Width: 743
VWidth: 2137
GlyphClass: 2
Flags: HW
LayerCount: 2
Fore
SplineSet
545 275 m 2
 545 229.666992188 545.333007812 191.666992188 546 161 c 128
 546.666992188 130.333007812 548 104.666992188 550 84 c 128
 552 63.3330078125 554 47 556 35 c 128
 558 23 561 13 565 5 c 1
 547.666992188 10.3330078125 526.333007812 19 501 31 c 128
 475.666992188 43 451.666992188 59.6669921875 429 81 c 128
 406.333007812 102.333007812 386.666992188 128.666992188 370 160 c 128
 353.333007812 191.333007812 345 229.666992188 345 275 c 2
 345 989 l 1
 545 989 l 1
 545 275 l 2
EndSplineSet
EndChar

StartChar: period.e
Encoding: 257 -1 50
Width: 600
GlyphClass: 3
Flags: HW
LayerCount: 2
Fore
SplineSet
146 450 m 260
 146 514 146 514 191 559 c 132
 236 604 236 604 300 604 c 260
 364 604 364 604 409 559 c 132
 454 514 454 514 454 450 c 260
 454 386 454 386 409 342 c 132
 364 298 364 298 300 298 c 260
 236 298 236 298 191 342 c 132
 146 386 146 386 146 450 c 260
552 1228 m 5
 432 1230 432 1230 350 1229 c 132
 268 1228 268 1228 215 1226 c 132
 162 1224 162 1224 133 1221 c 132
 104 1218 104 1218 90 1214 c 132
 76 1210 76 1210 72 1207 c 132
 68 1204 68 1204 64 1202 c 6
 146 1404 l 5
 594 1404 l 5
 552 1228 l 5
EndSplineSet
LCarets2: 1 0
Ligature2: "ccmp-1 subtable" period E
Ligature2: "ccmp-1 subtable" period e
Ligature2: "ccmp-0 subtable" period E
Ligature2: "ccmp-0 subtable" period e
Ligature2: "ccmp-1" period e
Ligature2: "ccmp-1" period E
EndChar

StartChar: period.a
Encoding: 256 -1 51
Width: 600
GlyphClass: 3
Flags: HW
LayerCount: 2
Fore
SplineSet
146 450 m 260
 146 514 146 514 191 559 c 132
 236 604 236 604 300 604 c 260
 364 604 364 604 409 559 c 132
 454 514 454 514 454 450 c 260
 454 386 454 386 409 342 c 132
 364 298 364 298 300 298 c 260
 236 298 236 298 191 342 c 132
 146 386 146 386 146 450 c 260
400 1360 m 6
 400 1292 400 1292 400 1246 c 132
 400 1200 400 1200 399 1169 c 132
 398 1138 398 1138 398 1120 c 132
 398 1102 398 1102 398 1090 c 5
 372 1098 372 1098 338 1116 c 132
 304 1134 304 1134 273 1166 c 132
 242 1198 242 1198 221 1245 c 132
 200 1292 200 1292 200 1360 c 6
 200 1602 l 5
 400 1602 l 5
 400 1360 l 6
EndSplineSet
LCarets2: 1 0
Ligature2: "ccmp-1 subtable" period A
Ligature2: "ccmp-1 subtable" period a
Ligature2: "ccmp-0 subtable" period A
Ligature2: "ccmp-0 subtable" period a
Ligature2: "ccmp-1" period a
Ligature2: "ccmp-1" period A
EndChar

StartChar: period.i
Encoding: 258 -1 52
Width: 600
GlyphClass: 3
Flags: HW
LayerCount: 2
Fore
SplineSet
146 450 m 260
 146 514 146 514 191 559 c 132
 236 604 236 604 300 604 c 260
 364 604 364 604 409 559 c 132
 454 514 454 514 454 450 c 260
 454 386 454 386 409 342 c 132
 364 298 364 298 300 298 c 260
 236 298 236 298 191 342 c 132
 146 386 146 386 146 450 c 260
162 1270 m 4
 162 1328 162 1328 203 1369 c 132
 244 1410 244 1410 300 1410 c 4
 358 1410 358 1410 399 1369 c 132
 440 1328 440 1328 440 1270 c 4
 440 1214 440 1214 399 1173 c 132
 358 1132 358 1132 300 1132 c 4
 244 1132 244 1132 203 1173 c 132
 162 1214 162 1214 162 1270 c 4
EndSplineSet
Ligature2: "ccmp-1" period I
Ligature2: "ccmp-1" period i
Ligature2: "ccmp-0 subtable" period i
Ligature2: "ccmp-0 subtable" period I
Ligature2: "ccmp-1 subtable" period i
Ligature2: "ccmp-1 subtable" period I
EndChar

StartChar: period.o
Encoding: 259 -1 53
Width: 600
GlyphClass: 3
Flags: HW
LayerCount: 2
Fore
SplineSet
146 450 m 260
 146 514 146 514 191 559 c 132
 236 604 236 604 300 604 c 260
 364 604 364 604 409 559 c 132
 454 514 454 514 454 450 c 260
 454 386 454 386 409 342 c 132
 364 298 364 298 300 298 c 260
 236 298 236 298 191 342 c 132
 146 386 146 386 146 450 c 260
616 1522 m 5
 578 1472 578 1472 540 1411 c 132
 502 1350 502 1350 467 1286 c 132
 432 1222 432 1222 404 1161 c 132
 376 1100 376 1100 360 1052 c 5
 202 1052 l 5
 218 1178 218 1178 181 1280 c 132
 144 1382 144 1382 60 1432 c 5
 232 1432 l 5
 274 1420 274 1420 294 1384 c 132
 314 1348 314 1348 332 1288 c 5
 362 1332 362 1332 388 1373 c 132
 414 1414 414 1414 445 1445 c 132
 476 1476 476 1476 516 1496 c 132
 556 1516 556 1516 616 1522 c 5
EndSplineSet
Ligature2: "ccmp-1" period o
Ligature2: "ccmp-1" period O
Ligature2: "ccmp-0 subtable" period O
Ligature2: "ccmp-0 subtable" period o
Ligature2: "ccmp-1 subtable" period O
Ligature2: "ccmp-1 subtable" period o
EndChar

StartChar: period.u
Encoding: 260 -1 54
Width: 600
GlyphClass: 3
Flags: HW
LayerCount: 2
Fore
SplineSet
146 450 m 260
 146 514 146 514 191 559 c 132
 236 604 236 604 300 604 c 260
 364 604 364 604 409 559 c 132
 454 514 454 514 454 450 c 260
 454 386 454 386 409 342 c 132
 364 298 364 298 300 298 c 260
 236 298 236 298 191 342 c 132
 146 386 146 386 146 450 c 260
74 1230 m 4
 74 1290 74 1290 104 1338 c 132
 134 1386 134 1386 192 1390 c 4
 224 1392 224 1392 245 1373 c 132
 266 1354 266 1354 274 1327 c 132
 282 1300 282 1300 273 1274 c 132
 264 1248 264 1248 234 1236 c 5
 240 1224 240 1224 261 1219 c 132
 282 1214 282 1214 302 1216 c 4
 342 1218 342 1218 386 1228 c 132
 430 1238 430 1238 476 1260 c 132
 522 1282 522 1282 568 1318 c 132
 614 1354 614 1354 660 1410 c 5
 652 1326 652 1326 619 1261 c 132
 586 1196 586 1196 536 1152 c 132
 486 1108 486 1108 426 1084 c 132
 366 1060 366 1060 304 1056 c 4
 256 1052 256 1052 214 1066 c 132
 172 1080 172 1080 141 1104 c 132
 110 1128 110 1128 92 1161 c 132
 74 1194 74 1194 74 1230 c 4
EndSplineSet
Ligature2: "ccmp-1" period U
Ligature2: "ccmp-1" period u
Ligature2: "ccmp-0 subtable" period u
Ligature2: "ccmp-0 subtable" period U
Ligature2: "ccmp-1 subtable" period u
Ligature2: "ccmp-1 subtable" period U
EndChar

StartChar: period.y
Encoding: 261 -1 55
Width: 600
GlyphClass: 3
Flags: HW
LayerCount: 2
Fore
SplineSet
146 450 m 260
 146 514 146 514 191 559 c 132
 236 604 236 604 300 604 c 260
 364 604 364 604 409 559 c 132
 454 514 454 514 454 450 c 260
 454 386 454 386 409 342 c 132
 364 298 364 298 300 298 c 260
 236 298 236 298 191 342 c 132
 146 386 146 386 146 450 c 260
72 1210 m 260
 72 1258 72 1258 90 1299 c 132
 108 1340 108 1340 139 1371 c 132
 170 1402 170 1402 211 1420 c 132
 252 1438 252 1438 300 1438 c 260
 348 1438 348 1438 389 1420 c 132
 430 1402 430 1402 461 1371 c 132
 492 1340 492 1340 510 1299 c 132
 528 1258 528 1258 528 1210 c 260
 528 1162 528 1162 510 1121 c 132
 492 1080 492 1080 461 1049 c 132
 430 1018 430 1018 389 1000 c 132
 348 982 348 982 300 982 c 260
 252 982 252 982 211 1000 c 132
 170 1018 170 1018 139 1049 c 132
 108 1080 108 1080 90 1121 c 132
 72 1162 72 1162 72 1210 c 260
150 1210 m 260
 150 1146 150 1146 193 1103 c 132
 236 1060 236 1060 300 1060 c 260
 364 1060 364 1060 408 1103 c 132
 452 1146 452 1146 452 1210 c 260
 452 1274 452 1274 408 1318 c 132
 364 1362 364 1362 300 1362 c 260
 236 1362 236 1362 193 1318 c 132
 150 1274 150 1274 150 1210 c 260
EndSplineSet
LCarets2: 1 0
Ligature2: "ccmp-1" period Y
Ligature2: "ccmp-1" period y
Ligature2: "ccmp-0 subtable" period y
Ligature2: "ccmp-0 subtable" period Y
Ligature2: "ccmp-1 subtable" period y
Ligature2: "ccmp-1 subtable" period Y
EndChar

StartChar: period.ai
Encoding: 262 -1 56
Width: 600
GlyphClass: 3
Flags: HW
LayerCount: 2
Fore
SplineSet
146 450 m 260
 146 514 146 514 191 559 c 132
 236 604 236 604 300 604 c 260
 364 604 364 604 409 559 c 132
 454 514 454 514 454 450 c 260
 454 386 454 386 409 342 c 132
 364 298 364 298 300 298 c 260
 236 298 236 298 191 342 c 132
 146 386 146 386 146 450 c 260
381.599609375 1222.80078125 m 6
 381.599609375 1168.40039062 381.599609375 1168.40039062 382.400390625 1131.59960938 c 132
 383.19921875 1094.80078125 383.19921875 1094.80078125 385.599609375 1070 c 132
 388 1045.19921875 388 1045.19921875 390.400390625 1030.80078125 c 132
 392.80078125 1016.40039062 392.80078125 1016.40039062 397.599609375 1006.80078125 c 5
 376.80078125 1013.19921875 376.80078125 1013.19921875 346.400390625 1027.59960938 c 132
 316 1042 316 1042 288.80078125 1067.59960938 c 132
 261.599609375 1093.19921875 261.599609375 1093.19921875 241.599609375 1130.80078125 c 132
 221.599609375 1168.40039062 221.599609375 1168.40039062 221.599609375 1222.80078125 c 6
 221.599609375 1346 l 5
 381.599609375 1346 l 5
 381.599609375 1222.80078125 l 6
218.400390625 1490 m 260
 218.400390625 1525.19921875 218.400390625 1525.19921875 242.400390625 1549.19921875 c 132
 266.400390625 1573.19921875 266.400390625 1573.19921875 301.599609375 1573.19921875 c 260
 336.80078125 1573.19921875 336.80078125 1573.19921875 360.80078125 1549.19921875 c 132
 384.80078125 1525.19921875 384.80078125 1525.19921875 384.80078125 1490 c 260
 384.80078125 1454.80078125 384.80078125 1454.80078125 360.80078125 1430.80078125 c 132
 336.80078125 1406.80078125 336.80078125 1406.80078125 301.599609375 1406.80078125 c 260
 266.400390625 1406.80078125 266.400390625 1406.80078125 242.400390625 1430.80078125 c 132
 218.400390625 1454.80078125 218.400390625 1454.80078125 218.400390625 1490 c 260
EndSplineSet
Ligature2: "ccmp-1 subtable" period a I
Ligature2: "ccmp-1 subtable" period a i
Ligature2: "ccmp-1 subtable" period A i
Ligature2: "ccmp-1 subtable" period A I
Ligature2: "ccmp-0 subtable" period a I
Ligature2: "ccmp-0 subtable" period a i
Ligature2: "ccmp-0 subtable" period A i
Ligature2: "ccmp-0 subtable" period A I
Ligature2: "ccmp-1" period A I
Ligature2: "ccmp-1" period A i
Ligature2: "ccmp-1" period a i
Ligature2: "ccmp-1" period a I
EndChar

StartChar: period.au
Encoding: 263 -1 57
Width: 600
GlyphClass: 3
Flags: HW
LayerCount: 2
Fore
SplineSet
146 450 m 260
 146 514 146 514 191 559 c 132
 236 604 236 604 300 604 c 260
 364 604 364 604 409 559 c 132
 454 514 454 514 454 450 c 260
 454 386 454 386 409 342 c 132
 364 298 364 298 300 298 c 260
 236 298 236 298 191 342 c 132
 146 386 146 386 146 450 c 260
158 1326 m 4
 186 1362 186 1362 217 1377 c 132
 248 1392 248 1392 280 1392 c 4
 318 1392 318 1392 355 1372 c 132
 392 1352 392 1352 420 1320 c 132
 448 1288 448 1288 465 1249 c 132
 482 1210 482 1210 482 1172 c 4
 482 1114 482 1114 458 1066 c 132
 434 1018 434 1018 395 981 c 132
 356 944 356 944 307 920 c 132
 258 896 258 896 206 884 c 5
 238 924 238 924 262 956 c 132
 286 988 286 988 300 1018 c 132
 314 1048 314 1048 321 1079 c 132
 328 1110 328 1110 328 1146 c 4
 328 1186 328 1186 319 1216 c 132
 310 1246 310 1246 300 1262 c 5
 300 1234 300 1234 277 1213 c 132
 254 1192 254 1192 224 1192 c 4
 178 1192 178 1192 158 1215 c 132
 138 1238 138 1238 138 1266 c 4
 138 1300 138 1300 158 1326 c 4
EndSplineSet
Ligature2: "ccmp-1" period a u
Ligature2: "ccmp-1" period a U
Ligature2: "ccmp-1" period A u
Ligature2: "ccmp-1" period A U
Ligature2: "ccmp-0 subtable" period A U
Ligature2: "ccmp-0 subtable" period A u
Ligature2: "ccmp-0 subtable" period a U
Ligature2: "ccmp-0 subtable" period a u
Ligature2: "ccmp-1 subtable" period A U
Ligature2: "ccmp-1 subtable" period A u
Ligature2: "ccmp-1 subtable" period a U
Ligature2: "ccmp-1 subtable" period a u
EndChar

StartChar: period.ei
Encoding: 264 -1 58
Width: 600
GlyphClass: 3
Flags: HW
LayerCount: 2
Fore
SplineSet
146 450 m 260
 146 514 146 514 191 559 c 132
 236 604 236 604 300 604 c 260
 364 604 364 604 409 559 c 132
 454 514 454 514 454 450 c 260
 454 386 454 386 409 342 c 132
 364 298 364 298 300 298 c 260
 236 298 236 298 191 342 c 132
 146 386 146 386 146 450 c 260
249.19921875 1434 m 4
 249.19921875 1469.19921875 249.19921875 1469.19921875 273.19921875 1493.19921875 c 132
 297.19921875 1517.19921875 297.19921875 1517.19921875 330.80078125 1517.19921875 c 4
 366 1517.19921875 366 1517.19921875 390 1493.19921875 c 132
 414 1469.19921875 414 1469.19921875 414 1434 c 4
 414 1400.40039062 414 1400.40039062 390 1376.40039062 c 132
 366 1352.40039062 366 1352.40039062 330.80078125 1352.40039062 c 4
 297.19921875 1352.40039062 297.19921875 1352.40039062 273.19921875 1376.40039062 c 132
 249.19921875 1400.40039062 249.19921875 1400.40039062 249.19921875 1434 c 4
502 1147.59960938 m 5
 358 1149.19921875 358 1149.19921875 270.80078125 1147.59960938 c 132
 183.599609375 1146 183.599609375 1146 136.400390625 1142 c 132
 89.19921875 1138 89.19921875 1138 73.19921875 1133.19921875 c 4
 52.400390625 1126.80078125 52.400390625 1126.80078125 52.400390625 1126.80078125 c 6
 134 1272.40039062 l 5
 535.599609375 1272.40039062 l 5
 502 1147.59960938 l 5
EndSplineSet
Ligature2: "ccmp-1" period E I
Ligature2: "ccmp-1" period E i
Ligature2: "ccmp-1" period e I
Ligature2: "ccmp-1" period e i
Ligature2: "ccmp-0 subtable" period e i
Ligature2: "ccmp-0 subtable" period e I
Ligature2: "ccmp-0 subtable" period E i
Ligature2: "ccmp-0 subtable" period E I
Ligature2: "ccmp-1 subtable" period e i
Ligature2: "ccmp-1 subtable" period e I
Ligature2: "ccmp-1 subtable" period E i
Ligature2: "ccmp-1 subtable" period E I
EndChar

StartChar: period.oi
Encoding: 265 -1 59
Width: 600
GlyphClass: 3
Flags: HW
LayerCount: 2
Fore
SplineSet
146 450 m 260
 146 514 146 514 191 559 c 132
 236 604 236 604 300 604 c 260
 364 604 364 604 409 559 c 132
 454 514 454 514 454 450 c 260
 454 386 454 386 409 342 c 132
 364 298 364 298 300 298 c 260
 236 298 236 298 191 342 c 132
 146 386 146 386 146 450 c 260
582.400390625 1261.19921875 m 5
 550.400390625 1232.40039062 550.400390625 1232.40039062 516.80078125 1184.40039062 c 132
 483.19921875 1136.40039062 483.19921875 1136.40039062 453.599609375 1082.80078125 c 132
 424 1029.19921875 424 1029.19921875 399.19921875 976.400390625 c 132
 374.400390625 923.599609375 374.400390625 923.599609375 361.599609375 885.19921875 c 5
 235.19921875 885.19921875 l 5
 241.599609375 934.80078125 241.599609375 934.80078125 235.19921875 984.400390625 c 132
 228.80078125 1034 228.80078125 1034 211.19921875 1076.40039062 c 132
 193.599609375 1118.80078125 193.599609375 1118.80078125 166.400390625 1152.40039062 c 132
 139.19921875 1186 139.19921875 1186 105.599609375 1205.19921875 c 5
 243.19921875 1205.19921875 l 5
 276.80078125 1195.59960938 276.80078125 1195.59960938 300.80078125 1158.80078125 c 132
 324.80078125 1122 324.80078125 1122 339.19921875 1074 c 5
 363.19921875 1109.19921875 363.19921875 1109.19921875 392 1143.59960938 c 132
 420.80078125 1178 420.80078125 1178 452 1204.40039062 c 132
 483.19921875 1230.80078125 483.19921875 1230.80078125 516 1246 c 132
 548.80078125 1261.19921875 548.80078125 1261.19921875 582.400390625 1261.19921875 c 5
256 1387.59960938 m 4
 256 1422.80078125 256 1422.80078125 280 1446.80078125 c 132
 304 1470.80078125 304 1470.80078125 337.599609375 1470.80078125 c 4
 372.80078125 1470.80078125 372.80078125 1470.80078125 396.80078125 1446.80078125 c 132
 420.80078125 1422.80078125 420.80078125 1422.80078125 420.80078125 1387.59960938 c 4
 420.80078125 1354 420.80078125 1354 396.80078125 1330 c 132
 372.80078125 1306 372.80078125 1306 337.599609375 1306 c 4
 304 1306 304 1306 280 1330 c 132
 256 1354 256 1354 256 1387.59960938 c 4
EndSplineSet
Ligature2: "ccmp-1" period O I
Ligature2: "ccmp-1" period O i
Ligature2: "ccmp-1" period o I
Ligature2: "ccmp-1" period o i
Ligature2: "ccmp-0 subtable" period o i
Ligature2: "ccmp-0 subtable" period o I
Ligature2: "ccmp-0 subtable" period O i
Ligature2: "ccmp-0 subtable" period O I
Ligature2: "ccmp-1 subtable" period o i
Ligature2: "ccmp-1 subtable" period o I
Ligature2: "ccmp-1 subtable" period O i
Ligature2: "ccmp-1 subtable" period O I
EndChar

StartChar: h.yy
Encoding: 266 -1 60
Width: 1200
GlyphClass: 3
Flags: HW
LayerCount: 2
Fore
SplineSet
676 1350 m 260
 676 1398 676 1398 694 1439 c 132
 712 1480 712 1480 743 1511 c 132
 774 1542 774 1542 815 1560 c 132
 856 1578 856 1578 904 1578 c 260
 952 1578 952 1578 993 1560 c 132
 1034 1542 1034 1542 1065 1511 c 132
 1096 1480 1096 1480 1114 1439 c 132
 1132 1398 1132 1398 1132 1350 c 260
 1132 1302 1132 1302 1114 1261 c 132
 1096 1220 1096 1220 1065 1189 c 132
 1034 1158 1034 1158 993 1140 c 132
 952 1122 952 1122 904 1122 c 260
 856 1122 856 1122 815 1140 c 132
 774 1158 774 1158 743 1189 c 132
 712 1220 712 1220 694 1261 c 132
 676 1302 676 1302 676 1350 c 260
754 1350 m 260
 754 1286 754 1286 797 1243 c 132
 840 1200 840 1200 904 1200 c 260
 968 1200 968 1200 1012 1243 c 132
 1056 1286 1056 1286 1056 1350 c 260
 1056 1414 1056 1414 1012 1458 c 132
 968 1502 968 1502 904 1502 c 260
 840 1502 840 1502 797 1458 c 132
 754 1414 754 1414 754 1350 c 260
76 1150 m 260
 76 1198 76 1198 94 1239 c 132
 112 1280 112 1280 143 1311 c 132
 174 1342 174 1342 215 1360 c 132
 256 1378 256 1378 304 1378 c 260
 352 1378 352 1378 393 1360 c 132
 434 1342 434 1342 465 1311 c 132
 496 1280 496 1280 514 1239 c 132
 532 1198 532 1198 532 1150 c 260
 532 1102 532 1102 514 1061 c 132
 496 1020 496 1020 465 989 c 132
 434 958 434 958 393 940 c 132
 352 922 352 922 304 922 c 260
 256 922 256 922 215 940 c 132
 174 958 174 958 143 989 c 132
 112 1020 112 1020 94 1061 c 132
 76 1102 76 1102 76 1150 c 260
154 1150 m 260
 154 1086 154 1086 197 1043 c 132
 240 1000 240 1000 304 1000 c 260
 368 1000 368 1000 412 1043 c 132
 456 1086 456 1086 456 1150 c 260
 456 1214 456 1214 412 1258 c 132
 368 1302 368 1302 304 1302 c 260
 240 1302 240 1302 197 1258 c 132
 154 1214 154 1214 154 1150 c 260
1048 -84 m 5
 1032 -82 1032 -82 995 -65 c 132
 958 -48 958 -48 920 -15 c 132
 882 18 882 18 854 67 c 132
 826 116 826 116 828 186 c 6
 828 730 l 5
 756 658 756 658 696 601 c 132
 636 544 636 544 581 506 c 132
 526 468 526 468 471 448 c 132
 416 428 416 428 352 428 c 4
 256 428 256 428 213 485 c 132
 170 542 170 542 170 618 c 4
 170 628 170 628 175 653 c 132
 180 678 180 678 195 705 c 132
 210 732 210 732 237 757 c 132
 264 782 264 782 308 792 c 4
 326 796 326 796 343 794 c 132
 360 792 360 792 373 787 c 132
 386 782 386 782 393 777 c 132
 400 772 400 772 400 770 c 5
 340 792 340 792 307 760 c 132
 274 728 274 728 274 674 c 4
 274 662 274 662 280 647 c 132
 286 632 286 632 298 619 c 132
 310 606 310 606 329 596 c 132
 348 586 348 586 376 586 c 4
 426 586 426 586 484 603 c 132
 542 620 542 620 601 657 c 132
 660 694 660 694 718 754 c 132
 776 814 776 814 828 900 c 5
 1028 900 l 5
 1028 186 l 6
 1028 154 1028 154 1028 116 c 132
 1028 78 1028 78 1029 42 c 132
 1030 6 1030 6 1034 -27 c 132
 1038 -60 1038 -60 1048 -84 c 5
EndSplineSet
Ligature2: "ccmp-1 subtable" period Y quotesingle Y
Ligature2: "ccmp-1 subtable" period Y quotesingle y
Ligature2: "ccmp-1 subtable" period y quotesingle Y
Ligature2: "ccmp-1 subtable" period y quotesingle y
Ligature2: "ccmp-0 subtable" period Y quotesingle Y
Ligature2: "ccmp-0 subtable" period Y quotesingle y
Ligature2: "ccmp-0 subtable" period y quotesingle Y
Ligature2: "ccmp-0 subtable" period y quotesingle y
Ligature2: "ccmp-1" period y quotesingle y
Ligature2: "ccmp-1" period y quotesingle Y
Ligature2: "ccmp-1" period Y quotesingle y
Ligature2: "ccmp-1" period Y quotesingle Y
EndChar

StartChar: h.uy
Encoding: 267 -1 61
Width: 1200
GlyphClass: 3
Flags: HW
LayerCount: 2
Fore
SplineSet
676 1350 m 260
 676 1398 676 1398 694 1439 c 132
 712 1480 712 1480 743 1511 c 132
 774 1542 774 1542 815 1560 c 132
 856 1578 856 1578 904 1578 c 260
 952 1578 952 1578 993 1560 c 132
 1034 1542 1034 1542 1065 1511 c 132
 1096 1480 1096 1480 1114 1439 c 132
 1132 1398 1132 1398 1132 1350 c 260
 1132 1302 1132 1302 1114 1261 c 132
 1096 1220 1096 1220 1065 1189 c 132
 1034 1158 1034 1158 993 1140 c 132
 952 1122 952 1122 904 1122 c 260
 856 1122 856 1122 815 1140 c 132
 774 1158 774 1158 743 1189 c 132
 712 1220 712 1220 694 1261 c 132
 676 1302 676 1302 676 1350 c 260
754 1350 m 260
 754 1286 754 1286 797 1243 c 132
 840 1200 840 1200 904 1200 c 260
 968 1200 968 1200 1012 1243 c 132
 1056 1286 1056 1286 1056 1350 c 260
 1056 1414 1056 1414 1012 1458 c 132
 968 1502 968 1502 904 1502 c 260
 840 1502 840 1502 797 1458 c 132
 754 1414 754 1414 754 1350 c 260
1048 -84 m 5
 1032 -82 1032 -82 995 -65 c 132
 958 -48 958 -48 920 -15 c 132
 882 18 882 18 854 67 c 132
 826 116 826 116 828 186 c 6
 828 730 l 5
 756 658 756 658 696 601 c 132
 636 544 636 544 581 506 c 132
 526 468 526 468 471 448 c 132
 416 428 416 428 352 428 c 4
 256 428 256 428 213 485 c 132
 170 542 170 542 170 618 c 4
 170 628 170 628 175 653 c 132
 180 678 180 678 195 705 c 132
 210 732 210 732 237 757 c 132
 264 782 264 782 308 792 c 4
 326 796 326 796 343 794 c 132
 360 792 360 792 373 787 c 132
 386 782 386 782 393 777 c 132
 400 772 400 772 400 770 c 5
 340 792 340 792 307 760 c 132
 274 728 274 728 274 674 c 4
 274 662 274 662 280 647 c 132
 286 632 286 632 298 619 c 132
 310 606 310 606 329 596 c 132
 348 586 348 586 376 586 c 4
 426 586 426 586 484 603 c 132
 542 620 542 620 601 657 c 132
 660 694 660 694 718 754 c 132
 776 814 776 814 828 900 c 5
 1028 900 l 5
 1028 186 l 6
 1028 154 1028 154 1028 116 c 132
 1028 78 1028 78 1029 42 c 132
 1030 6 1030 6 1034 -27 c 132
 1038 -60 1038 -60 1048 -84 c 5
74 1110 m 4
 74 1170 74 1170 104 1218 c 132
 134 1266 134 1266 192 1270 c 4
 224 1272 224 1272 245 1253 c 132
 266 1234 266 1234 274 1207 c 132
 282 1180 282 1180 273 1154 c 132
 264 1128 264 1128 234 1116 c 5
 240 1104 240 1104 261 1099 c 132
 282 1094 282 1094 302 1096 c 4
 342 1098 342 1098 386 1108 c 132
 430 1118 430 1118 476 1140 c 132
 522 1162 522 1162 568 1198 c 132
 614 1234 614 1234 660 1290 c 5
 652 1206 652 1206 619 1141 c 132
 586 1076 586 1076 536 1032 c 132
 486 988 486 988 426 964 c 132
 366 940 366 940 304 936 c 4
 256 932 256 932 214 946 c 132
 172 960 172 960 141 984 c 132
 110 1008 110 1008 92 1041 c 132
 74 1074 74 1074 74 1110 c 4
EndSplineSet
Ligature2: "ccmp-1 subtable" period U quotesingle y
Ligature2: "ccmp-1 subtable" period U quotesingle Y
Ligature2: "ccmp-1 subtable" period u quotesingle y
Ligature2: "ccmp-1 subtable" period u quotesingle Y
Ligature2: "ccmp-0 subtable" period U quotesingle y
Ligature2: "ccmp-0 subtable" period U quotesingle Y
Ligature2: "ccmp-0 subtable" period u quotesingle y
Ligature2: "ccmp-0 subtable" period u quotesingle Y
Ligature2: "ccmp-1" period u quotesingle Y
Ligature2: "ccmp-1" period u quotesingle y
Ligature2: "ccmp-1" period U quotesingle Y
Ligature2: "ccmp-1" period U quotesingle y
EndChar

StartChar: h.ey
Encoding: 268 -1 62
Width: 1200
GlyphClass: 3
Flags: HW
LayerCount: 2
Fore
SplineSet
492 1048 m 5
 372 1050 372 1050 290 1049 c 132
 208 1048 208 1048 155 1046 c 132
 102 1044 102 1044 73 1041 c 132
 44 1038 44 1038 30 1034 c 132
 16 1030 16 1030 12 1027 c 132
 8 1024 8 1024 4 1022 c 6
 86 1224 l 5
 534 1224 l 5
 492 1048 l 5
676 1350 m 260
 676 1398 676 1398 694 1439 c 132
 712 1480 712 1480 743 1511 c 132
 774 1542 774 1542 815 1560 c 132
 856 1578 856 1578 904 1578 c 260
 952 1578 952 1578 993 1560 c 132
 1034 1542 1034 1542 1065 1511 c 132
 1096 1480 1096 1480 1114 1439 c 132
 1132 1398 1132 1398 1132 1350 c 260
 1132 1302 1132 1302 1114 1261 c 132
 1096 1220 1096 1220 1065 1189 c 132
 1034 1158 1034 1158 993 1140 c 132
 952 1122 952 1122 904 1122 c 260
 856 1122 856 1122 815 1140 c 132
 774 1158 774 1158 743 1189 c 132
 712 1220 712 1220 694 1261 c 132
 676 1302 676 1302 676 1350 c 260
754 1350 m 260
 754 1286 754 1286 797 1243 c 132
 840 1200 840 1200 904 1200 c 260
 968 1200 968 1200 1012 1243 c 132
 1056 1286 1056 1286 1056 1350 c 260
 1056 1414 1056 1414 1012 1458 c 132
 968 1502 968 1502 904 1502 c 260
 840 1502 840 1502 797 1458 c 132
 754 1414 754 1414 754 1350 c 260
1048 -84 m 5
 1032 -82 1032 -82 995 -65 c 132
 958 -48 958 -48 920 -15 c 132
 882 18 882 18 854 67 c 132
 826 116 826 116 828 186 c 6
 828 730 l 5
 756 658 756 658 696 601 c 132
 636 544 636 544 581 506 c 132
 526 468 526 468 471 448 c 132
 416 428 416 428 352 428 c 4
 256 428 256 428 213 485 c 132
 170 542 170 542 170 618 c 4
 170 628 170 628 175 653 c 132
 180 678 180 678 195 705 c 132
 210 732 210 732 237 757 c 132
 264 782 264 782 308 792 c 4
 326 796 326 796 343 794 c 132
 360 792 360 792 373 787 c 132
 386 782 386 782 393 777 c 132
 400 772 400 772 400 770 c 5
 340 792 340 792 307 760 c 132
 274 728 274 728 274 674 c 4
 274 662 274 662 280 647 c 132
 286 632 286 632 298 619 c 132
 310 606 310 606 329 596 c 132
 348 586 348 586 376 586 c 4
 426 586 426 586 484 603 c 132
 542 620 542 620 601 657 c 132
 660 694 660 694 718 754 c 132
 776 814 776 814 828 900 c 5
 1028 900 l 5
 1028 186 l 6
 1028 154 1028 154 1028 116 c 132
 1028 78 1028 78 1029 42 c 132
 1030 6 1030 6 1034 -27 c 132
 1038 -60 1038 -60 1048 -84 c 5
EndSplineSet
Ligature2: "ccmp-1 subtable" period E quotesingle Y
Ligature2: "ccmp-1 subtable" period E quotesingle y
Ligature2: "ccmp-1 subtable" period e quotesingle y
Ligature2: "ccmp-1 subtable" period e quotesingle Y
Ligature2: "ccmp-0 subtable" period E quotesingle Y
Ligature2: "ccmp-0 subtable" period E quotesingle y
Ligature2: "ccmp-0 subtable" period e quotesingle y
Ligature2: "ccmp-0 subtable" period e quotesingle Y
Ligature2: "ccmp-1" period e quotesingle Y
Ligature2: "ccmp-1" period e quotesingle y
Ligature2: "ccmp-1" period E quotesingle y
Ligature2: "ccmp-1" period E quotesingle Y
EndChar

StartChar: h.iy
Encoding: 269 -1 63
Width: 1200
GlyphClass: 3
Flags: HW
LayerCount: 2
Fore
SplineSet
162 1130 m 4
 162 1188 162 1188 203 1229 c 132
 244 1270 244 1270 300 1270 c 4
 358 1270 358 1270 399 1229 c 132
 440 1188 440 1188 440 1130 c 4
 440 1074 440 1074 399 1033 c 132
 358 992 358 992 300 992 c 4
 244 992 244 992 203 1033 c 132
 162 1074 162 1074 162 1130 c 4
676 1350 m 260
 676 1398 676 1398 694 1439 c 132
 712 1480 712 1480 743 1511 c 132
 774 1542 774 1542 815 1560 c 132
 856 1578 856 1578 904 1578 c 260
 952 1578 952 1578 993 1560 c 132
 1034 1542 1034 1542 1065 1511 c 132
 1096 1480 1096 1480 1114 1439 c 132
 1132 1398 1132 1398 1132 1350 c 260
 1132 1302 1132 1302 1114 1261 c 132
 1096 1220 1096 1220 1065 1189 c 132
 1034 1158 1034 1158 993 1140 c 132
 952 1122 952 1122 904 1122 c 260
 856 1122 856 1122 815 1140 c 132
 774 1158 774 1158 743 1189 c 132
 712 1220 712 1220 694 1261 c 132
 676 1302 676 1302 676 1350 c 260
754 1350 m 260
 754 1286 754 1286 797 1243 c 132
 840 1200 840 1200 904 1200 c 260
 968 1200 968 1200 1012 1243 c 132
 1056 1286 1056 1286 1056 1350 c 260
 1056 1414 1056 1414 1012 1458 c 132
 968 1502 968 1502 904 1502 c 260
 840 1502 840 1502 797 1458 c 132
 754 1414 754 1414 754 1350 c 260
1048 -84 m 5
 1032 -82 1032 -82 995 -65 c 132
 958 -48 958 -48 920 -15 c 132
 882 18 882 18 854 67 c 132
 826 116 826 116 828 186 c 6
 828 730 l 5
 756 658 756 658 696 601 c 132
 636 544 636 544 581 506 c 132
 526 468 526 468 471 448 c 132
 416 428 416 428 352 428 c 4
 256 428 256 428 213 485 c 132
 170 542 170 542 170 618 c 4
 170 628 170 628 175 653 c 132
 180 678 180 678 195 705 c 132
 210 732 210 732 237 757 c 132
 264 782 264 782 308 792 c 4
 326 796 326 796 343 794 c 132
 360 792 360 792 373 787 c 132
 386 782 386 782 393 777 c 132
 400 772 400 772 400 770 c 5
 340 792 340 792 307 760 c 132
 274 728 274 728 274 674 c 4
 274 662 274 662 280 647 c 132
 286 632 286 632 298 619 c 132
 310 606 310 606 329 596 c 132
 348 586 348 586 376 586 c 4
 426 586 426 586 484 603 c 132
 542 620 542 620 601 657 c 132
 660 694 660 694 718 754 c 132
 776 814 776 814 828 900 c 5
 1028 900 l 5
 1028 186 l 6
 1028 154 1028 154 1028 116 c 132
 1028 78 1028 78 1029 42 c 132
 1030 6 1030 6 1034 -27 c 132
 1038 -60 1038 -60 1048 -84 c 5
EndSplineSet
Ligature2: "ccmp-1 subtable" period i quotesingle y
Ligature2: "ccmp-1 subtable" period i quotesingle Y
Ligature2: "ccmp-1 subtable" period I quotesingle y
Ligature2: "ccmp-1 subtable" period I quotesingle Y
Ligature2: "ccmp-0 subtable" period i quotesingle y
Ligature2: "ccmp-0 subtable" period i quotesingle Y
Ligature2: "ccmp-0 subtable" period I quotesingle y
Ligature2: "ccmp-0 subtable" period I quotesingle Y
Ligature2: "ccmp-1" period I quotesingle Y
Ligature2: "ccmp-1" period I quotesingle y
Ligature2: "ccmp-1" period i quotesingle Y
Ligature2: "ccmp-1" period i quotesingle y
EndChar

StartChar: h.oy
Encoding: 270 -1 64
Width: 1200
GlyphClass: 3
Flags: HW
LayerCount: 2
Fore
SplineSet
676 1350 m 260
 676 1398 676 1398 694 1439 c 132
 712 1480 712 1480 743 1511 c 132
 774 1542 774 1542 815 1560 c 132
 856 1578 856 1578 904 1578 c 260
 952 1578 952 1578 993 1560 c 132
 1034 1542 1034 1542 1065 1511 c 132
 1096 1480 1096 1480 1114 1439 c 132
 1132 1398 1132 1398 1132 1350 c 260
 1132 1302 1132 1302 1114 1261 c 132
 1096 1220 1096 1220 1065 1189 c 132
 1034 1158 1034 1158 993 1140 c 132
 952 1122 952 1122 904 1122 c 260
 856 1122 856 1122 815 1140 c 132
 774 1158 774 1158 743 1189 c 132
 712 1220 712 1220 694 1261 c 132
 676 1302 676 1302 676 1350 c 260
754 1350 m 260
 754 1286 754 1286 797 1243 c 132
 840 1200 840 1200 904 1200 c 260
 968 1200 968 1200 1012 1243 c 132
 1056 1286 1056 1286 1056 1350 c 260
 1056 1414 1056 1414 1012 1458 c 132
 968 1502 968 1502 904 1502 c 260
 840 1502 840 1502 797 1458 c 132
 754 1414 754 1414 754 1350 c 260
516 1322 m 5
 478 1272 478 1272 440 1211 c 132
 402 1150 402 1150 367 1086 c 132
 332 1022 332 1022 304 961 c 132
 276 900 276 900 260 852 c 5
 102 852 l 5
 118 978 118 978 81 1080 c 132
 44 1182 44 1182 -40 1232 c 5
 132 1232 l 5
 174 1220 174 1220 194 1184 c 132
 214 1148 214 1148 232 1088 c 5
 262 1132 262 1132 288 1173 c 132
 314 1214 314 1214 345 1245 c 132
 376 1276 376 1276 416 1296 c 132
 456 1316 456 1316 516 1322 c 5
1048 -84 m 5
 1032 -82 1032 -82 995 -65 c 132
 958 -48 958 -48 920 -15 c 132
 882 18 882 18 854 67 c 132
 826 116 826 116 828 186 c 6
 828 730 l 5
 756 658 756 658 696 601 c 132
 636 544 636 544 581 506 c 132
 526 468 526 468 471 448 c 132
 416 428 416 428 352 428 c 4
 256 428 256 428 213 485 c 132
 170 542 170 542 170 618 c 4
 170 628 170 628 175 653 c 132
 180 678 180 678 195 705 c 132
 210 732 210 732 237 757 c 132
 264 782 264 782 308 792 c 4
 326 796 326 796 343 794 c 132
 360 792 360 792 373 787 c 132
 386 782 386 782 393 777 c 132
 400 772 400 772 400 770 c 5
 340 792 340 792 307 760 c 132
 274 728 274 728 274 674 c 4
 274 662 274 662 280 647 c 132
 286 632 286 632 298 619 c 132
 310 606 310 606 329 596 c 132
 348 586 348 586 376 586 c 4
 426 586 426 586 484 603 c 132
 542 620 542 620 601 657 c 132
 660 694 660 694 718 754 c 132
 776 814 776 814 828 900 c 5
 1028 900 l 5
 1028 186 l 6
 1028 154 1028 154 1028 116 c 132
 1028 78 1028 78 1029 42 c 132
 1030 6 1030 6 1034 -27 c 132
 1038 -60 1038 -60 1048 -84 c 5
EndSplineSet
Ligature2: "ccmp-1 subtable" period O quotesingle Y
Ligature2: "ccmp-1 subtable" period O quotesingle y
Ligature2: "ccmp-1 subtable" period o quotesingle Y
Ligature2: "ccmp-1 subtable" period o quotesingle y
Ligature2: "ccmp-0 subtable" period O quotesingle Y
Ligature2: "ccmp-0 subtable" period O quotesingle y
Ligature2: "ccmp-0 subtable" period o quotesingle Y
Ligature2: "ccmp-0 subtable" period o quotesingle y
Ligature2: "ccmp-1" period o quotesingle y
Ligature2: "ccmp-1" period o quotesingle Y
Ligature2: "ccmp-1" period O quotesingle y
Ligature2: "ccmp-1" period O quotesingle Y
EndChar

StartChar: h.ay
Encoding: 271 -1 65
Width: 1200
GlyphClass: 3
Flags: HW
LayerCount: 2
Fore
SplineSet
380 1160 m 6
 380 1092 380 1092 380 1046 c 132
 380 1000 380 1000 379 969 c 132
 378 938 378 938 378 920 c 132
 378 902 378 902 378 890 c 5
 352 898 352 898 318 916 c 132
 284 934 284 934 253 966 c 132
 222 998 222 998 201 1045 c 132
 180 1092 180 1092 180 1160 c 6
 180 1402 l 5
 380 1402 l 5
 380 1160 l 6
676 1350 m 260
 676 1398 676 1398 694 1439 c 132
 712 1480 712 1480 743 1511 c 132
 774 1542 774 1542 815 1560 c 132
 856 1578 856 1578 904 1578 c 260
 952 1578 952 1578 993 1560 c 132
 1034 1542 1034 1542 1065 1511 c 132
 1096 1480 1096 1480 1114 1439 c 132
 1132 1398 1132 1398 1132 1350 c 260
 1132 1302 1132 1302 1114 1261 c 132
 1096 1220 1096 1220 1065 1189 c 132
 1034 1158 1034 1158 993 1140 c 132
 952 1122 952 1122 904 1122 c 260
 856 1122 856 1122 815 1140 c 132
 774 1158 774 1158 743 1189 c 132
 712 1220 712 1220 694 1261 c 132
 676 1302 676 1302 676 1350 c 260
754 1350 m 260
 754 1286 754 1286 797 1243 c 132
 840 1200 840 1200 904 1200 c 260
 968 1200 968 1200 1012 1243 c 132
 1056 1286 1056 1286 1056 1350 c 260
 1056 1414 1056 1414 1012 1458 c 132
 968 1502 968 1502 904 1502 c 260
 840 1502 840 1502 797 1458 c 132
 754 1414 754 1414 754 1350 c 260
1048 -84 m 5
 1032 -82 1032 -82 995 -65 c 132
 958 -48 958 -48 920 -15 c 132
 882 18 882 18 854 67 c 132
 826 116 826 116 828 186 c 6
 828 730 l 5
 756 658 756 658 696 601 c 132
 636 544 636 544 581 506 c 132
 526 468 526 468 471 448 c 132
 416 428 416 428 352 428 c 4
 256 428 256 428 213 485 c 132
 170 542 170 542 170 618 c 4
 170 628 170 628 175 653 c 132
 180 678 180 678 195 705 c 132
 210 732 210 732 237 757 c 132
 264 782 264 782 308 792 c 4
 326 796 326 796 343 794 c 132
 360 792 360 792 373 787 c 132
 386 782 386 782 393 777 c 132
 400 772 400 772 400 770 c 5
 340 792 340 792 307 760 c 132
 274 728 274 728 274 674 c 4
 274 662 274 662 280 647 c 132
 286 632 286 632 298 619 c 132
 310 606 310 606 329 596 c 132
 348 586 348 586 376 586 c 4
 426 586 426 586 484 603 c 132
 542 620 542 620 601 657 c 132
 660 694 660 694 718 754 c 132
 776 814 776 814 828 900 c 5
 1028 900 l 5
 1028 186 l 6
 1028 154 1028 154 1028 116 c 132
 1028 78 1028 78 1029 42 c 132
 1030 6 1030 6 1034 -27 c 132
 1038 -60 1038 -60 1048 -84 c 5
EndSplineSet
LCarets2: 3 0 0 0
Ligature2: "ccmp-1 subtable" period A quotesingle Y
Ligature2: "ccmp-1 subtable" period A quotesingle y
Ligature2: "ccmp-1 subtable" period a quotesingle y
Ligature2: "ccmp-1 subtable" period a quotesingle Y
Ligature2: "ccmp-0 subtable" period A quotesingle Y
Ligature2: "ccmp-0 subtable" period A quotesingle y
Ligature2: "ccmp-0 subtable" period a quotesingle y
Ligature2: "ccmp-0 subtable" period a quotesingle Y
Ligature2: "ccmp-1" period a quotesingle Y
Ligature2: "ccmp-1" period a quotesingle y
Ligature2: "ccmp-1" period A quotesingle y
Ligature2: "ccmp-1" period A quotesingle Y
EndChar

StartChar: h.uu
Encoding: 272 -1 66
Width: 1200
GlyphClass: 3
Flags: HW
LayerCount: 2
Fore
SplineSet
1048 -84 m 5
 1032 -82 1032 -82 995 -65 c 132
 958 -48 958 -48 920 -15 c 132
 882 18 882 18 854 67 c 132
 826 116 826 116 828 186 c 6
 828 730 l 5
 756 658 756 658 696 601 c 132
 636 544 636 544 581 506 c 132
 526 468 526 468 471 448 c 132
 416 428 416 428 352 428 c 4
 256 428 256 428 213 485 c 132
 170 542 170 542 170 618 c 4
 170 628 170 628 175 653 c 132
 180 678 180 678 195 705 c 132
 210 732 210 732 237 757 c 132
 264 782 264 782 308 792 c 4
 326 796 326 796 343 794 c 132
 360 792 360 792 373 787 c 132
 386 782 386 782 393 777 c 132
 400 772 400 772 400 770 c 5
 340 792 340 792 307 760 c 132
 274 728 274 728 274 674 c 4
 274 662 274 662 280 647 c 132
 286 632 286 632 298 619 c 132
 310 606 310 606 329 596 c 132
 348 586 348 586 376 586 c 4
 426 586 426 586 484 603 c 132
 542 620 542 620 601 657 c 132
 660 694 660 694 718 754 c 132
 776 814 776 814 828 900 c 5
 1028 900 l 5
 1028 186 l 6
 1028 154 1028 154 1028 116 c 132
 1028 78 1028 78 1029 42 c 132
 1030 6 1030 6 1034 -27 c 132
 1038 -60 1038 -60 1048 -84 c 5
634 1310 m 4
 634 1370 634 1370 664 1418 c 132
 694 1466 694 1466 752 1470 c 4
 784 1472 784 1472 805 1453 c 132
 826 1434 826 1434 834 1407 c 132
 842 1380 842 1380 833 1354 c 132
 824 1328 824 1328 794 1316 c 5
 800 1304 800 1304 821 1299 c 132
 842 1294 842 1294 862 1296 c 4
 902 1298 902 1298 946 1308 c 132
 990 1318 990 1318 1036 1340 c 132
 1082 1362 1082 1362 1128 1398 c 132
 1174 1434 1174 1434 1220 1490 c 5
 1212 1406 1212 1406 1179 1341 c 132
 1146 1276 1146 1276 1096 1232 c 132
 1046 1188 1046 1188 986 1164 c 132
 926 1140 926 1140 864 1136 c 4
 816 1132 816 1132 774 1146 c 132
 732 1160 732 1160 701 1184 c 132
 670 1208 670 1208 652 1241 c 132
 634 1274 634 1274 634 1310 c 4
174 1110 m 4
 174 1170 174 1170 204 1218 c 132
 234 1266 234 1266 292 1270 c 4
 324 1272 324 1272 345 1253 c 132
 366 1234 366 1234 374 1207 c 132
 382 1180 382 1180 373 1154 c 132
 364 1128 364 1128 334 1116 c 5
 340 1104 340 1104 361 1099 c 132
 382 1094 382 1094 402 1096 c 4
 442 1098 442 1098 486 1108 c 132
 530 1118 530 1118 576 1140 c 132
 622 1162 622 1162 668 1198 c 132
 714 1234 714 1234 760 1290 c 5
 752 1206 752 1206 719 1141 c 132
 686 1076 686 1076 636 1032 c 132
 586 988 586 988 526 964 c 132
 466 940 466 940 404 936 c 4
 356 932 356 932 314 946 c 132
 272 960 272 960 241 984 c 132
 210 1008 210 1008 192 1041 c 132
 174 1074 174 1074 174 1110 c 4
EndSplineSet
Ligature2: "ccmp-1 subtable" period U quotesingle u
Ligature2: "ccmp-1 subtable" period U quotesingle U
Ligature2: "ccmp-1 subtable" period u quotesingle U
Ligature2: "ccmp-1 subtable" period u quotesingle u
Ligature2: "ccmp-0 subtable" period U quotesingle u
Ligature2: "ccmp-0 subtable" period U quotesingle U
Ligature2: "ccmp-0 subtable" period u quotesingle U
Ligature2: "ccmp-0 subtable" period u quotesingle u
Ligature2: "ccmp-1" period u quotesingle u
Ligature2: "ccmp-1" period u quotesingle U
Ligature2: "ccmp-1" period U quotesingle U
Ligature2: "ccmp-1" period U quotesingle u
EndChar

StartChar: h.eu
Encoding: 273 -1 67
Width: 1200
GlyphClass: 3
Flags: HW
LayerCount: 2
Fore
SplineSet
492 1048 m 5
 372 1050 372 1050 290 1049 c 132
 208 1048 208 1048 155 1046 c 132
 102 1044 102 1044 73 1041 c 132
 44 1038 44 1038 30 1034 c 132
 16 1030 16 1030 12 1027 c 132
 8 1024 8 1024 4 1022 c 6
 86 1224 l 5
 534 1224 l 5
 492 1048 l 5
1048 -84 m 5
 1032 -82 1032 -82 995 -65 c 132
 958 -48 958 -48 920 -15 c 132
 882 18 882 18 854 67 c 132
 826 116 826 116 828 186 c 6
 828 730 l 5
 756 658 756 658 696 601 c 132
 636 544 636 544 581 506 c 132
 526 468 526 468 471 448 c 132
 416 428 416 428 352 428 c 4
 256 428 256 428 213 485 c 132
 170 542 170 542 170 618 c 4
 170 628 170 628 175 653 c 132
 180 678 180 678 195 705 c 132
 210 732 210 732 237 757 c 132
 264 782 264 782 308 792 c 4
 326 796 326 796 343 794 c 132
 360 792 360 792 373 787 c 132
 386 782 386 782 393 777 c 132
 400 772 400 772 400 770 c 5
 340 792 340 792 307 760 c 132
 274 728 274 728 274 674 c 4
 274 662 274 662 280 647 c 132
 286 632 286 632 298 619 c 132
 310 606 310 606 329 596 c 132
 348 586 348 586 376 586 c 4
 426 586 426 586 484 603 c 132
 542 620 542 620 601 657 c 132
 660 694 660 694 718 754 c 132
 776 814 776 814 828 900 c 5
 1028 900 l 5
 1028 186 l 6
 1028 154 1028 154 1028 116 c 132
 1028 78 1028 78 1029 42 c 132
 1030 6 1030 6 1034 -27 c 132
 1038 -60 1038 -60 1048 -84 c 5
674 1290 m 4
 674 1350 674 1350 704 1398 c 132
 734 1446 734 1446 792 1450 c 4
 824 1452 824 1452 845 1433 c 132
 866 1414 866 1414 874 1387 c 132
 882 1360 882 1360 873 1334 c 132
 864 1308 864 1308 834 1296 c 5
 840 1284 840 1284 861 1279 c 132
 882 1274 882 1274 902 1276 c 4
 942 1278 942 1278 986 1288 c 132
 1030 1298 1030 1298 1076 1320 c 132
 1122 1342 1122 1342 1168 1378 c 132
 1214 1414 1214 1414 1260 1470 c 5
 1252 1386 1252 1386 1219 1321 c 132
 1186 1256 1186 1256 1136 1212 c 132
 1086 1168 1086 1168 1026 1144 c 132
 966 1120 966 1120 904 1116 c 4
 856 1112 856 1112 814 1126 c 132
 772 1140 772 1140 741 1164 c 132
 710 1188 710 1188 692 1221 c 132
 674 1254 674 1254 674 1290 c 4
EndSplineSet
Ligature2: "ccmp-1 subtable" period E quotesingle U
Ligature2: "ccmp-1 subtable" period E quotesingle u
Ligature2: "ccmp-1 subtable" period e quotesingle u
Ligature2: "ccmp-1 subtable" period e quotesingle U
Ligature2: "ccmp-0 subtable" period E quotesingle U
Ligature2: "ccmp-0 subtable" period E quotesingle u
Ligature2: "ccmp-0 subtable" period e quotesingle u
Ligature2: "ccmp-0 subtable" period e quotesingle U
Ligature2: "ccmp-1" period e quotesingle U
Ligature2: "ccmp-1" period e quotesingle u
Ligature2: "ccmp-1" period E quotesingle u
Ligature2: "ccmp-1" period E quotesingle U
EndChar

StartChar: h.iu
Encoding: 274 -1 68
Width: 1200
GlyphClass: 3
Flags: HW
LayerCount: 2
Fore
SplineSet
42 1130 m 4
 42 1188 42 1188 83 1229 c 132
 124 1270 124 1270 180 1270 c 4
 238 1270 238 1270 279 1229 c 132
 320 1188 320 1188 320 1130 c 4
 320 1074 320 1074 279 1033 c 132
 238 992 238 992 180 992 c 4
 124 992 124 992 83 1033 c 132
 42 1074 42 1074 42 1130 c 4
1048 -84 m 5
 1032 -82 1032 -82 995 -65 c 132
 958 -48 958 -48 920 -15 c 132
 882 18 882 18 854 67 c 132
 826 116 826 116 828 186 c 6
 828 730 l 5
 756 658 756 658 696 601 c 132
 636 544 636 544 581 506 c 132
 526 468 526 468 471 448 c 132
 416 428 416 428 352 428 c 4
 256 428 256 428 213 485 c 132
 170 542 170 542 170 618 c 4
 170 628 170 628 175 653 c 132
 180 678 180 678 195 705 c 132
 210 732 210 732 237 757 c 132
 264 782 264 782 308 792 c 4
 326 796 326 796 343 794 c 132
 360 792 360 792 373 787 c 132
 386 782 386 782 393 777 c 132
 400 772 400 772 400 770 c 5
 340 792 340 792 307 760 c 132
 274 728 274 728 274 674 c 4
 274 662 274 662 280 647 c 132
 286 632 286 632 298 619 c 132
 310 606 310 606 329 596 c 132
 348 586 348 586 376 586 c 4
 426 586 426 586 484 603 c 132
 542 620 542 620 601 657 c 132
 660 694 660 694 718 754 c 132
 776 814 776 814 828 900 c 5
 1028 900 l 5
 1028 186 l 6
 1028 154 1028 154 1028 116 c 132
 1028 78 1028 78 1029 42 c 132
 1030 6 1030 6 1034 -27 c 132
 1038 -60 1038 -60 1048 -84 c 5
674 1290 m 4
 674 1350 674 1350 704 1398 c 132
 734 1446 734 1446 792 1450 c 4
 824 1452 824 1452 845 1433 c 132
 866 1414 866 1414 874 1387 c 132
 882 1360 882 1360 873 1334 c 132
 864 1308 864 1308 834 1296 c 5
 840 1284 840 1284 861 1279 c 132
 882 1274 882 1274 902 1276 c 4
 942 1278 942 1278 986 1288 c 132
 1030 1298 1030 1298 1076 1320 c 132
 1122 1342 1122 1342 1168 1378 c 132
 1214 1414 1214 1414 1260 1470 c 5
 1252 1386 1252 1386 1219 1321 c 132
 1186 1256 1186 1256 1136 1212 c 132
 1086 1168 1086 1168 1026 1144 c 132
 966 1120 966 1120 904 1116 c 4
 856 1112 856 1112 814 1126 c 132
 772 1140 772 1140 741 1164 c 132
 710 1188 710 1188 692 1221 c 132
 674 1254 674 1254 674 1290 c 4
EndSplineSet
Ligature2: "ccmp-1 subtable" period I quotesingle U
Ligature2: "ccmp-1 subtable" period I quotesingle u
Ligature2: "ccmp-1 subtable" period i quotesingle U
Ligature2: "ccmp-1 subtable" period i quotesingle u
Ligature2: "ccmp-0 subtable" period I quotesingle U
Ligature2: "ccmp-0 subtable" period I quotesingle u
Ligature2: "ccmp-0 subtable" period i quotesingle U
Ligature2: "ccmp-0 subtable" period i quotesingle u
Ligature2: "ccmp-1" period i quotesingle u
Ligature2: "ccmp-1" period i quotesingle U
Ligature2: "ccmp-1" period I quotesingle u
Ligature2: "ccmp-1" period I quotesingle U
EndChar

StartChar: h.ou
Encoding: 275 -1 69
Width: 1200
GlyphClass: 3
Flags: HW
LayerCount: 2
Fore
SplineSet
516 1322 m 5
 478 1272 478 1272 440 1211 c 132
 402 1150 402 1150 367 1086 c 132
 332 1022 332 1022 304 961 c 132
 276 900 276 900 260 852 c 5
 102 852 l 5
 118 978 118 978 81 1080 c 132
 44 1182 44 1182 -40 1232 c 5
 132 1232 l 5
 174 1220 174 1220 194 1184 c 132
 214 1148 214 1148 232 1088 c 5
 262 1132 262 1132 288 1173 c 132
 314 1214 314 1214 345 1245 c 132
 376 1276 376 1276 416 1296 c 132
 456 1316 456 1316 516 1322 c 5
1048 -84 m 5
 1032 -82 1032 -82 995 -65 c 132
 958 -48 958 -48 920 -15 c 132
 882 18 882 18 854 67 c 132
 826 116 826 116 828 186 c 6
 828 730 l 5
 756 658 756 658 696 601 c 132
 636 544 636 544 581 506 c 132
 526 468 526 468 471 448 c 132
 416 428 416 428 352 428 c 4
 256 428 256 428 213 485 c 132
 170 542 170 542 170 618 c 4
 170 628 170 628 175 653 c 132
 180 678 180 678 195 705 c 132
 210 732 210 732 237 757 c 132
 264 782 264 782 308 792 c 4
 326 796 326 796 343 794 c 132
 360 792 360 792 373 787 c 132
 386 782 386 782 393 777 c 132
 400 772 400 772 400 770 c 5
 340 792 340 792 307 760 c 132
 274 728 274 728 274 674 c 4
 274 662 274 662 280 647 c 132
 286 632 286 632 298 619 c 132
 310 606 310 606 329 596 c 132
 348 586 348 586 376 586 c 4
 426 586 426 586 484 603 c 132
 542 620 542 620 601 657 c 132
 660 694 660 694 718 754 c 132
 776 814 776 814 828 900 c 5
 1028 900 l 5
 1028 186 l 6
 1028 154 1028 154 1028 116 c 132
 1028 78 1028 78 1029 42 c 132
 1030 6 1030 6 1034 -27 c 132
 1038 -60 1038 -60 1048 -84 c 5
674 1290 m 4
 674 1350 674 1350 704 1398 c 132
 734 1446 734 1446 792 1450 c 4
 824 1452 824 1452 845 1433 c 132
 866 1414 866 1414 874 1387 c 132
 882 1360 882 1360 873 1334 c 132
 864 1308 864 1308 834 1296 c 5
 840 1284 840 1284 861 1279 c 132
 882 1274 882 1274 902 1276 c 4
 942 1278 942 1278 986 1288 c 132
 1030 1298 1030 1298 1076 1320 c 132
 1122 1342 1122 1342 1168 1378 c 132
 1214 1414 1214 1414 1260 1470 c 5
 1252 1386 1252 1386 1219 1321 c 132
 1186 1256 1186 1256 1136 1212 c 132
 1086 1168 1086 1168 1026 1144 c 132
 966 1120 966 1120 904 1116 c 4
 856 1112 856 1112 814 1126 c 132
 772 1140 772 1140 741 1164 c 132
 710 1188 710 1188 692 1221 c 132
 674 1254 674 1254 674 1290 c 4
EndSplineSet
LCarets2: 3 0 0 0
Ligature2: "ccmp-1 subtable" period O quotesingle U
Ligature2: "ccmp-1 subtable" period O quotesingle u
Ligature2: "ccmp-1 subtable" period o quotesingle u
Ligature2: "ccmp-1 subtable" period o quotesingle U
Ligature2: "ccmp-0 subtable" period O quotesingle U
Ligature2: "ccmp-0 subtable" period O quotesingle u
Ligature2: "ccmp-0 subtable" period o quotesingle u
Ligature2: "ccmp-0 subtable" period o quotesingle U
Ligature2: "ccmp-1" period o quotesingle U
Ligature2: "ccmp-1" period o quotesingle u
Ligature2: "ccmp-1" period O quotesingle u
Ligature2: "ccmp-1" period O quotesingle U
EndChar

StartChar: h.au
Encoding: 276 -1 70
Width: 1200
GlyphClass: 3
Flags: HW
LayerCount: 2
Fore
SplineSet
380 1160 m 6
 380 1092 380 1092 380 1046 c 132
 380 1000 380 1000 379 969 c 132
 378 938 378 938 378 920 c 132
 378 902 378 902 378 890 c 5
 352 898 352 898 318 916 c 132
 284 934 284 934 253 966 c 132
 222 998 222 998 201 1045 c 132
 180 1092 180 1092 180 1160 c 6
 180 1402 l 5
 380 1402 l 5
 380 1160 l 6
1048 -84 m 5
 1032 -82 1032 -82 995 -65 c 132
 958 -48 958 -48 920 -15 c 132
 882 18 882 18 854 67 c 132
 826 116 826 116 828 186 c 6
 828 730 l 5
 756 658 756 658 696 601 c 132
 636 544 636 544 581 506 c 132
 526 468 526 468 471 448 c 132
 416 428 416 428 352 428 c 4
 256 428 256 428 213 485 c 132
 170 542 170 542 170 618 c 4
 170 628 170 628 175 653 c 132
 180 678 180 678 195 705 c 132
 210 732 210 732 237 757 c 132
 264 782 264 782 308 792 c 4
 326 796 326 796 343 794 c 132
 360 792 360 792 373 787 c 132
 386 782 386 782 393 777 c 132
 400 772 400 772 400 770 c 5
 340 792 340 792 307 760 c 132
 274 728 274 728 274 674 c 4
 274 662 274 662 280 647 c 132
 286 632 286 632 298 619 c 132
 310 606 310 606 329 596 c 132
 348 586 348 586 376 586 c 4
 426 586 426 586 484 603 c 132
 542 620 542 620 601 657 c 132
 660 694 660 694 718 754 c 132
 776 814 776 814 828 900 c 5
 1028 900 l 5
 1028 186 l 6
 1028 154 1028 154 1028 116 c 132
 1028 78 1028 78 1029 42 c 132
 1030 6 1030 6 1034 -27 c 132
 1038 -60 1038 -60 1048 -84 c 5
674 1290 m 4
 674 1350 674 1350 704 1398 c 132
 734 1446 734 1446 792 1450 c 4
 824 1452 824 1452 845 1433 c 132
 866 1414 866 1414 874 1387 c 132
 882 1360 882 1360 873 1334 c 132
 864 1308 864 1308 834 1296 c 5
 840 1284 840 1284 861 1279 c 132
 882 1274 882 1274 902 1276 c 4
 942 1278 942 1278 986 1288 c 132
 1030 1298 1030 1298 1076 1320 c 132
 1122 1342 1122 1342 1168 1378 c 132
 1214 1414 1214 1414 1260 1470 c 5
 1252 1386 1252 1386 1219 1321 c 132
 1186 1256 1186 1256 1136 1212 c 132
 1086 1168 1086 1168 1026 1144 c 132
 966 1120 966 1120 904 1116 c 4
 856 1112 856 1112 814 1126 c 132
 772 1140 772 1140 741 1164 c 132
 710 1188 710 1188 692 1221 c 132
 674 1254 674 1254 674 1290 c 4
EndSplineSet
Ligature2: "ccmp-1 subtable" period A quotesingle Y
Ligature2: "ccmp-1 subtable" period A quotesingle y
Ligature2: "ccmp-1 subtable" period a quotesingle Y
Ligature2: "ccmp-1 subtable" period a quotesingle y
Ligature2: "ccmp-0 subtable" period A quotesingle Y
Ligature2: "ccmp-0 subtable" period A quotesingle y
Ligature2: "ccmp-0 subtable" period a quotesingle Y
Ligature2: "ccmp-0 subtable" period a quotesingle y
Ligature2: "ccmp-1" period a quotesingle y
Ligature2: "ccmp-1" period a quotesingle Y
Ligature2: "ccmp-1" period A quotesingle y
Ligature2: "ccmp-1" period A quotesingle Y
EndChar

StartChar: h.ui
Encoding: 277 -1 71
Width: 1200
GlyphClass: 3
Flags: HW
LayerCount: 2
Fore
SplineSet
782 1270 m 4
 782 1328 782 1328 823 1369 c 132
 864 1410 864 1410 920 1410 c 4
 978 1410 978 1410 1019 1369 c 132
 1060 1328 1060 1328 1060 1270 c 4
 1060 1214 1060 1214 1019 1173 c 132
 978 1132 978 1132 920 1132 c 4
 864 1132 864 1132 823 1173 c 132
 782 1214 782 1214 782 1270 c 4
1048 -84 m 5
 1032 -82 1032 -82 995 -65 c 132
 958 -48 958 -48 920 -15 c 132
 882 18 882 18 854 67 c 132
 826 116 826 116 828 186 c 6
 828 730 l 5
 756 658 756 658 696 601 c 132
 636 544 636 544 581 506 c 132
 526 468 526 468 471 448 c 132
 416 428 416 428 352 428 c 4
 256 428 256 428 213 485 c 132
 170 542 170 542 170 618 c 4
 170 628 170 628 175 653 c 132
 180 678 180 678 195 705 c 132
 210 732 210 732 237 757 c 132
 264 782 264 782 308 792 c 4
 326 796 326 796 343 794 c 132
 360 792 360 792 373 787 c 132
 386 782 386 782 393 777 c 132
 400 772 400 772 400 770 c 5
 340 792 340 792 307 760 c 132
 274 728 274 728 274 674 c 4
 274 662 274 662 280 647 c 132
 286 632 286 632 298 619 c 132
 310 606 310 606 329 596 c 132
 348 586 348 586 376 586 c 4
 426 586 426 586 484 603 c 132
 542 620 542 620 601 657 c 132
 660 694 660 694 718 754 c 132
 776 814 776 814 828 900 c 5
 1028 900 l 5
 1028 186 l 6
 1028 154 1028 154 1028 116 c 132
 1028 78 1028 78 1029 42 c 132
 1030 6 1030 6 1034 -27 c 132
 1038 -60 1038 -60 1048 -84 c 5
74 1110 m 4
 74 1170 74 1170 104 1218 c 132
 134 1266 134 1266 192 1270 c 4
 224 1272 224 1272 245 1253 c 132
 266 1234 266 1234 274 1207 c 132
 282 1180 282 1180 273 1154 c 132
 264 1128 264 1128 234 1116 c 5
 240 1104 240 1104 261 1099 c 132
 282 1094 282 1094 302 1096 c 4
 342 1098 342 1098 386 1108 c 132
 430 1118 430 1118 476 1140 c 132
 522 1162 522 1162 568 1198 c 132
 614 1234 614 1234 660 1290 c 5
 652 1206 652 1206 619 1141 c 132
 586 1076 586 1076 536 1032 c 132
 486 988 486 988 426 964 c 132
 366 940 366 940 304 936 c 4
 256 932 256 932 214 946 c 132
 172 960 172 960 141 984 c 132
 110 1008 110 1008 92 1041 c 132
 74 1074 74 1074 74 1110 c 4
EndSplineSet
Ligature2: "ccmp-1 subtable" period U quotesingle I
Ligature2: "ccmp-1 subtable" period U quotesingle i
Ligature2: "ccmp-1 subtable" period u quotesingle I
Ligature2: "ccmp-1 subtable" period u quotesingle i
Ligature2: "ccmp-0 subtable" period U quotesingle I
Ligature2: "ccmp-0 subtable" period U quotesingle i
Ligature2: "ccmp-0 subtable" period u quotesingle I
Ligature2: "ccmp-0 subtable" period u quotesingle i
Ligature2: "ccmp-1" period u quotesingle i
Ligature2: "ccmp-1" period u quotesingle I
Ligature2: "ccmp-1" period U quotesingle i
Ligature2: "ccmp-1" period U quotesingle I
EndChar

StartChar: h.ei
Encoding: 278 -1 72
Width: 1200
GlyphClass: 3
Flags: HW
LayerCount: 2
Fore
SplineSet
492 1048 m 5
 372 1050 372 1050 290 1049 c 132
 208 1048 208 1048 155 1046 c 132
 102 1044 102 1044 73 1041 c 132
 44 1038 44 1038 30 1034 c 132
 16 1030 16 1030 12 1027 c 132
 8 1024 8 1024 4 1022 c 6
 86 1224 l 5
 534 1224 l 5
 492 1048 l 5
782 1270 m 4
 782 1328 782 1328 823 1369 c 132
 864 1410 864 1410 920 1410 c 4
 978 1410 978 1410 1019 1369 c 132
 1060 1328 1060 1328 1060 1270 c 4
 1060 1214 1060 1214 1019 1173 c 132
 978 1132 978 1132 920 1132 c 4
 864 1132 864 1132 823 1173 c 132
 782 1214 782 1214 782 1270 c 4
1048 -84 m 5
 1032 -82 1032 -82 995 -65 c 132
 958 -48 958 -48 920 -15 c 132
 882 18 882 18 854 67 c 132
 826 116 826 116 828 186 c 6
 828 730 l 5
 756 658 756 658 696 601 c 132
 636 544 636 544 581 506 c 132
 526 468 526 468 471 448 c 132
 416 428 416 428 352 428 c 4
 256 428 256 428 213 485 c 132
 170 542 170 542 170 618 c 4
 170 628 170 628 175 653 c 132
 180 678 180 678 195 705 c 132
 210 732 210 732 237 757 c 132
 264 782 264 782 308 792 c 4
 326 796 326 796 343 794 c 132
 360 792 360 792 373 787 c 132
 386 782 386 782 393 777 c 132
 400 772 400 772 400 770 c 5
 340 792 340 792 307 760 c 132
 274 728 274 728 274 674 c 4
 274 662 274 662 280 647 c 132
 286 632 286 632 298 619 c 132
 310 606 310 606 329 596 c 132
 348 586 348 586 376 586 c 4
 426 586 426 586 484 603 c 132
 542 620 542 620 601 657 c 132
 660 694 660 694 718 754 c 132
 776 814 776 814 828 900 c 5
 1028 900 l 5
 1028 186 l 6
 1028 154 1028 154 1028 116 c 132
 1028 78 1028 78 1029 42 c 132
 1030 6 1030 6 1034 -27 c 132
 1038 -60 1038 -60 1048 -84 c 5
EndSplineSet
Ligature2: "ccmp-1 subtable" period E quotesingle I
Ligature2: "ccmp-1 subtable" period E quotesingle i
Ligature2: "ccmp-1 subtable" period e quotesingle I
Ligature2: "ccmp-1 subtable" period e quotesingle i
Ligature2: "ccmp-0 subtable" period E quotesingle I
Ligature2: "ccmp-0 subtable" period E quotesingle i
Ligature2: "ccmp-0 subtable" period e quotesingle I
Ligature2: "ccmp-0 subtable" period e quotesingle i
Ligature2: "ccmp-1" period e quotesingle i
Ligature2: "ccmp-1" period e quotesingle I
Ligature2: "ccmp-1" period E quotesingle i
Ligature2: "ccmp-1" period E quotesingle I
EndChar

StartChar: h.ii
Encoding: 279 -1 73
Width: 1200
GlyphClass: 3
Flags: HW
LayerCount: 2
Fore
SplineSet
162 1130 m 4
 162 1188 162 1188 203 1229 c 132
 244 1270 244 1270 300 1270 c 4
 358 1270 358 1270 399 1229 c 132
 440 1188 440 1188 440 1130 c 4
 440 1074 440 1074 399 1033 c 132
 358 992 358 992 300 992 c 4
 244 992 244 992 203 1033 c 132
 162 1074 162 1074 162 1130 c 4
782 1270 m 4
 782 1328 782 1328 823 1369 c 132
 864 1410 864 1410 920 1410 c 4
 978 1410 978 1410 1019 1369 c 132
 1060 1328 1060 1328 1060 1270 c 4
 1060 1214 1060 1214 1019 1173 c 132
 978 1132 978 1132 920 1132 c 4
 864 1132 864 1132 823 1173 c 132
 782 1214 782 1214 782 1270 c 4
1048 -84 m 5
 1032 -82 1032 -82 995 -65 c 132
 958 -48 958 -48 920 -15 c 132
 882 18 882 18 854 67 c 132
 826 116 826 116 828 186 c 6
 828 730 l 5
 756 658 756 658 696 601 c 132
 636 544 636 544 581 506 c 132
 526 468 526 468 471 448 c 132
 416 428 416 428 352 428 c 4
 256 428 256 428 213 485 c 132
 170 542 170 542 170 618 c 4
 170 628 170 628 175 653 c 132
 180 678 180 678 195 705 c 132
 210 732 210 732 237 757 c 132
 264 782 264 782 308 792 c 4
 326 796 326 796 343 794 c 132
 360 792 360 792 373 787 c 132
 386 782 386 782 393 777 c 132
 400 772 400 772 400 770 c 5
 340 792 340 792 307 760 c 132
 274 728 274 728 274 674 c 4
 274 662 274 662 280 647 c 132
 286 632 286 632 298 619 c 132
 310 606 310 606 329 596 c 132
 348 586 348 586 376 586 c 4
 426 586 426 586 484 603 c 132
 542 620 542 620 601 657 c 132
 660 694 660 694 718 754 c 132
 776 814 776 814 828 900 c 5
 1028 900 l 5
 1028 186 l 6
 1028 154 1028 154 1028 116 c 132
 1028 78 1028 78 1029 42 c 132
 1030 6 1030 6 1034 -27 c 132
 1038 -60 1038 -60 1048 -84 c 5
EndSplineSet
Ligature2: "ccmp-1 subtable" period I quotesingle I
Ligature2: "ccmp-1 subtable" period I quotesingle i
Ligature2: "ccmp-1 subtable" period i quotesingle I
Ligature2: "ccmp-1 subtable" period i quotesingle i
Ligature2: "ccmp-0 subtable" period I quotesingle I
Ligature2: "ccmp-0 subtable" period I quotesingle i
Ligature2: "ccmp-0 subtable" period i quotesingle I
Ligature2: "ccmp-0 subtable" period i quotesingle i
Ligature2: "ccmp-1" period i quotesingle i
Ligature2: "ccmp-1" period i quotesingle I
Ligature2: "ccmp-1" period I quotesingle i
Ligature2: "ccmp-1" period I quotesingle I
EndChar

StartChar: h.oi
Encoding: 280 -1 74
Width: 1200
GlyphClass: 3
Flags: HW
LayerCount: 2
Fore
SplineSet
782 1270 m 4
 782 1328 782 1328 823 1369 c 132
 864 1410 864 1410 920 1410 c 4
 978 1410 978 1410 1019 1369 c 132
 1060 1328 1060 1328 1060 1270 c 4
 1060 1214 1060 1214 1019 1173 c 132
 978 1132 978 1132 920 1132 c 4
 864 1132 864 1132 823 1173 c 132
 782 1214 782 1214 782 1270 c 4
516 1322 m 5
 478 1272 478 1272 440 1211 c 132
 402 1150 402 1150 367 1086 c 132
 332 1022 332 1022 304 961 c 132
 276 900 276 900 260 852 c 5
 102 852 l 5
 118 978 118 978 81 1080 c 132
 44 1182 44 1182 -40 1232 c 5
 132 1232 l 5
 174 1220 174 1220 194 1184 c 132
 214 1148 214 1148 232 1088 c 5
 262 1132 262 1132 288 1173 c 132
 314 1214 314 1214 345 1245 c 132
 376 1276 376 1276 416 1296 c 132
 456 1316 456 1316 516 1322 c 5
1048 -84 m 5
 1032 -82 1032 -82 995 -65 c 132
 958 -48 958 -48 920 -15 c 132
 882 18 882 18 854 67 c 132
 826 116 826 116 828 186 c 6
 828 730 l 5
 756 658 756 658 696 601 c 132
 636 544 636 544 581 506 c 132
 526 468 526 468 471 448 c 132
 416 428 416 428 352 428 c 4
 256 428 256 428 213 485 c 132
 170 542 170 542 170 618 c 4
 170 628 170 628 175 653 c 132
 180 678 180 678 195 705 c 132
 210 732 210 732 237 757 c 132
 264 782 264 782 308 792 c 4
 326 796 326 796 343 794 c 132
 360 792 360 792 373 787 c 132
 386 782 386 782 393 777 c 132
 400 772 400 772 400 770 c 5
 340 792 340 792 307 760 c 132
 274 728 274 728 274 674 c 4
 274 662 274 662 280 647 c 132
 286 632 286 632 298 619 c 132
 310 606 310 606 329 596 c 132
 348 586 348 586 376 586 c 4
 426 586 426 586 484 603 c 132
 542 620 542 620 601 657 c 132
 660 694 660 694 718 754 c 132
 776 814 776 814 828 900 c 5
 1028 900 l 5
 1028 186 l 6
 1028 154 1028 154 1028 116 c 132
 1028 78 1028 78 1029 42 c 132
 1030 6 1030 6 1034 -27 c 132
 1038 -60 1038 -60 1048 -84 c 5
EndSplineSet
Ligature2: "ccmp-1 subtable" period O quotesingle I
Ligature2: "ccmp-1 subtable" period O quotesingle i
Ligature2: "ccmp-1 subtable" period o quotesingle I
Ligature2: "ccmp-1 subtable" period o quotesingle i
Ligature2: "ccmp-0 subtable" period O quotesingle I
Ligature2: "ccmp-0 subtable" period O quotesingle i
Ligature2: "ccmp-0 subtable" period o quotesingle I
Ligature2: "ccmp-0 subtable" period o quotesingle i
Ligature2: "ccmp-1" period o quotesingle i
Ligature2: "ccmp-1" period o quotesingle I
Ligature2: "ccmp-1" period O quotesingle i
Ligature2: "ccmp-1" period O quotesingle I
EndChar

StartChar: h.ai
Encoding: 281 -1 75
Width: 1200
GlyphClass: 3
Flags: HW
LayerCount: 2
Fore
SplineSet
380 1160 m 6
 380 1092 380 1092 380 1046 c 132
 380 1000 380 1000 379 969 c 132
 378 938 378 938 378 920 c 132
 378 902 378 902 378 890 c 5
 352 898 352 898 318 916 c 132
 284 934 284 934 253 966 c 132
 222 998 222 998 201 1045 c 132
 180 1092 180 1092 180 1160 c 6
 180 1402 l 5
 380 1402 l 5
 380 1160 l 6
782 1270 m 4
 782 1328 782 1328 823 1369 c 132
 864 1410 864 1410 920 1410 c 4
 978 1410 978 1410 1019 1369 c 132
 1060 1328 1060 1328 1060 1270 c 4
 1060 1214 1060 1214 1019 1173 c 132
 978 1132 978 1132 920 1132 c 4
 864 1132 864 1132 823 1173 c 132
 782 1214 782 1214 782 1270 c 4
1048 -84 m 5
 1032 -82 1032 -82 995 -65 c 132
 958 -48 958 -48 920 -15 c 132
 882 18 882 18 854 67 c 132
 826 116 826 116 828 186 c 6
 828 730 l 5
 756 658 756 658 696 601 c 132
 636 544 636 544 581 506 c 132
 526 468 526 468 471 448 c 132
 416 428 416 428 352 428 c 4
 256 428 256 428 213 485 c 132
 170 542 170 542 170 618 c 4
 170 628 170 628 175 653 c 132
 180 678 180 678 195 705 c 132
 210 732 210 732 237 757 c 132
 264 782 264 782 308 792 c 4
 326 796 326 796 343 794 c 132
 360 792 360 792 373 787 c 132
 386 782 386 782 393 777 c 132
 400 772 400 772 400 770 c 5
 340 792 340 792 307 760 c 132
 274 728 274 728 274 674 c 4
 274 662 274 662 280 647 c 132
 286 632 286 632 298 619 c 132
 310 606 310 606 329 596 c 132
 348 586 348 586 376 586 c 4
 426 586 426 586 484 603 c 132
 542 620 542 620 601 657 c 132
 660 694 660 694 718 754 c 132
 776 814 776 814 828 900 c 5
 1028 900 l 5
 1028 186 l 6
 1028 154 1028 154 1028 116 c 132
 1028 78 1028 78 1029 42 c 132
 1030 6 1030 6 1034 -27 c 132
 1038 -60 1038 -60 1048 -84 c 5
EndSplineSet
Ligature2: "ccmp-1 subtable" period A quotesingle I
Ligature2: "ccmp-1 subtable" period A quotesingle i
Ligature2: "ccmp-1 subtable" period a quotesingle I
Ligature2: "ccmp-1 subtable" period a quotesingle i
Ligature2: "ccmp-0 subtable" period A quotesingle I
Ligature2: "ccmp-0 subtable" period A quotesingle i
Ligature2: "ccmp-0 subtable" period a quotesingle I
Ligature2: "ccmp-0 subtable" period a quotesingle i
Ligature2: "ccmp-1" period a quotesingle i
Ligature2: "ccmp-1" period a quotesingle I
Ligature2: "ccmp-1" period A quotesingle i
Ligature2: "ccmp-1" period A quotesingle I
EndChar

StartChar: h.uo
Encoding: 282 -1 76
Width: 1200
GlyphClass: 3
Flags: HW
LayerCount: 2
Fore
SplineSet
1048 -84 m 5
 1032 -82 1032 -82 995 -65 c 132
 958 -48 958 -48 920 -15 c 132
 882 18 882 18 854 67 c 132
 826 116 826 116 828 186 c 6
 828 730 l 5
 756 658 756 658 696 601 c 132
 636 544 636 544 581 506 c 132
 526 468 526 468 471 448 c 132
 416 428 416 428 352 428 c 4
 256 428 256 428 213 485 c 132
 170 542 170 542 170 618 c 4
 170 628 170 628 175 653 c 132
 180 678 180 678 195 705 c 132
 210 732 210 732 237 757 c 132
 264 782 264 782 308 792 c 4
 326 796 326 796 343 794 c 132
 360 792 360 792 373 787 c 132
 386 782 386 782 393 777 c 132
 400 772 400 772 400 770 c 5
 340 792 340 792 307 760 c 132
 274 728 274 728 274 674 c 4
 274 662 274 662 280 647 c 132
 286 632 286 632 298 619 c 132
 310 606 310 606 329 596 c 132
 348 586 348 586 376 586 c 4
 426 586 426 586 484 603 c 132
 542 620 542 620 601 657 c 132
 660 694 660 694 718 754 c 132
 776 814 776 814 828 900 c 5
 1028 900 l 5
 1028 186 l 6
 1028 154 1028 154 1028 116 c 132
 1028 78 1028 78 1029 42 c 132
 1030 6 1030 6 1034 -27 c 132
 1038 -60 1038 -60 1048 -84 c 5
74 1110 m 4
 74 1170 74 1170 104 1218 c 132
 134 1266 134 1266 192 1270 c 4
 224 1272 224 1272 245 1253 c 132
 266 1234 266 1234 274 1207 c 132
 282 1180 282 1180 273 1154 c 132
 264 1128 264 1128 234 1116 c 5
 240 1104 240 1104 261 1099 c 132
 282 1094 282 1094 302 1096 c 4
 342 1098 342 1098 386 1108 c 132
 430 1118 430 1118 476 1140 c 132
 522 1162 522 1162 568 1198 c 132
 614 1234 614 1234 660 1290 c 5
 652 1206 652 1206 619 1141 c 132
 586 1076 586 1076 536 1032 c 132
 486 988 486 988 426 964 c 132
 366 940 366 940 304 936 c 4
 256 932 256 932 214 946 c 132
 172 960 172 960 141 984 c 132
 110 1008 110 1008 92 1041 c 132
 74 1074 74 1074 74 1110 c 4
1316 1522 m 5
 1278 1472 1278 1472 1240 1411 c 132
 1202 1350 1202 1350 1167 1286 c 132
 1132 1222 1132 1222 1104 1161 c 132
 1076 1100 1076 1100 1060 1052 c 5
 902 1052 l 5
 918 1178 918 1178 881 1280 c 132
 844 1382 844 1382 760 1432 c 5
 932 1432 l 5
 974 1420 974 1420 994 1384 c 132
 1014 1348 1014 1348 1032 1288 c 5
 1062 1332 1062 1332 1088 1373 c 132
 1114 1414 1114 1414 1145 1445 c 132
 1176 1476 1176 1476 1216 1496 c 132
 1256 1516 1256 1516 1316 1522 c 5
EndSplineSet
Ligature2: "ccmp-1 subtable" period U quotesingle O
Ligature2: "ccmp-1 subtable" period U quotesingle o
Ligature2: "ccmp-1 subtable" period u quotesingle O
Ligature2: "ccmp-1 subtable" period u quotesingle o
Ligature2: "ccmp-0 subtable" period U quotesingle O
Ligature2: "ccmp-0 subtable" period U quotesingle o
Ligature2: "ccmp-0 subtable" period u quotesingle O
Ligature2: "ccmp-0 subtable" period u quotesingle o
Ligature2: "ccmp-1" period u quotesingle o
Ligature2: "ccmp-1" period u quotesingle O
Ligature2: "ccmp-1" period U quotesingle o
Ligature2: "ccmp-1" period U quotesingle O
EndChar

StartChar: h.283
Encoding: 283 -1 77
Width: 1200
GlyphClass: 3
Flags: HW
LayerCount: 2
Fore
SplineSet
492 1048 m 5
 372 1050 372 1050 290 1049 c 132
 208 1048 208 1048 155 1046 c 132
 102 1044 102 1044 73 1041 c 132
 44 1038 44 1038 30 1034 c 132
 16 1030 16 1030 12 1027 c 132
 8 1024 8 1024 4 1022 c 6
 86 1224 l 5
 534 1224 l 5
 492 1048 l 5
1316 1522 m 5
 1278 1472 1278 1472 1240 1411 c 132
 1202 1350 1202 1350 1167 1286 c 132
 1132 1222 1132 1222 1104 1161 c 132
 1076 1100 1076 1100 1060 1052 c 5
 902 1052 l 5
 918 1178 918 1178 881 1280 c 132
 844 1382 844 1382 760 1432 c 5
 932 1432 l 5
 974 1420 974 1420 994 1384 c 132
 1014 1348 1014 1348 1032 1288 c 5
 1062 1332 1062 1332 1088 1373 c 132
 1114 1414 1114 1414 1145 1445 c 132
 1176 1476 1176 1476 1216 1496 c 132
 1256 1516 1256 1516 1316 1522 c 5
1048 -84 m 5
 1032 -82 1032 -82 995 -65 c 132
 958 -48 958 -48 920 -15 c 132
 882 18 882 18 854 67 c 132
 826 116 826 116 828 186 c 6
 828 730 l 5
 756 658 756 658 696 601 c 132
 636 544 636 544 581 506 c 132
 526 468 526 468 471 448 c 132
 416 428 416 428 352 428 c 4
 256 428 256 428 213 485 c 132
 170 542 170 542 170 618 c 4
 170 628 170 628 175 653 c 132
 180 678 180 678 195 705 c 132
 210 732 210 732 237 757 c 132
 264 782 264 782 308 792 c 4
 326 796 326 796 343 794 c 132
 360 792 360 792 373 787 c 132
 386 782 386 782 393 777 c 132
 400 772 400 772 400 770 c 5
 340 792 340 792 307 760 c 132
 274 728 274 728 274 674 c 4
 274 662 274 662 280 647 c 132
 286 632 286 632 298 619 c 132
 310 606 310 606 329 596 c 132
 348 586 348 586 376 586 c 4
 426 586 426 586 484 603 c 132
 542 620 542 620 601 657 c 132
 660 694 660 694 718 754 c 132
 776 814 776 814 828 900 c 5
 1028 900 l 5
 1028 186 l 6
 1028 154 1028 154 1028 116 c 132
 1028 78 1028 78 1029 42 c 132
 1030 6 1030 6 1034 -27 c 132
 1038 -60 1038 -60 1048 -84 c 5
EndSplineSet
Ligature2: "ccmp-1" period E quotesingle O
Ligature2: "ccmp-1" period E quotesingle o
Ligature2: "ccmp-1" period e quotesingle O
Ligature2: "ccmp-1" period e quotesingle o
Ligature2: "ccmp-0 subtable" period e quotesingle o
Ligature2: "ccmp-0 subtable" period e quotesingle O
Ligature2: "ccmp-0 subtable" period E quotesingle o
Ligature2: "ccmp-0 subtable" period E quotesingle O
Ligature2: "ccmp-1 subtable" period e quotesingle o
Ligature2: "ccmp-1 subtable" period e quotesingle O
Ligature2: "ccmp-1 subtable" period E quotesingle o
Ligature2: "ccmp-1 subtable" period E quotesingle O
EndChar

StartChar: h.io
Encoding: 284 -1 78
Width: 1200
GlyphClass: 3
Flags: HW
LayerCount: 2
Fore
SplineSet
162 1130 m 4
 162 1188 162 1188 203 1229 c 132
 244 1270 244 1270 300 1270 c 4
 358 1270 358 1270 399 1229 c 132
 440 1188 440 1188 440 1130 c 4
 440 1074 440 1074 399 1033 c 132
 358 992 358 992 300 992 c 4
 244 992 244 992 203 1033 c 132
 162 1074 162 1074 162 1130 c 4
1316 1522 m 5
 1278 1472 1278 1472 1240 1411 c 132
 1202 1350 1202 1350 1167 1286 c 132
 1132 1222 1132 1222 1104 1161 c 132
 1076 1100 1076 1100 1060 1052 c 5
 902 1052 l 5
 918 1178 918 1178 881 1280 c 132
 844 1382 844 1382 760 1432 c 5
 932 1432 l 5
 974 1420 974 1420 994 1384 c 132
 1014 1348 1014 1348 1032 1288 c 5
 1062 1332 1062 1332 1088 1373 c 132
 1114 1414 1114 1414 1145 1445 c 132
 1176 1476 1176 1476 1216 1496 c 132
 1256 1516 1256 1516 1316 1522 c 5
1048 -84 m 5
 1032 -82 1032 -82 995 -65 c 132
 958 -48 958 -48 920 -15 c 132
 882 18 882 18 854 67 c 132
 826 116 826 116 828 186 c 6
 828 730 l 5
 756 658 756 658 696 601 c 132
 636 544 636 544 581 506 c 132
 526 468 526 468 471 448 c 132
 416 428 416 428 352 428 c 4
 256 428 256 428 213 485 c 132
 170 542 170 542 170 618 c 4
 170 628 170 628 175 653 c 132
 180 678 180 678 195 705 c 132
 210 732 210 732 237 757 c 132
 264 782 264 782 308 792 c 4
 326 796 326 796 343 794 c 132
 360 792 360 792 373 787 c 132
 386 782 386 782 393 777 c 132
 400 772 400 772 400 770 c 5
 340 792 340 792 307 760 c 132
 274 728 274 728 274 674 c 4
 274 662 274 662 280 647 c 132
 286 632 286 632 298 619 c 132
 310 606 310 606 329 596 c 132
 348 586 348 586 376 586 c 4
 426 586 426 586 484 603 c 132
 542 620 542 620 601 657 c 132
 660 694 660 694 718 754 c 132
 776 814 776 814 828 900 c 5
 1028 900 l 5
 1028 186 l 6
 1028 154 1028 154 1028 116 c 132
 1028 78 1028 78 1029 42 c 132
 1030 6 1030 6 1034 -27 c 132
 1038 -60 1038 -60 1048 -84 c 5
EndSplineSet
Ligature2: "ccmp-1" period I quotesingle O
Ligature2: "ccmp-1" period I quotesingle o
Ligature2: "ccmp-1" period i quotesingle O
Ligature2: "ccmp-1" period i quotesingle o
Ligature2: "ccmp-0 subtable" period i quotesingle o
Ligature2: "ccmp-0 subtable" period i quotesingle O
Ligature2: "ccmp-0 subtable" period I quotesingle o
Ligature2: "ccmp-0 subtable" period I quotesingle O
Ligature2: "ccmp-1 subtable" period i quotesingle o
Ligature2: "ccmp-1 subtable" period i quotesingle O
Ligature2: "ccmp-1 subtable" period I quotesingle o
Ligature2: "ccmp-1 subtable" period I quotesingle O
EndChar

StartChar: h.oo
Encoding: 285 -1 79
Width: 1200
GlyphClass: 3
Flags: HW
LayerCount: 2
Fore
SplineSet
1316 1522 m 5
 1278 1472 1278 1472 1240 1411 c 132
 1202 1350 1202 1350 1167 1286 c 132
 1132 1222 1132 1222 1104 1161 c 132
 1076 1100 1076 1100 1060 1052 c 5
 902 1052 l 5
 918 1178 918 1178 881 1280 c 132
 844 1382 844 1382 760 1432 c 5
 932 1432 l 5
 974 1420 974 1420 994 1384 c 132
 1014 1348 1014 1348 1032 1288 c 5
 1062 1332 1062 1332 1088 1373 c 132
 1114 1414 1114 1414 1145 1445 c 132
 1176 1476 1176 1476 1216 1496 c 132
 1256 1516 1256 1516 1316 1522 c 5
516 1322 m 5
 478 1272 478 1272 440 1211 c 132
 402 1150 402 1150 367 1086 c 132
 332 1022 332 1022 304 961 c 132
 276 900 276 900 260 852 c 5
 102 852 l 5
 118 978 118 978 81 1080 c 132
 44 1182 44 1182 -40 1232 c 5
 132 1232 l 5
 174 1220 174 1220 194 1184 c 132
 214 1148 214 1148 232 1088 c 5
 262 1132 262 1132 288 1173 c 132
 314 1214 314 1214 345 1245 c 132
 376 1276 376 1276 416 1296 c 132
 456 1316 456 1316 516 1322 c 5
1048 -84 m 5
 1032 -82 1032 -82 995 -65 c 132
 958 -48 958 -48 920 -15 c 132
 882 18 882 18 854 67 c 132
 826 116 826 116 828 186 c 6
 828 730 l 5
 756 658 756 658 696 601 c 132
 636 544 636 544 581 506 c 132
 526 468 526 468 471 448 c 132
 416 428 416 428 352 428 c 4
 256 428 256 428 213 485 c 132
 170 542 170 542 170 618 c 4
 170 628 170 628 175 653 c 132
 180 678 180 678 195 705 c 132
 210 732 210 732 237 757 c 132
 264 782 264 782 308 792 c 4
 326 796 326 796 343 794 c 132
 360 792 360 792 373 787 c 132
 386 782 386 782 393 777 c 132
 400 772 400 772 400 770 c 5
 340 792 340 792 307 760 c 132
 274 728 274 728 274 674 c 4
 274 662 274 662 280 647 c 132
 286 632 286 632 298 619 c 132
 310 606 310 606 329 596 c 132
 348 586 348 586 376 586 c 4
 426 586 426 586 484 603 c 132
 542 620 542 620 601 657 c 132
 660 694 660 694 718 754 c 132
 776 814 776 814 828 900 c 5
 1028 900 l 5
 1028 186 l 6
 1028 154 1028 154 1028 116 c 132
 1028 78 1028 78 1029 42 c 132
 1030 6 1030 6 1034 -27 c 132
 1038 -60 1038 -60 1048 -84 c 5
EndSplineSet
Ligature2: "ccmp-1" period O quotesingle O
Ligature2: "ccmp-1" period O quotesingle o
Ligature2: "ccmp-1" period o quotesingle O
Ligature2: "ccmp-1" period o quotesingle o
Ligature2: "ccmp-0 subtable" period o quotesingle o
Ligature2: "ccmp-0 subtable" period o quotesingle O
Ligature2: "ccmp-0 subtable" period O quotesingle o
Ligature2: "ccmp-0 subtable" period O quotesingle O
Ligature2: "ccmp-1 subtable" period o quotesingle o
Ligature2: "ccmp-1 subtable" period o quotesingle O
Ligature2: "ccmp-1 subtable" period O quotesingle o
Ligature2: "ccmp-1 subtable" period O quotesingle O
EndChar

StartChar: h.ao
Encoding: 286 -1 80
Width: 1200
GlyphClass: 3
Flags: HW
LayerCount: 2
Fore
SplineSet
380 1160 m 6
 380 1092 380 1092 380 1046 c 132
 380 1000 380 1000 379 969 c 132
 378 938 378 938 378 920 c 132
 378 902 378 902 378 890 c 5
 352 898 352 898 318 916 c 132
 284 934 284 934 253 966 c 132
 222 998 222 998 201 1045 c 132
 180 1092 180 1092 180 1160 c 6
 180 1402 l 5
 380 1402 l 5
 380 1160 l 6
1316 1522 m 5
 1278 1472 1278 1472 1240 1411 c 132
 1202 1350 1202 1350 1167 1286 c 132
 1132 1222 1132 1222 1104 1161 c 132
 1076 1100 1076 1100 1060 1052 c 5
 902 1052 l 5
 918 1178 918 1178 881 1280 c 132
 844 1382 844 1382 760 1432 c 5
 932 1432 l 5
 974 1420 974 1420 994 1384 c 132
 1014 1348 1014 1348 1032 1288 c 5
 1062 1332 1062 1332 1088 1373 c 132
 1114 1414 1114 1414 1145 1445 c 132
 1176 1476 1176 1476 1216 1496 c 132
 1256 1516 1256 1516 1316 1522 c 5
1048 -84 m 5
 1032 -82 1032 -82 995 -65 c 132
 958 -48 958 -48 920 -15 c 132
 882 18 882 18 854 67 c 132
 826 116 826 116 828 186 c 6
 828 730 l 5
 756 658 756 658 696 601 c 132
 636 544 636 544 581 506 c 132
 526 468 526 468 471 448 c 132
 416 428 416 428 352 428 c 4
 256 428 256 428 213 485 c 132
 170 542 170 542 170 618 c 4
 170 628 170 628 175 653 c 132
 180 678 180 678 195 705 c 132
 210 732 210 732 237 757 c 132
 264 782 264 782 308 792 c 4
 326 796 326 796 343 794 c 132
 360 792 360 792 373 787 c 132
 386 782 386 782 393 777 c 132
 400 772 400 772 400 770 c 5
 340 792 340 792 307 760 c 132
 274 728 274 728 274 674 c 4
 274 662 274 662 280 647 c 132
 286 632 286 632 298 619 c 132
 310 606 310 606 329 596 c 132
 348 586 348 586 376 586 c 4
 426 586 426 586 484 603 c 132
 542 620 542 620 601 657 c 132
 660 694 660 694 718 754 c 132
 776 814 776 814 828 900 c 5
 1028 900 l 5
 1028 186 l 6
 1028 154 1028 154 1028 116 c 132
 1028 78 1028 78 1029 42 c 132
 1030 6 1030 6 1034 -27 c 132
 1038 -60 1038 -60 1048 -84 c 5
EndSplineSet
Ligature2: "ccmp-1" period A quotesingle O
Ligature2: "ccmp-1" period A quotesingle o
Ligature2: "ccmp-1" period a quotesingle O
Ligature2: "ccmp-1" period a quotesingle o
Ligature2: "ccmp-0 subtable" period a quotesingle o
Ligature2: "ccmp-0 subtable" period a quotesingle O
Ligature2: "ccmp-0 subtable" period A quotesingle o
Ligature2: "ccmp-0 subtable" period A quotesingle O
Ligature2: "ccmp-1 subtable" period a quotesingle o
Ligature2: "ccmp-1 subtable" period a quotesingle O
Ligature2: "ccmp-1 subtable" period A quotesingle o
Ligature2: "ccmp-1 subtable" period A quotesingle O
EndChar

StartChar: h.ua
Encoding: 287 -1 81
Width: 1200
GlyphClass: 3
Flags: HW
LayerCount: 2
Fore
SplineSet
1020 1360 m 6
 1020 1292 1020 1292 1020 1246 c 132
 1020 1200 1020 1200 1019 1169 c 132
 1018 1138 1018 1138 1018 1120 c 132
 1018 1102 1018 1102 1018 1090 c 5
 992 1098 992 1098 958 1116 c 132
 924 1134 924 1134 893 1166 c 132
 862 1198 862 1198 841 1245 c 132
 820 1292 820 1292 820 1360 c 6
 820 1602 l 5
 1020 1602 l 5
 1020 1360 l 6
1048 -84 m 5
 1032 -82 1032 -82 995 -65 c 132
 958 -48 958 -48 920 -15 c 132
 882 18 882 18 854 67 c 132
 826 116 826 116 828 186 c 6
 828 730 l 5
 756 658 756 658 696 601 c 132
 636 544 636 544 581 506 c 132
 526 468 526 468 471 448 c 132
 416 428 416 428 352 428 c 4
 256 428 256 428 213 485 c 132
 170 542 170 542 170 618 c 4
 170 628 170 628 175 653 c 132
 180 678 180 678 195 705 c 132
 210 732 210 732 237 757 c 132
 264 782 264 782 308 792 c 4
 326 796 326 796 343 794 c 132
 360 792 360 792 373 787 c 132
 386 782 386 782 393 777 c 132
 400 772 400 772 400 770 c 5
 340 792 340 792 307 760 c 132
 274 728 274 728 274 674 c 4
 274 662 274 662 280 647 c 132
 286 632 286 632 298 619 c 132
 310 606 310 606 329 596 c 132
 348 586 348 586 376 586 c 4
 426 586 426 586 484 603 c 132
 542 620 542 620 601 657 c 132
 660 694 660 694 718 754 c 132
 776 814 776 814 828 900 c 5
 1028 900 l 5
 1028 186 l 6
 1028 154 1028 154 1028 116 c 132
 1028 78 1028 78 1029 42 c 132
 1030 6 1030 6 1034 -27 c 132
 1038 -60 1038 -60 1048 -84 c 5
74 1110 m 4
 74 1170 74 1170 104 1218 c 132
 134 1266 134 1266 192 1270 c 4
 224 1272 224 1272 245 1253 c 132
 266 1234 266 1234 274 1207 c 132
 282 1180 282 1180 273 1154 c 132
 264 1128 264 1128 234 1116 c 5
 240 1104 240 1104 261 1099 c 132
 282 1094 282 1094 302 1096 c 4
 342 1098 342 1098 386 1108 c 132
 430 1118 430 1118 476 1140 c 132
 522 1162 522 1162 568 1198 c 132
 614 1234 614 1234 660 1290 c 5
 652 1206 652 1206 619 1141 c 132
 586 1076 586 1076 536 1032 c 132
 486 988 486 988 426 964 c 132
 366 940 366 940 304 936 c 4
 256 932 256 932 214 946 c 132
 172 960 172 960 141 984 c 132
 110 1008 110 1008 92 1041 c 132
 74 1074 74 1074 74 1110 c 4
EndSplineSet
Ligature2: "ccmp-1" period U quotesingle A
Ligature2: "ccmp-1" period U quotesingle a
Ligature2: "ccmp-1" period u quotesingle A
Ligature2: "ccmp-1" period u quotesingle a
Ligature2: "ccmp-0 subtable" period u quotesingle a
Ligature2: "ccmp-0 subtable" period u quotesingle A
Ligature2: "ccmp-0 subtable" period U quotesingle a
Ligature2: "ccmp-0 subtable" period U quotesingle A
Ligature2: "ccmp-1 subtable" period u quotesingle a
Ligature2: "ccmp-1 subtable" period u quotesingle A
Ligature2: "ccmp-1 subtable" period U quotesingle a
Ligature2: "ccmp-1 subtable" period U quotesingle A
EndChar

StartChar: h.ea
Encoding: 288 -1 82
Width: 1200
GlyphClass: 3
Flags: HW
LayerCount: 2
Fore
SplineSet
1020 1360 m 6
 1020 1292 1020 1292 1020 1246 c 132
 1020 1200 1020 1200 1019 1169 c 132
 1018 1138 1018 1138 1018 1120 c 132
 1018 1102 1018 1102 1018 1090 c 5
 992 1098 992 1098 958 1116 c 132
 924 1134 924 1134 893 1166 c 132
 862 1198 862 1198 841 1245 c 132
 820 1292 820 1292 820 1360 c 6
 820 1602 l 5
 1020 1602 l 5
 1020 1360 l 6
492 1048 m 5
 372 1050 372 1050 290 1049 c 132
 208 1048 208 1048 155 1046 c 132
 102 1044 102 1044 73 1041 c 132
 44 1038 44 1038 30 1034 c 132
 16 1030 16 1030 12 1027 c 132
 8 1024 8 1024 4 1022 c 6
 86 1224 l 5
 534 1224 l 5
 492 1048 l 5
1048 -84 m 5
 1032 -82 1032 -82 995 -65 c 132
 958 -48 958 -48 920 -15 c 132
 882 18 882 18 854 67 c 132
 826 116 826 116 828 186 c 6
 828 730 l 5
 756 658 756 658 696 601 c 132
 636 544 636 544 581 506 c 132
 526 468 526 468 471 448 c 132
 416 428 416 428 352 428 c 4
 256 428 256 428 213 485 c 132
 170 542 170 542 170 618 c 4
 170 628 170 628 175 653 c 132
 180 678 180 678 195 705 c 132
 210 732 210 732 237 757 c 132
 264 782 264 782 308 792 c 4
 326 796 326 796 343 794 c 132
 360 792 360 792 373 787 c 132
 386 782 386 782 393 777 c 132
 400 772 400 772 400 770 c 5
 340 792 340 792 307 760 c 132
 274 728 274 728 274 674 c 4
 274 662 274 662 280 647 c 132
 286 632 286 632 298 619 c 132
 310 606 310 606 329 596 c 132
 348 586 348 586 376 586 c 4
 426 586 426 586 484 603 c 132
 542 620 542 620 601 657 c 132
 660 694 660 694 718 754 c 132
 776 814 776 814 828 900 c 5
 1028 900 l 5
 1028 186 l 6
 1028 154 1028 154 1028 116 c 132
 1028 78 1028 78 1029 42 c 132
 1030 6 1030 6 1034 -27 c 132
 1038 -60 1038 -60 1048 -84 c 5
EndSplineSet
Ligature2: "ccmp-1" period E quotesingle A
Ligature2: "ccmp-1" period E quotesingle a
Ligature2: "ccmp-1" period e quotesingle A
Ligature2: "ccmp-1" period e quotesingle a
Ligature2: "ccmp-0 subtable" period e quotesingle a
Ligature2: "ccmp-0 subtable" period e quotesingle A
Ligature2: "ccmp-0 subtable" period E quotesingle a
Ligature2: "ccmp-0 subtable" period E quotesingle A
Ligature2: "ccmp-1 subtable" period e quotesingle a
Ligature2: "ccmp-1 subtable" period e quotesingle A
Ligature2: "ccmp-1 subtable" period E quotesingle a
Ligature2: "ccmp-1 subtable" period E quotesingle A
EndChar

StartChar: h.ia
Encoding: 289 -1 83
Width: 1200
GlyphClass: 3
Flags: HW
LayerCount: 2
Fore
SplineSet
1020 1360 m 6
 1020 1292 1020 1292 1020 1246 c 132
 1020 1200 1020 1200 1019 1169 c 132
 1018 1138 1018 1138 1018 1120 c 132
 1018 1102 1018 1102 1018 1090 c 5
 992 1098 992 1098 958 1116 c 132
 924 1134 924 1134 893 1166 c 132
 862 1198 862 1198 841 1245 c 132
 820 1292 820 1292 820 1360 c 6
 820 1602 l 5
 1020 1602 l 5
 1020 1360 l 6
162 1130 m 4
 162 1188 162 1188 203 1229 c 132
 244 1270 244 1270 300 1270 c 4
 358 1270 358 1270 399 1229 c 132
 440 1188 440 1188 440 1130 c 4
 440 1074 440 1074 399 1033 c 132
 358 992 358 992 300 992 c 4
 244 992 244 992 203 1033 c 132
 162 1074 162 1074 162 1130 c 4
1048 -84 m 5
 1032 -82 1032 -82 995 -65 c 132
 958 -48 958 -48 920 -15 c 132
 882 18 882 18 854 67 c 132
 826 116 826 116 828 186 c 6
 828 730 l 5
 756 658 756 658 696 601 c 132
 636 544 636 544 581 506 c 132
 526 468 526 468 471 448 c 132
 416 428 416 428 352 428 c 4
 256 428 256 428 213 485 c 132
 170 542 170 542 170 618 c 4
 170 628 170 628 175 653 c 132
 180 678 180 678 195 705 c 132
 210 732 210 732 237 757 c 132
 264 782 264 782 308 792 c 4
 326 796 326 796 343 794 c 132
 360 792 360 792 373 787 c 132
 386 782 386 782 393 777 c 132
 400 772 400 772 400 770 c 5
 340 792 340 792 307 760 c 132
 274 728 274 728 274 674 c 4
 274 662 274 662 280 647 c 132
 286 632 286 632 298 619 c 132
 310 606 310 606 329 596 c 132
 348 586 348 586 376 586 c 4
 426 586 426 586 484 603 c 132
 542 620 542 620 601 657 c 132
 660 694 660 694 718 754 c 132
 776 814 776 814 828 900 c 5
 1028 900 l 5
 1028 186 l 6
 1028 154 1028 154 1028 116 c 132
 1028 78 1028 78 1029 42 c 132
 1030 6 1030 6 1034 -27 c 132
 1038 -60 1038 -60 1048 -84 c 5
EndSplineSet
Ligature2: "ccmp-1" period I quotesingle A
Ligature2: "ccmp-1" period I quotesingle a
Ligature2: "ccmp-1" period i quotesingle A
Ligature2: "ccmp-1" period i quotesingle a
Ligature2: "ccmp-0 subtable" period i quotesingle a
Ligature2: "ccmp-0 subtable" period i quotesingle A
Ligature2: "ccmp-0 subtable" period I quotesingle a
Ligature2: "ccmp-0 subtable" period I quotesingle A
Ligature2: "ccmp-1 subtable" period i quotesingle a
Ligature2: "ccmp-1 subtable" period i quotesingle A
Ligature2: "ccmp-1 subtable" period I quotesingle a
Ligature2: "ccmp-1 subtable" period I quotesingle A
EndChar

StartChar: h.oa
Encoding: 290 -1 84
Width: 1200
GlyphClass: 3
Flags: HW
LayerCount: 2
Fore
SplineSet
1020 1360 m 6
 1020 1292 1020 1292 1020 1246 c 132
 1020 1200 1020 1200 1019 1169 c 132
 1018 1138 1018 1138 1018 1120 c 132
 1018 1102 1018 1102 1018 1090 c 5
 992 1098 992 1098 958 1116 c 132
 924 1134 924 1134 893 1166 c 132
 862 1198 862 1198 841 1245 c 132
 820 1292 820 1292 820 1360 c 6
 820 1602 l 5
 1020 1602 l 5
 1020 1360 l 6
516 1322 m 5
 478 1272 478 1272 440 1211 c 132
 402 1150 402 1150 367 1086 c 132
 332 1022 332 1022 304 961 c 132
 276 900 276 900 260 852 c 5
 102 852 l 5
 118 978 118 978 81 1080 c 132
 44 1182 44 1182 -40 1232 c 5
 132 1232 l 5
 174 1220 174 1220 194 1184 c 132
 214 1148 214 1148 232 1088 c 5
 262 1132 262 1132 288 1173 c 132
 314 1214 314 1214 345 1245 c 132
 376 1276 376 1276 416 1296 c 132
 456 1316 456 1316 516 1322 c 5
1048 -84 m 5
 1032 -82 1032 -82 995 -65 c 132
 958 -48 958 -48 920 -15 c 132
 882 18 882 18 854 67 c 132
 826 116 826 116 828 186 c 6
 828 730 l 5
 756 658 756 658 696 601 c 132
 636 544 636 544 581 506 c 132
 526 468 526 468 471 448 c 132
 416 428 416 428 352 428 c 4
 256 428 256 428 213 485 c 132
 170 542 170 542 170 618 c 4
 170 628 170 628 175 653 c 132
 180 678 180 678 195 705 c 132
 210 732 210 732 237 757 c 132
 264 782 264 782 308 792 c 4
 326 796 326 796 343 794 c 132
 360 792 360 792 373 787 c 132
 386 782 386 782 393 777 c 132
 400 772 400 772 400 770 c 5
 340 792 340 792 307 760 c 132
 274 728 274 728 274 674 c 4
 274 662 274 662 280 647 c 132
 286 632 286 632 298 619 c 132
 310 606 310 606 329 596 c 132
 348 586 348 586 376 586 c 4
 426 586 426 586 484 603 c 132
 542 620 542 620 601 657 c 132
 660 694 660 694 718 754 c 132
 776 814 776 814 828 900 c 5
 1028 900 l 5
 1028 186 l 6
 1028 154 1028 154 1028 116 c 132
 1028 78 1028 78 1029 42 c 132
 1030 6 1030 6 1034 -27 c 132
 1038 -60 1038 -60 1048 -84 c 5
EndSplineSet
Ligature2: "ccmp-1" period O quotesingle A
Ligature2: "ccmp-1" period O quotesingle a
Ligature2: "ccmp-1" period o quotesingle A
Ligature2: "ccmp-1" period o quotesingle a
Ligature2: "ccmp-0 subtable" period o quotesingle a
Ligature2: "ccmp-0 subtable" period o quotesingle A
Ligature2: "ccmp-0 subtable" period O quotesingle a
Ligature2: "ccmp-0 subtable" period O quotesingle A
Ligature2: "ccmp-1 subtable" period o quotesingle a
Ligature2: "ccmp-1 subtable" period o quotesingle A
Ligature2: "ccmp-1 subtable" period O quotesingle a
Ligature2: "ccmp-1 subtable" period O quotesingle A
EndChar

StartChar: h.aa
Encoding: 291 -1 85
Width: 1200
GlyphClass: 3
Flags: HW
LayerCount: 2
Fore
SplineSet
380 1160 m 6
 380 1092 380 1092 380 1046 c 132
 380 1000 380 1000 379 969 c 132
 378 938 378 938 378 920 c 132
 378 902 378 902 378 890 c 5
 352 898 352 898 318 916 c 132
 284 934 284 934 253 966 c 132
 222 998 222 998 201 1045 c 132
 180 1092 180 1092 180 1160 c 6
 180 1402 l 5
 380 1402 l 5
 380 1160 l 6
1020 1360 m 6
 1020 1292 1020 1292 1020 1246 c 132
 1020 1200 1020 1200 1019 1169 c 132
 1018 1138 1018 1138 1018 1120 c 132
 1018 1102 1018 1102 1018 1090 c 5
 992 1098 992 1098 958 1116 c 132
 924 1134 924 1134 893 1166 c 132
 862 1198 862 1198 841 1245 c 132
 820 1292 820 1292 820 1360 c 6
 820 1602 l 5
 1020 1602 l 5
 1020 1360 l 6
1048 -84 m 5
 1032 -82 1032 -82 995 -65 c 132
 958 -48 958 -48 920 -15 c 132
 882 18 882 18 854 67 c 132
 826 116 826 116 828 186 c 6
 828 730 l 5
 756 658 756 658 696 601 c 132
 636 544 636 544 581 506 c 132
 526 468 526 468 471 448 c 132
 416 428 416 428 352 428 c 4
 256 428 256 428 213 485 c 132
 170 542 170 542 170 618 c 4
 170 628 170 628 175 653 c 132
 180 678 180 678 195 705 c 132
 210 732 210 732 237 757 c 132
 264 782 264 782 308 792 c 4
 326 796 326 796 343 794 c 132
 360 792 360 792 373 787 c 132
 386 782 386 782 393 777 c 132
 400 772 400 772 400 770 c 5
 340 792 340 792 307 760 c 132
 274 728 274 728 274 674 c 4
 274 662 274 662 280 647 c 132
 286 632 286 632 298 619 c 132
 310 606 310 606 329 596 c 132
 348 586 348 586 376 586 c 4
 426 586 426 586 484 603 c 132
 542 620 542 620 601 657 c 132
 660 694 660 694 718 754 c 132
 776 814 776 814 828 900 c 5
 1028 900 l 5
 1028 186 l 6
 1028 154 1028 154 1028 116 c 132
 1028 78 1028 78 1029 42 c 132
 1030 6 1030 6 1034 -27 c 132
 1038 -60 1038 -60 1048 -84 c 5
EndSplineSet
Ligature2: "ccmp-1" period A quotesingle A
Ligature2: "ccmp-1" period A quotesingle a
Ligature2: "ccmp-1" period a quotesingle A
Ligature2: "ccmp-1" period a quotesingle a
Ligature2: "ccmp-0 subtable" period a quotesingle a
Ligature2: "ccmp-0 subtable" period a quotesingle A
Ligature2: "ccmp-0 subtable" period A quotesingle a
Ligature2: "ccmp-0 subtable" period A quotesingle A
Ligature2: "ccmp-1 subtable" period a quotesingle a
Ligature2: "ccmp-1 subtable" period a quotesingle A
Ligature2: "ccmp-1 subtable" period A quotesingle a
Ligature2: "ccmp-1 subtable" period A quotesingle A
EndChar

StartChar: h.ue
Encoding: 292 -1 86
Width: 1200
GlyphClass: 3
Flags: HW
LayerCount: 2
Fore
SplineSet
1172 1288 m 5
 1052 1290 1052 1290 970 1289 c 132
 888 1288 888 1288 835 1286 c 132
 782 1284 782 1284 753 1281 c 132
 724 1278 724 1278 710 1274 c 132
 696 1270 696 1270 692 1267 c 132
 688 1264 688 1264 684 1262 c 6
 766 1464 l 5
 1214 1464 l 5
 1172 1288 l 5
1048 -84 m 5
 1032 -82 1032 -82 995 -65 c 132
 958 -48 958 -48 920 -15 c 132
 882 18 882 18 854 67 c 132
 826 116 826 116 828 186 c 6
 828 730 l 5
 756 658 756 658 696 601 c 132
 636 544 636 544 581 506 c 132
 526 468 526 468 471 448 c 132
 416 428 416 428 352 428 c 4
 256 428 256 428 213 485 c 132
 170 542 170 542 170 618 c 4
 170 628 170 628 175 653 c 132
 180 678 180 678 195 705 c 132
 210 732 210 732 237 757 c 132
 264 782 264 782 308 792 c 4
 326 796 326 796 343 794 c 132
 360 792 360 792 373 787 c 132
 386 782 386 782 393 777 c 132
 400 772 400 772 400 770 c 5
 340 792 340 792 307 760 c 132
 274 728 274 728 274 674 c 4
 274 662 274 662 280 647 c 132
 286 632 286 632 298 619 c 132
 310 606 310 606 329 596 c 132
 348 586 348 586 376 586 c 4
 426 586 426 586 484 603 c 132
 542 620 542 620 601 657 c 132
 660 694 660 694 718 754 c 132
 776 814 776 814 828 900 c 5
 1028 900 l 5
 1028 186 l 6
 1028 154 1028 154 1028 116 c 132
 1028 78 1028 78 1029 42 c 132
 1030 6 1030 6 1034 -27 c 132
 1038 -60 1038 -60 1048 -84 c 5
74 1110 m 4
 74 1170 74 1170 104 1218 c 132
 134 1266 134 1266 192 1270 c 4
 224 1272 224 1272 245 1253 c 132
 266 1234 266 1234 274 1207 c 132
 282 1180 282 1180 273 1154 c 132
 264 1128 264 1128 234 1116 c 5
 240 1104 240 1104 261 1099 c 132
 282 1094 282 1094 302 1096 c 4
 342 1098 342 1098 386 1108 c 132
 430 1118 430 1118 476 1140 c 132
 522 1162 522 1162 568 1198 c 132
 614 1234 614 1234 660 1290 c 5
 652 1206 652 1206 619 1141 c 132
 586 1076 586 1076 536 1032 c 132
 486 988 486 988 426 964 c 132
 366 940 366 940 304 936 c 4
 256 932 256 932 214 946 c 132
 172 960 172 960 141 984 c 132
 110 1008 110 1008 92 1041 c 132
 74 1074 74 1074 74 1110 c 4
EndSplineSet
Ligature2: "ccmp-1" period U quotesingle E
Ligature2: "ccmp-1" period U quotesingle e
Ligature2: "ccmp-1" period u quotesingle E
Ligature2: "ccmp-1" period u quotesingle e
Ligature2: "ccmp-0 subtable" period u quotesingle e
Ligature2: "ccmp-0 subtable" period u quotesingle E
Ligature2: "ccmp-0 subtable" period U quotesingle e
Ligature2: "ccmp-0 subtable" period U quotesingle E
Ligature2: "ccmp-1 subtable" period u quotesingle e
Ligature2: "ccmp-1 subtable" period u quotesingle E
Ligature2: "ccmp-1 subtable" period U quotesingle e
Ligature2: "ccmp-1 subtable" period U quotesingle E
EndChar

StartChar: h.ee
Encoding: 293 -1 87
Width: 1200
GlyphClass: 3
Flags: HW
LayerCount: 2
Fore
SplineSet
492 1048 m 5
 372 1050 372 1050 290 1049 c 132
 208 1048 208 1048 155 1046 c 132
 102 1044 102 1044 73 1041 c 132
 44 1038 44 1038 30 1034 c 132
 16 1030 16 1030 12 1027 c 132
 8 1024 8 1024 4 1022 c 6
 86 1224 l 5
 534 1224 l 5
 492 1048 l 5
1172 1288 m 5
 1052 1290 1052 1290 970 1289 c 132
 888 1288 888 1288 835 1286 c 132
 782 1284 782 1284 753 1281 c 132
 724 1278 724 1278 710 1274 c 132
 696 1270 696 1270 692 1267 c 132
 688 1264 688 1264 684 1262 c 6
 766 1464 l 5
 1214 1464 l 5
 1172 1288 l 5
1048 -84 m 5
 1032 -82 1032 -82 995 -65 c 132
 958 -48 958 -48 920 -15 c 132
 882 18 882 18 854 67 c 132
 826 116 826 116 828 186 c 6
 828 730 l 5
 756 658 756 658 696 601 c 132
 636 544 636 544 581 506 c 132
 526 468 526 468 471 448 c 132
 416 428 416 428 352 428 c 4
 256 428 256 428 213 485 c 132
 170 542 170 542 170 618 c 4
 170 628 170 628 175 653 c 132
 180 678 180 678 195 705 c 132
 210 732 210 732 237 757 c 132
 264 782 264 782 308 792 c 4
 326 796 326 796 343 794 c 132
 360 792 360 792 373 787 c 132
 386 782 386 782 393 777 c 132
 400 772 400 772 400 770 c 5
 340 792 340 792 307 760 c 132
 274 728 274 728 274 674 c 4
 274 662 274 662 280 647 c 132
 286 632 286 632 298 619 c 132
 310 606 310 606 329 596 c 132
 348 586 348 586 376 586 c 4
 426 586 426 586 484 603 c 132
 542 620 542 620 601 657 c 132
 660 694 660 694 718 754 c 132
 776 814 776 814 828 900 c 5
 1028 900 l 5
 1028 186 l 6
 1028 154 1028 154 1028 116 c 132
 1028 78 1028 78 1029 42 c 132
 1030 6 1030 6 1034 -27 c 132
 1038 -60 1038 -60 1048 -84 c 5
EndSplineSet
Ligature2: "ccmp-1" period E quotesingle E
Ligature2: "ccmp-1" period E quotesingle e
Ligature2: "ccmp-1" period e quotesingle E
Ligature2: "ccmp-1" period e quotesingle e
Ligature2: "ccmp-0 subtable" period e quotesingle e
Ligature2: "ccmp-0 subtable" period e quotesingle E
Ligature2: "ccmp-0 subtable" period E quotesingle e
Ligature2: "ccmp-0 subtable" period E quotesingle E
Ligature2: "ccmp-1 subtable" period e quotesingle e
Ligature2: "ccmp-1 subtable" period e quotesingle E
Ligature2: "ccmp-1 subtable" period E quotesingle e
Ligature2: "ccmp-1 subtable" period E quotesingle E
EndChar

StartChar: h.ie
Encoding: 294 -1 88
Width: 1200
GlyphClass: 3
Flags: HW
LayerCount: 2
Fore
SplineSet
142 1130 m 4
 142 1188 142 1188 183 1229 c 132
 224 1270 224 1270 280 1270 c 4
 338 1270 338 1270 379 1229 c 132
 420 1188 420 1188 420 1130 c 4
 420 1074 420 1074 379 1033 c 132
 338 992 338 992 280 992 c 4
 224 992 224 992 183 1033 c 132
 142 1074 142 1074 142 1130 c 4
1172 1288 m 5
 1052 1290 1052 1290 970 1289 c 132
 888 1288 888 1288 835 1286 c 132
 782 1284 782 1284 753 1281 c 132
 724 1278 724 1278 710 1274 c 132
 696 1270 696 1270 692 1267 c 132
 688 1264 688 1264 684 1262 c 6
 766 1464 l 5
 1214 1464 l 5
 1172 1288 l 5
1048 -84 m 5
 1032 -82 1032 -82 995 -65 c 132
 958 -48 958 -48 920 -15 c 132
 882 18 882 18 854 67 c 132
 826 116 826 116 828 186 c 6
 828 730 l 5
 756 658 756 658 696 601 c 132
 636 544 636 544 581 506 c 132
 526 468 526 468 471 448 c 132
 416 428 416 428 352 428 c 4
 256 428 256 428 213 485 c 132
 170 542 170 542 170 618 c 4
 170 628 170 628 175 653 c 132
 180 678 180 678 195 705 c 132
 210 732 210 732 237 757 c 132
 264 782 264 782 308 792 c 4
 326 796 326 796 343 794 c 132
 360 792 360 792 373 787 c 132
 386 782 386 782 393 777 c 132
 400 772 400 772 400 770 c 5
 340 792 340 792 307 760 c 132
 274 728 274 728 274 674 c 4
 274 662 274 662 280 647 c 132
 286 632 286 632 298 619 c 132
 310 606 310 606 329 596 c 132
 348 586 348 586 376 586 c 4
 426 586 426 586 484 603 c 132
 542 620 542 620 601 657 c 132
 660 694 660 694 718 754 c 132
 776 814 776 814 828 900 c 5
 1028 900 l 5
 1028 186 l 6
 1028 154 1028 154 1028 116 c 132
 1028 78 1028 78 1029 42 c 132
 1030 6 1030 6 1034 -27 c 132
 1038 -60 1038 -60 1048 -84 c 5
EndSplineSet
Ligature2: "ccmp-1" period I quotesingle E
Ligature2: "ccmp-1" period I quotesingle e
Ligature2: "ccmp-1" period i quotesingle E
Ligature2: "ccmp-1" period i quotesingle e
Ligature2: "ccmp-0 subtable" period i quotesingle e
Ligature2: "ccmp-0 subtable" period i quotesingle E
Ligature2: "ccmp-0 subtable" period I quotesingle e
Ligature2: "ccmp-0 subtable" period I quotesingle E
Ligature2: "ccmp-1 subtable" period i quotesingle e
Ligature2: "ccmp-1 subtable" period i quotesingle E
Ligature2: "ccmp-1 subtable" period I quotesingle e
Ligature2: "ccmp-1 subtable" period I quotesingle E
EndChar

StartChar: h.oe
Encoding: 295 -1 89
Width: 1200
GlyphClass: 3
Flags: HW
LayerCount: 2
Fore
SplineSet
1172 1288 m 5
 1052 1290 1052 1290 970 1289 c 132
 888 1288 888 1288 835 1286 c 132
 782 1284 782 1284 753 1281 c 132
 724 1278 724 1278 710 1274 c 132
 696 1270 696 1270 692 1267 c 132
 688 1264 688 1264 684 1262 c 6
 766 1464 l 5
 1214 1464 l 5
 1172 1288 l 5
516 1322 m 5
 478 1272 478 1272 440 1211 c 132
 402 1150 402 1150 367 1086 c 132
 332 1022 332 1022 304 961 c 132
 276 900 276 900 260 852 c 5
 102 852 l 5
 118 978 118 978 81 1080 c 132
 44 1182 44 1182 -40 1232 c 5
 132 1232 l 5
 174 1220 174 1220 194 1184 c 132
 214 1148 214 1148 232 1088 c 5
 262 1132 262 1132 288 1173 c 132
 314 1214 314 1214 345 1245 c 132
 376 1276 376 1276 416 1296 c 132
 456 1316 456 1316 516 1322 c 5
1048 -84 m 5
 1032 -82 1032 -82 995 -65 c 132
 958 -48 958 -48 920 -15 c 132
 882 18 882 18 854 67 c 132
 826 116 826 116 828 186 c 6
 828 730 l 5
 756 658 756 658 696 601 c 132
 636 544 636 544 581 506 c 132
 526 468 526 468 471 448 c 132
 416 428 416 428 352 428 c 4
 256 428 256 428 213 485 c 132
 170 542 170 542 170 618 c 4
 170 628 170 628 175 653 c 132
 180 678 180 678 195 705 c 132
 210 732 210 732 237 757 c 132
 264 782 264 782 308 792 c 4
 326 796 326 796 343 794 c 132
 360 792 360 792 373 787 c 132
 386 782 386 782 393 777 c 132
 400 772 400 772 400 770 c 5
 340 792 340 792 307 760 c 132
 274 728 274 728 274 674 c 4
 274 662 274 662 280 647 c 132
 286 632 286 632 298 619 c 132
 310 606 310 606 329 596 c 132
 348 586 348 586 376 586 c 4
 426 586 426 586 484 603 c 132
 542 620 542 620 601 657 c 132
 660 694 660 694 718 754 c 132
 776 814 776 814 828 900 c 5
 1028 900 l 5
 1028 186 l 6
 1028 154 1028 154 1028 116 c 132
 1028 78 1028 78 1029 42 c 132
 1030 6 1030 6 1034 -27 c 132
 1038 -60 1038 -60 1048 -84 c 5
EndSplineSet
LCarets2: 3 0 0 0
Ligature2: "ccmp-1" period O quotesingle E
Ligature2: "ccmp-1" period O quotesingle e
Ligature2: "ccmp-1" period o quotesingle E
Ligature2: "ccmp-1" period o quotesingle e
Ligature2: "ccmp-0 subtable" period o quotesingle e
Ligature2: "ccmp-0 subtable" period o quotesingle E
Ligature2: "ccmp-0 subtable" period O quotesingle e
Ligature2: "ccmp-0 subtable" period O quotesingle E
Ligature2: "ccmp-1 subtable" period o quotesingle e
Ligature2: "ccmp-1 subtable" period o quotesingle E
Ligature2: "ccmp-1 subtable" period O quotesingle e
Ligature2: "ccmp-1 subtable" period O quotesingle E
EndChar

StartChar: h.ae
Encoding: 296 -1 90
Width: 1200
GlyphClass: 3
Flags: HW
LayerCount: 2
Fore
SplineSet
380 1160 m 6
 380 1092 380 1092 380 1046 c 132
 380 1000 380 1000 379 969 c 132
 378 938 378 938 378 920 c 132
 378 902 378 902 378 890 c 5
 352 898 352 898 318 916 c 132
 284 934 284 934 253 966 c 132
 222 998 222 998 201 1045 c 132
 180 1092 180 1092 180 1160 c 6
 180 1402 l 5
 380 1402 l 5
 380 1160 l 6
1172 1288 m 5
 1052 1290 1052 1290 970 1289 c 132
 888 1288 888 1288 835 1286 c 132
 782 1284 782 1284 753 1281 c 132
 724 1278 724 1278 710 1274 c 132
 696 1270 696 1270 692 1267 c 132
 688 1264 688 1264 684 1262 c 6
 766 1464 l 5
 1214 1464 l 5
 1172 1288 l 5
1048 -84 m 5
 1032 -82 1032 -82 995 -65 c 132
 958 -48 958 -48 920 -15 c 132
 882 18 882 18 854 67 c 132
 826 116 826 116 828 186 c 6
 828 730 l 5
 756 658 756 658 696 601 c 132
 636 544 636 544 581 506 c 132
 526 468 526 468 471 448 c 132
 416 428 416 428 352 428 c 4
 256 428 256 428 213 485 c 132
 170 542 170 542 170 618 c 4
 170 628 170 628 175 653 c 132
 180 678 180 678 195 705 c 132
 210 732 210 732 237 757 c 132
 264 782 264 782 308 792 c 4
 326 796 326 796 343 794 c 132
 360 792 360 792 373 787 c 132
 386 782 386 782 393 777 c 132
 400 772 400 772 400 770 c 5
 340 792 340 792 307 760 c 132
 274 728 274 728 274 674 c 4
 274 662 274 662 280 647 c 132
 286 632 286 632 298 619 c 132
 310 606 310 606 329 596 c 132
 348 586 348 586 376 586 c 4
 426 586 426 586 484 603 c 132
 542 620 542 620 601 657 c 132
 660 694 660 694 718 754 c 132
 776 814 776 814 828 900 c 5
 1028 900 l 5
 1028 186 l 6
 1028 154 1028 154 1028 116 c 132
 1028 78 1028 78 1029 42 c 132
 1030 6 1030 6 1034 -27 c 132
 1038 -60 1038 -60 1048 -84 c 5
EndSplineSet
Ligature2: "ccmp-1" period A quotesingle E
Ligature2: "ccmp-1" period A quotesingle e
Ligature2: "ccmp-1" period a quotesingle E
Ligature2: "ccmp-1" period a quotesingle e
Ligature2: "ccmp-0 subtable" period a quotesingle e
Ligature2: "ccmp-0 subtable" period a quotesingle E
Ligature2: "ccmp-0 subtable" period A quotesingle e
Ligature2: "ccmp-0 subtable" period A quotesingle E
Ligature2: "ccmp-1 subtable" period a quotesingle e
Ligature2: "ccmp-1 subtable" period a quotesingle E
Ligature2: "ccmp-1 subtable" period A quotesingle e
Ligature2: "ccmp-1 subtable" period A quotesingle E
EndChar

StartChar: h.aiy
Encoding: 297 -1 91
Width: 1200
GlyphClass: 3
Flags: HW
LayerCount: 2
Fore
SplineSet
676 1350 m 260
 676 1398 676 1398 694 1439 c 132
 712 1480 712 1480 743 1511 c 132
 774 1542 774 1542 815 1560 c 132
 856 1578 856 1578 904 1578 c 260
 952 1578 952 1578 993 1560 c 132
 1034 1542 1034 1542 1065 1511 c 132
 1096 1480 1096 1480 1114 1439 c 132
 1132 1398 1132 1398 1132 1350 c 260
 1132 1302 1132 1302 1114 1261 c 132
 1096 1220 1096 1220 1065 1189 c 132
 1034 1158 1034 1158 993 1140 c 132
 952 1122 952 1122 904 1122 c 260
 856 1122 856 1122 815 1140 c 132
 774 1158 774 1158 743 1189 c 132
 712 1220 712 1220 694 1261 c 132
 676 1302 676 1302 676 1350 c 260
754 1350 m 260
 754 1286 754 1286 797 1243 c 132
 840 1200 840 1200 904 1200 c 260
 968 1200 968 1200 1012 1243 c 132
 1056 1286 1056 1286 1056 1350 c 260
 1056 1414 1056 1414 1012 1458 c 132
 968 1502 968 1502 904 1502 c 260
 840 1502 840 1502 797 1458 c 132
 754 1414 754 1414 754 1350 c 260
1048 -84 m 5
 1032 -82 1032 -82 995 -65 c 132
 958 -48 958 -48 920 -15 c 132
 882 18 882 18 854 67 c 132
 826 116 826 116 828 186 c 6
 828 730 l 5
 756 658 756 658 696 601 c 132
 636 544 636 544 581 506 c 132
 526 468 526 468 471 448 c 132
 416 428 416 428 352 428 c 4
 256 428 256 428 213 485 c 132
 170 542 170 542 170 618 c 4
 170 628 170 628 175 653 c 132
 180 678 180 678 195 705 c 132
 210 732 210 732 237 757 c 132
 264 782 264 782 308 792 c 4
 326 796 326 796 343 794 c 132
 360 792 360 792 373 787 c 132
 386 782 386 782 393 777 c 132
 400 772 400 772 400 770 c 5
 340 792 340 792 307 760 c 132
 274 728 274 728 274 674 c 4
 274 662 274 662 280 647 c 132
 286 632 286 632 298 619 c 132
 310 606 310 606 329 596 c 132
 348 586 348 586 376 586 c 4
 426 586 426 586 484 603 c 132
 542 620 542 620 601 657 c 132
 660 694 660 694 718 754 c 132
 776 814 776 814 828 900 c 5
 1028 900 l 5
 1028 186 l 6
 1028 154 1028 154 1028 116 c 132
 1028 78 1028 78 1029 42 c 132
 1030 6 1030 6 1034 -27 c 132
 1038 -60 1038 -60 1048 -84 c 5
361.599609375 1162.80078125 m 6
 361.599609375 1108.40039062 361.599609375 1108.40039062 362.400390625 1071.59960938 c 132
 363.19921875 1034.80078125 363.19921875 1034.80078125 365.599609375 1010 c 132
 368 985.19921875 368 985.19921875 370.400390625 970.80078125 c 132
 372.80078125 956.400390625 372.80078125 956.400390625 377.599609375 946.80078125 c 5
 356.80078125 953.19921875 356.80078125 953.19921875 326.400390625 967.599609375 c 132
 296 982 296 982 268.80078125 1007.59960938 c 132
 241.599609375 1033.19921875 241.599609375 1033.19921875 221.599609375 1070.80078125 c 132
 201.599609375 1108.40039062 201.599609375 1108.40039062 201.599609375 1162.80078125 c 6
 201.599609375 1286 l 5
 361.599609375 1286 l 5
 361.599609375 1162.80078125 l 6
198.400390625 1430 m 260
 198.400390625 1465.19921875 198.400390625 1465.19921875 222.400390625 1489.19921875 c 132
 246.400390625 1513.19921875 246.400390625 1513.19921875 281.599609375 1513.19921875 c 260
 316.80078125 1513.19921875 316.80078125 1513.19921875 340.80078125 1489.19921875 c 132
 364.80078125 1465.19921875 364.80078125 1465.19921875 364.80078125 1430 c 260
 364.80078125 1394.80078125 364.80078125 1394.80078125 340.80078125 1370.80078125 c 132
 316.80078125 1346.80078125 316.80078125 1346.80078125 281.599609375 1346.80078125 c 260
 246.400390625 1346.80078125 246.400390625 1346.80078125 222.400390625 1370.80078125 c 132
 198.400390625 1394.80078125 198.400390625 1394.80078125 198.400390625 1430 c 260
EndSplineSet
Ligature2: "ccmp-1 subtable" period A I quotesingle Y
Ligature2: "ccmp-1 subtable" period A I quotesingle y
Ligature2: "ccmp-1 subtable" period A i quotesingle Y
Ligature2: "ccmp-1 subtable" period A i quotesingle y
Ligature2: "ccmp-1 subtable" period a I quotesingle Y
Ligature2: "ccmp-1 subtable" period a I quotesingle y
Ligature2: "ccmp-1 subtable" period a i quotesingle Y
Ligature2: "ccmp-1 subtable" period a i quotesingle y
Ligature2: "ccmp-0 subtable" period A I quotesingle Y
Ligature2: "ccmp-0 subtable" period A I quotesingle y
Ligature2: "ccmp-0 subtable" period A i quotesingle Y
Ligature2: "ccmp-0 subtable" period A i quotesingle y
Ligature2: "ccmp-0 subtable" period a I quotesingle Y
Ligature2: "ccmp-0 subtable" period a I quotesingle y
Ligature2: "ccmp-0 subtable" period a i quotesingle Y
Ligature2: "ccmp-0 subtable" period a i quotesingle y
Ligature2: "ccmp-1" period a i quotesingle y
Ligature2: "ccmp-1" period a i quotesingle Y
Ligature2: "ccmp-1" period a I quotesingle y
Ligature2: "ccmp-1" period a I quotesingle Y
Ligature2: "ccmp-1" period A i quotesingle y
Ligature2: "ccmp-1" period A i quotesingle Y
Ligature2: "ccmp-1" period A I quotesingle y
Ligature2: "ccmp-1" period A I quotesingle Y
EndChar

StartChar: h.oiy
Encoding: 298 -1 92
Width: 1200
GlyphClass: 3
Flags: HW
LayerCount: 2
Fore
SplineSet
676 1350 m 260
 676 1398 676 1398 694 1439 c 132
 712 1480 712 1480 743 1511 c 132
 774 1542 774 1542 815 1560 c 132
 856 1578 856 1578 904 1578 c 260
 952 1578 952 1578 993 1560 c 132
 1034 1542 1034 1542 1065 1511 c 132
 1096 1480 1096 1480 1114 1439 c 132
 1132 1398 1132 1398 1132 1350 c 260
 1132 1302 1132 1302 1114 1261 c 132
 1096 1220 1096 1220 1065 1189 c 132
 1034 1158 1034 1158 993 1140 c 132
 952 1122 952 1122 904 1122 c 260
 856 1122 856 1122 815 1140 c 132
 774 1158 774 1158 743 1189 c 132
 712 1220 712 1220 694 1261 c 132
 676 1302 676 1302 676 1350 c 260
754 1350 m 260
 754 1286 754 1286 797 1243 c 132
 840 1200 840 1200 904 1200 c 260
 968 1200 968 1200 1012 1243 c 132
 1056 1286 1056 1286 1056 1350 c 260
 1056 1414 1056 1414 1012 1458 c 132
 968 1502 968 1502 904 1502 c 260
 840 1502 840 1502 797 1458 c 132
 754 1414 754 1414 754 1350 c 260
1048 -84 m 5
 1032 -82 1032 -82 995 -65 c 132
 958 -48 958 -48 920 -15 c 132
 882 18 882 18 854 67 c 132
 826 116 826 116 828 186 c 6
 828 730 l 5
 756 658 756 658 696 601 c 132
 636 544 636 544 581 506 c 132
 526 468 526 468 471 448 c 132
 416 428 416 428 352 428 c 4
 256 428 256 428 213 485 c 132
 170 542 170 542 170 618 c 4
 170 628 170 628 175 653 c 132
 180 678 180 678 195 705 c 132
 210 732 210 732 237 757 c 132
 264 782 264 782 308 792 c 4
 326 796 326 796 343 794 c 132
 360 792 360 792 373 787 c 132
 386 782 386 782 393 777 c 132
 400 772 400 772 400 770 c 5
 340 792 340 792 307 760 c 132
 274 728 274 728 274 674 c 4
 274 662 274 662 280 647 c 132
 286 632 286 632 298 619 c 132
 310 606 310 606 329 596 c 132
 348 586 348 586 376 586 c 4
 426 586 426 586 484 603 c 132
 542 620 542 620 601 657 c 132
 660 694 660 694 718 754 c 132
 776 814 776 814 828 900 c 5
 1028 900 l 5
 1028 186 l 6
 1028 154 1028 154 1028 116 c 132
 1028 78 1028 78 1029 42 c 132
 1030 6 1030 6 1034 -27 c 132
 1038 -60 1038 -60 1048 -84 c 5
570.400390625 1253.19921875 m 5
 538.400390625 1224.40039062 538.400390625 1224.40039062 504.80078125 1176.40039062 c 132
 471.19921875 1128.40039062 471.19921875 1128.40039062 441.599609375 1074.80078125 c 132
 412 1021.19921875 412 1021.19921875 387.19921875 968.400390625 c 132
 362.400390625 915.599609375 362.400390625 915.599609375 349.599609375 877.19921875 c 5
 223.19921875 877.19921875 l 5
 229.599609375 926.80078125 229.599609375 926.80078125 223.19921875 976.400390625 c 132
 216.80078125 1026 216.80078125 1026 199.19921875 1068.40039062 c 132
 181.599609375 1110.80078125 181.599609375 1110.80078125 154.400390625 1144.40039062 c 132
 127.19921875 1178 127.19921875 1178 93.599609375 1197.19921875 c 5
 231.19921875 1197.19921875 l 5
 264.80078125 1187.59960938 264.80078125 1187.59960938 288.80078125 1150.80078125 c 132
 312.80078125 1114 312.80078125 1114 327.19921875 1066 c 5
 351.19921875 1101.19921875 351.19921875 1101.19921875 380 1135.59960938 c 132
 408.80078125 1170 408.80078125 1170 440 1196.40039062 c 132
 471.19921875 1222.80078125 471.19921875 1222.80078125 504 1238 c 132
 536.80078125 1253.19921875 536.80078125 1253.19921875 570.400390625 1253.19921875 c 5
244 1379.59960938 m 4
 244 1414.80078125 244 1414.80078125 268 1438.80078125 c 132
 292 1462.80078125 292 1462.80078125 325.599609375 1462.80078125 c 4
 360.80078125 1462.80078125 360.80078125 1462.80078125 384.80078125 1438.80078125 c 132
 408.80078125 1414.80078125 408.80078125 1414.80078125 408.80078125 1379.59960938 c 4
 408.80078125 1346 408.80078125 1346 384.80078125 1322 c 132
 360.80078125 1298 360.80078125 1298 325.599609375 1298 c 4
 292 1298 292 1298 268 1322 c 132
 244 1346 244 1346 244 1379.59960938 c 4
EndSplineSet
Ligature2: "ccmp-1" period O I quotesingle Y
Ligature2: "ccmp-1" period O I quotesingle y
Ligature2: "ccmp-1" period O i quotesingle Y
Ligature2: "ccmp-1" period O i quotesingle y
Ligature2: "ccmp-1" period o I quotesingle Y
Ligature2: "ccmp-1" period o I quotesingle y
Ligature2: "ccmp-1" period o i quotesingle Y
Ligature2: "ccmp-1" period o i quotesingle y
Ligature2: "ccmp-0 subtable" period o i quotesingle y
Ligature2: "ccmp-0 subtable" period o i quotesingle Y
Ligature2: "ccmp-0 subtable" period o I quotesingle y
Ligature2: "ccmp-0 subtable" period o I quotesingle Y
Ligature2: "ccmp-0 subtable" period O i quotesingle y
Ligature2: "ccmp-0 subtable" period O i quotesingle Y
Ligature2: "ccmp-0 subtable" period O I quotesingle y
Ligature2: "ccmp-0 subtable" period O I quotesingle Y
Ligature2: "ccmp-1 subtable" period o i quotesingle y
Ligature2: "ccmp-1 subtable" period o i quotesingle Y
Ligature2: "ccmp-1 subtable" period o I quotesingle y
Ligature2: "ccmp-1 subtable" period o I quotesingle Y
Ligature2: "ccmp-1 subtable" period O i quotesingle y
Ligature2: "ccmp-1 subtable" period O i quotesingle Y
Ligature2: "ccmp-1 subtable" period O I quotesingle y
Ligature2: "ccmp-1 subtable" period O I quotesingle Y
EndChar

StartChar: h.eiy
Encoding: 299 -1 93
Width: 1200
GlyphClass: 3
Flags: HW
LayerCount: 2
Fore
SplineSet
676 1350 m 260
 676 1398 676 1398 694 1439 c 132
 712 1480 712 1480 743 1511 c 132
 774 1542 774 1542 815 1560 c 132
 856 1578 856 1578 904 1578 c 260
 952 1578 952 1578 993 1560 c 132
 1034 1542 1034 1542 1065 1511 c 132
 1096 1480 1096 1480 1114 1439 c 132
 1132 1398 1132 1398 1132 1350 c 260
 1132 1302 1132 1302 1114 1261 c 132
 1096 1220 1096 1220 1065 1189 c 132
 1034 1158 1034 1158 993 1140 c 132
 952 1122 952 1122 904 1122 c 260
 856 1122 856 1122 815 1140 c 132
 774 1158 774 1158 743 1189 c 132
 712 1220 712 1220 694 1261 c 132
 676 1302 676 1302 676 1350 c 260
754 1350 m 260
 754 1286 754 1286 797 1243 c 132
 840 1200 840 1200 904 1200 c 260
 968 1200 968 1200 1012 1243 c 132
 1056 1286 1056 1286 1056 1350 c 260
 1056 1414 1056 1414 1012 1458 c 132
 968 1502 968 1502 904 1502 c 260
 840 1502 840 1502 797 1458 c 132
 754 1414 754 1414 754 1350 c 260
1048 -84 m 5
 1032 -82 1032 -82 995 -65 c 132
 958 -48 958 -48 920 -15 c 132
 882 18 882 18 854 67 c 132
 826 116 826 116 828 186 c 6
 828 730 l 5
 756 658 756 658 696 601 c 132
 636 544 636 544 581 506 c 132
 526 468 526 468 471 448 c 132
 416 428 416 428 352 428 c 4
 256 428 256 428 213 485 c 132
 170 542 170 542 170 618 c 4
 170 628 170 628 175 653 c 132
 180 678 180 678 195 705 c 132
 210 732 210 732 237 757 c 132
 264 782 264 782 308 792 c 4
 326 796 326 796 343 794 c 132
 360 792 360 792 373 787 c 132
 386 782 386 782 393 777 c 132
 400 772 400 772 400 770 c 5
 340 792 340 792 307 760 c 132
 274 728 274 728 274 674 c 4
 274 662 274 662 280 647 c 132
 286 632 286 632 298 619 c 132
 310 606 310 606 329 596 c 132
 348 586 348 586 376 586 c 4
 426 586 426 586 484 603 c 132
 542 620 542 620 601 657 c 132
 660 694 660 694 718 754 c 132
 776 814 776 814 828 900 c 5
 1028 900 l 5
 1028 186 l 6
 1028 154 1028 154 1028 116 c 132
 1028 78 1028 78 1029 42 c 132
 1030 6 1030 6 1034 -27 c 132
 1038 -60 1038 -60 1048 -84 c 5
249.19921875 1254 m 4
 249.19921875 1289.19921875 249.19921875 1289.19921875 273.19921875 1313.19921875 c 132
 297.19921875 1337.19921875 297.19921875 1337.19921875 330.80078125 1337.19921875 c 4
 366 1337.19921875 366 1337.19921875 390 1313.19921875 c 132
 414 1289.19921875 414 1289.19921875 414 1254 c 4
 414 1220.40039062 414 1220.40039062 390 1196.40039062 c 132
 366 1172.40039062 366 1172.40039062 330.80078125 1172.40039062 c 4
 297.19921875 1172.40039062 297.19921875 1172.40039062 273.19921875 1196.40039062 c 132
 249.19921875 1220.40039062 249.19921875 1220.40039062 249.19921875 1254 c 4
502 967.599609375 m 5
 358 969.19921875 358 969.19921875 270.80078125 967.599609375 c 132
 183.599609375 966 183.599609375 966 136.400390625 962 c 132
 89.19921875 958 89.19921875 958 73.19921875 953.19921875 c 4
 52.400390625 946.80078125 52.400390625 946.80078125 52.400390625 946.80078125 c 6
 134 1092.40039062 l 5
 535.599609375 1092.40039062 l 5
 502 967.599609375 l 5
EndSplineSet
Ligature2: "ccmp-1" period E I quotesingle Y
Ligature2: "ccmp-1" period E I quotesingle y
Ligature2: "ccmp-1" period E i quotesingle Y
Ligature2: "ccmp-1" period E i quotesingle y
Ligature2: "ccmp-1" period e I quotesingle Y
Ligature2: "ccmp-1" period e I quotesingle y
Ligature2: "ccmp-1" period e i quotesingle Y
Ligature2: "ccmp-1" period e i quotesingle y
Ligature2: "ccmp-0 subtable" period e i quotesingle y
Ligature2: "ccmp-0 subtable" period e i quotesingle Y
Ligature2: "ccmp-0 subtable" period e I quotesingle y
Ligature2: "ccmp-0 subtable" period e I quotesingle Y
Ligature2: "ccmp-0 subtable" period E i quotesingle y
Ligature2: "ccmp-0 subtable" period E i quotesingle Y
Ligature2: "ccmp-0 subtable" period E I quotesingle y
Ligature2: "ccmp-0 subtable" period E I quotesingle Y
Ligature2: "ccmp-1 subtable" period e i quotesingle y
Ligature2: "ccmp-1 subtable" period e i quotesingle Y
Ligature2: "ccmp-1 subtable" period e I quotesingle y
Ligature2: "ccmp-1 subtable" period e I quotesingle Y
Ligature2: "ccmp-1 subtable" period E i quotesingle y
Ligature2: "ccmp-1 subtable" period E i quotesingle Y
Ligature2: "ccmp-1 subtable" period E I quotesingle y
Ligature2: "ccmp-1 subtable" period E I quotesingle Y
EndChar

StartChar: h.auy
Encoding: 300 -1 94
Width: 1200
GlyphClass: 3
Flags: HW
LayerCount: 2
Fore
SplineSet
676 1350 m 260
 676 1398 676 1398 694 1439 c 132
 712 1480 712 1480 743 1511 c 132
 774 1542 774 1542 815 1560 c 132
 856 1578 856 1578 904 1578 c 260
 952 1578 952 1578 993 1560 c 132
 1034 1542 1034 1542 1065 1511 c 132
 1096 1480 1096 1480 1114 1439 c 132
 1132 1398 1132 1398 1132 1350 c 260
 1132 1302 1132 1302 1114 1261 c 132
 1096 1220 1096 1220 1065 1189 c 132
 1034 1158 1034 1158 993 1140 c 132
 952 1122 952 1122 904 1122 c 260
 856 1122 856 1122 815 1140 c 132
 774 1158 774 1158 743 1189 c 132
 712 1220 712 1220 694 1261 c 132
 676 1302 676 1302 676 1350 c 260
754 1350 m 260
 754 1286 754 1286 797 1243 c 132
 840 1200 840 1200 904 1200 c 260
 968 1200 968 1200 1012 1243 c 132
 1056 1286 1056 1286 1056 1350 c 260
 1056 1414 1056 1414 1012 1458 c 132
 968 1502 968 1502 904 1502 c 260
 840 1502 840 1502 797 1458 c 132
 754 1414 754 1414 754 1350 c 260
1048 -84 m 5
 1032 -82 1032 -82 995 -65 c 132
 958 -48 958 -48 920 -15 c 132
 882 18 882 18 854 67 c 132
 826 116 826 116 828 186 c 6
 828 730 l 5
 756 658 756 658 696 601 c 132
 636 544 636 544 581 506 c 132
 526 468 526 468 471 448 c 132
 416 428 416 428 352 428 c 4
 256 428 256 428 213 485 c 132
 170 542 170 542 170 618 c 4
 170 628 170 628 175 653 c 132
 180 678 180 678 195 705 c 132
 210 732 210 732 237 757 c 132
 264 782 264 782 308 792 c 4
 326 796 326 796 343 794 c 132
 360 792 360 792 373 787 c 132
 386 782 386 782 393 777 c 132
 400 772 400 772 400 770 c 5
 340 792 340 792 307 760 c 132
 274 728 274 728 274 674 c 4
 274 662 274 662 280 647 c 132
 286 632 286 632 298 619 c 132
 310 606 310 606 329 596 c 132
 348 586 348 586 376 586 c 4
 426 586 426 586 484 603 c 132
 542 620 542 620 601 657 c 132
 660 694 660 694 718 754 c 132
 776 814 776 814 828 900 c 5
 1028 900 l 5
 1028 186 l 6
 1028 154 1028 154 1028 116 c 132
 1028 78 1028 78 1029 42 c 132
 1030 6 1030 6 1034 -27 c 132
 1038 -60 1038 -60 1048 -84 c 5
198 1306 m 4
 226 1342 226 1342 257 1357 c 132
 288 1372 288 1372 320 1372 c 4
 358 1372 358 1372 395 1352 c 132
 432 1332 432 1332 460 1300 c 132
 488 1268 488 1268 505 1229 c 132
 522 1190 522 1190 522 1152 c 4
 522 1094 522 1094 498 1046 c 132
 474 998 474 998 435 961 c 132
 396 924 396 924 347 900 c 132
 298 876 298 876 246 864 c 5
 278 904 278 904 302 936 c 132
 326 968 326 968 340 998 c 132
 354 1028 354 1028 361 1059 c 132
 368 1090 368 1090 368 1126 c 4
 368 1166 368 1166 359 1196 c 132
 350 1226 350 1226 340 1242 c 5
 340 1214 340 1214 317 1193 c 132
 294 1172 294 1172 264 1172 c 4
 218 1172 218 1172 198 1195 c 132
 178 1218 178 1218 178 1246 c 4
 178 1280 178 1280 198 1306 c 4
EndSplineSet
Ligature2: "ccmp-1" period A U quotesingle Y
Ligature2: "ccmp-1" period A U quotesingle y
Ligature2: "ccmp-1" period A u quotesingle Y
Ligature2: "ccmp-1" period A u quotesingle y
Ligature2: "ccmp-1" period a U quotesingle Y
Ligature2: "ccmp-1" period a U quotesingle y
Ligature2: "ccmp-1" period a u quotesingle Y
Ligature2: "ccmp-1" period a u quotesingle y
Ligature2: "ccmp-0 subtable" period a u quotesingle y
Ligature2: "ccmp-0 subtable" period a u quotesingle Y
Ligature2: "ccmp-0 subtable" period a U quotesingle y
Ligature2: "ccmp-0 subtable" period a U quotesingle Y
Ligature2: "ccmp-0 subtable" period A u quotesingle y
Ligature2: "ccmp-0 subtable" period A u quotesingle Y
Ligature2: "ccmp-0 subtable" period A U quotesingle y
Ligature2: "ccmp-0 subtable" period A U quotesingle Y
Ligature2: "ccmp-1 subtable" period a u quotesingle y
Ligature2: "ccmp-1 subtable" period a u quotesingle Y
Ligature2: "ccmp-1 subtable" period a U quotesingle y
Ligature2: "ccmp-1 subtable" period a U quotesingle Y
Ligature2: "ccmp-1 subtable" period A u quotesingle y
Ligature2: "ccmp-1 subtable" period A u quotesingle Y
Ligature2: "ccmp-1 subtable" period A U quotesingle y
Ligature2: "ccmp-1 subtable" period A U quotesingle Y
EndChar

StartChar: q.y
Encoding: 301 -1 95
Width: 1200
GlyphClass: 3
Flags: HW
LayerCount: 2
Fore
SplineSet
600 906 m 5
 652 828 652 828 706 731 c 132
 760 634 760 634 810 533 c 132
 860 432 860 432 906 336 c 132
 952 240 952 240 989 165 c 132
 1026 90 1026 90 1055 45 c 132
 1084 0 1084 0 1100 0 c 6
 880 0 l 5
 868 14 868 14 786 165 c 132
 704 316 704 316 580 608 c 5
 530 494 530 494 471 385 c 132
 412 276 412 276 369 191 c 132
 326 106 326 106 308 54 c 132
 290 2 290 2 320 0 c 6
 100 0 l 6
 118 4 118 4 151 52 c 132
 184 100 184 100 228 177 c 132
 272 254 272 254 321 351 c 132
 370 448 370 448 420 547 c 132
 470 646 470 646 516 740 c 132
 562 834 562 834 600 906 c 5
356 1410 m 260
 356 1458 356 1458 374 1499 c 132
 392 1540 392 1540 423 1571 c 132
 454 1602 454 1602 495 1620 c 132
 536 1638 536 1638 584 1638 c 260
 632 1638 632 1638 673 1620 c 132
 714 1602 714 1602 745 1571 c 132
 776 1540 776 1540 794 1499 c 132
 812 1458 812 1458 812 1410 c 260
 812 1362 812 1362 794 1321 c 132
 776 1280 776 1280 745 1249 c 132
 714 1218 714 1218 673 1200 c 132
 632 1182 632 1182 584 1182 c 260
 536 1182 536 1182 495 1200 c 132
 454 1218 454 1218 423 1249 c 132
 392 1280 392 1280 374 1321 c 132
 356 1362 356 1362 356 1410 c 260
434 1410 m 260
 434 1346 434 1346 477 1303 c 132
 520 1260 520 1260 584 1260 c 260
 648 1260 648 1260 692 1303 c 132
 736 1346 736 1346 736 1410 c 260
 736 1474 736 1474 692 1518 c 132
 648 1562 648 1562 584 1562 c 260
 520 1562 520 1562 477 1518 c 132
 434 1474 434 1474 434 1410 c 260
EndSplineSet
LCarets2: 1 0
Ligature2: "ccmp-1" I Y
Ligature2: "ccmp-1" I y
Ligature2: "ccmp-1" i Y
Ligature2: "ccmp-1" i y
Ligature2: "ccmp-0 subtable" i y
Ligature2: "ccmp-0 subtable" i Y
Ligature2: "ccmp-0 subtable" I y
Ligature2: "ccmp-0 subtable" I Y
Ligature2: "ccmp-1 subtable" i y
Ligature2: "ccmp-1 subtable" i Y
Ligature2: "ccmp-1 subtable" I y
Ligature2: "ccmp-1 subtable" I Y
EndChar

StartChar: q.u
Encoding: 302 -1 96
Width: 1200
GlyphClass: 3
Flags: HW
LayerCount: 2
Fore
SplineSet
600 906 m 5
 652 828 652 828 706 731 c 132
 760 634 760 634 810 533 c 132
 860 432 860 432 906 336 c 132
 952 240 952 240 989 165 c 132
 1026 90 1026 90 1055 45 c 132
 1084 0 1084 0 1100 0 c 6
 880 0 l 5
 868 14 868 14 786 165 c 132
 704 316 704 316 580 608 c 5
 530 494 530 494 471 385 c 132
 412 276 412 276 369 191 c 132
 326 106 326 106 308 54 c 132
 290 2 290 2 320 0 c 6
 100 0 l 6
 118 4 118 4 151 52 c 132
 184 100 184 100 228 177 c 132
 272 254 272 254 321 351 c 132
 370 448 370 448 420 547 c 132
 470 646 470 646 516 740 c 132
 562 834 562 834 600 906 c 5
354 1290 m 4
 354 1350 354 1350 384 1398 c 132
 414 1446 414 1446 472 1450 c 4
 504 1452 504 1452 525 1433 c 132
 546 1414 546 1414 554 1387 c 132
 562 1360 562 1360 553 1334 c 132
 544 1308 544 1308 514 1296 c 5
 520 1284 520 1284 541 1279 c 132
 562 1274 562 1274 582 1276 c 4
 622 1278 622 1278 666 1288 c 132
 710 1298 710 1298 756 1320 c 132
 802 1342 802 1342 848 1378 c 132
 894 1414 894 1414 940 1470 c 5
 932 1386 932 1386 899 1321 c 132
 866 1256 866 1256 816 1212 c 132
 766 1168 766 1168 706 1144 c 132
 646 1120 646 1120 584 1116 c 4
 536 1112 536 1112 494 1126 c 132
 452 1140 452 1140 421 1164 c 132
 390 1188 390 1188 372 1221 c 132
 354 1254 354 1254 354 1290 c 4
EndSplineSet
Ligature2: "ccmp-1" I U
Ligature2: "ccmp-1" I u
Ligature2: "ccmp-1" i U
Ligature2: "ccmp-1" i u
Ligature2: "ccmp-0 subtable" i u
Ligature2: "ccmp-0 subtable" i U
Ligature2: "ccmp-0 subtable" I u
Ligature2: "ccmp-0 subtable" I U
Ligature2: "ccmp-1 subtable" i u
Ligature2: "ccmp-1 subtable" i U
Ligature2: "ccmp-1 subtable" I u
Ligature2: "ccmp-1 subtable" I U
EndChar

StartChar: q.o
Encoding: 303 -1 97
Width: 1200
GlyphClass: 3
Flags: HW
LayerCount: 2
Fore
SplineSet
600 906 m 5
 652 828 652 828 706 731 c 132
 760 634 760 634 810 533 c 132
 860 432 860 432 906 336 c 132
 952 240 952 240 989 165 c 132
 1026 90 1026 90 1055 45 c 132
 1084 0 1084 0 1100 0 c 6
 880 0 l 5
 868 14 868 14 786 165 c 132
 704 316 704 316 580 608 c 5
 530 494 530 494 471 385 c 132
 412 276 412 276 369 191 c 132
 326 106 326 106 308 54 c 132
 290 2 290 2 320 0 c 6
 100 0 l 6
 118 4 118 4 151 52 c 132
 184 100 184 100 228 177 c 132
 272 254 272 254 321 351 c 132
 370 448 370 448 420 547 c 132
 470 646 470 646 516 740 c 132
 562 834 562 834 600 906 c 5
916 1522 m 5
 878 1472 878 1472 840 1411 c 132
 802 1350 802 1350 767 1286 c 132
 732 1222 732 1222 704 1161 c 132
 676 1100 676 1100 660 1052 c 5
 502 1052 l 5
 518 1178 518 1178 481 1280 c 132
 444 1382 444 1382 360 1432 c 5
 532 1432 l 5
 574 1420 574 1420 594 1384 c 132
 614 1348 614 1348 632 1288 c 5
 662 1332 662 1332 688 1373 c 132
 714 1414 714 1414 745 1445 c 132
 776 1476 776 1476 816 1496 c 132
 856 1516 856 1516 916 1522 c 5
EndSplineSet
Ligature2: "ccmp-1" I O
Ligature2: "ccmp-1" I o
Ligature2: "ccmp-1" i O
Ligature2: "ccmp-1" i o
Ligature2: "ccmp-0 subtable" i o
Ligature2: "ccmp-0 subtable" i O
Ligature2: "ccmp-0 subtable" I o
Ligature2: "ccmp-0 subtable" I O
Ligature2: "ccmp-1 subtable" i o
Ligature2: "ccmp-1 subtable" i O
Ligature2: "ccmp-1 subtable" I o
Ligature2: "ccmp-1 subtable" I O
EndChar

StartChar: q.i
Encoding: 304 -1 98
Width: 1200
GlyphClass: 3
Flags: HW
LayerCount: 2
Fore
SplineSet
600 906 m 5
 652 828 652 828 706 731 c 132
 760 634 760 634 810 533 c 132
 860 432 860 432 906 336 c 132
 952 240 952 240 989 165 c 132
 1026 90 1026 90 1055 45 c 132
 1084 0 1084 0 1100 0 c 6
 880 0 l 5
 868 14 868 14 786 165 c 132
 704 316 704 316 580 608 c 5
 530 494 530 494 471 385 c 132
 412 276 412 276 369 191 c 132
 326 106 326 106 308 54 c 132
 290 2 290 2 320 0 c 6
 100 0 l 6
 118 4 118 4 151 52 c 132
 184 100 184 100 228 177 c 132
 272 254 272 254 321 351 c 132
 370 448 370 448 420 547 c 132
 470 646 470 646 516 740 c 132
 562 834 562 834 600 906 c 5
462 1270 m 4
 462 1328 462 1328 503 1369 c 132
 544 1410 544 1410 600 1410 c 4
 658 1410 658 1410 699 1369 c 132
 740 1328 740 1328 740 1270 c 4
 740 1214 740 1214 699 1173 c 132
 658 1132 658 1132 600 1132 c 4
 544 1132 544 1132 503 1173 c 132
 462 1214 462 1214 462 1270 c 4
EndSplineSet
Ligature2: "ccmp-1" I I
Ligature2: "ccmp-1" I i
Ligature2: "ccmp-1" i I
Ligature2: "ccmp-1" i i
Ligature2: "ccmp-0 subtable" i i
Ligature2: "ccmp-0 subtable" i I
Ligature2: "ccmp-0 subtable" I i
Ligature2: "ccmp-0 subtable" I I
Ligature2: "ccmp-1 subtable" i i
Ligature2: "ccmp-1 subtable" i I
Ligature2: "ccmp-1 subtable" I i
Ligature2: "ccmp-1 subtable" I I
EndChar

StartChar: q.e
Encoding: 305 -1 99
Width: 1200
GlyphClass: 3
Flags: HW
LayerCount: 2
Fore
SplineSet
600 906 m 5
 652 828 652 828 706 731 c 132
 760 634 760 634 810 533 c 132
 860 432 860 432 906 336 c 132
 952 240 952 240 989 165 c 132
 1026 90 1026 90 1055 45 c 132
 1084 0 1084 0 1100 0 c 6
 880 0 l 5
 868 14 868 14 786 165 c 132
 704 316 704 316 580 608 c 5
 530 494 530 494 471 385 c 132
 412 276 412 276 369 191 c 132
 326 106 326 106 308 54 c 132
 290 2 290 2 320 0 c 6
 100 0 l 6
 118 4 118 4 151 52 c 132
 184 100 184 100 228 177 c 132
 272 254 272 254 321 351 c 132
 370 448 370 448 420 547 c 132
 470 646 470 646 516 740 c 132
 562 834 562 834 600 906 c 5
812 1228 m 5
 692 1230 692 1230 610 1229 c 132
 528 1228 528 1228 475 1226 c 132
 422 1224 422 1224 393 1221 c 132
 364 1218 364 1218 350 1214 c 132
 336 1210 336 1210 332 1207 c 132
 328 1204 328 1204 324 1202 c 6
 406 1404 l 5
 854 1404 l 5
 812 1228 l 5
EndSplineSet
Ligature2: "ccmp-1" I E
Ligature2: "ccmp-1" I e
Ligature2: "ccmp-1" i E
Ligature2: "ccmp-1" i e
Ligature2: "ccmp-0 subtable" i e
Ligature2: "ccmp-0 subtable" i E
Ligature2: "ccmp-0 subtable" I e
Ligature2: "ccmp-0 subtable" I E
Ligature2: "ccmp-1 subtable" i e
Ligature2: "ccmp-1 subtable" i E
Ligature2: "ccmp-1 subtable" I e
Ligature2: "ccmp-1 subtable" I E
EndChar

StartChar: q.a
Encoding: 306 -1 100
Width: 1200
GlyphClass: 3
Flags: HW
LayerCount: 2
Fore
SplineSet
600 906 m 5
 652 828 652 828 706 731 c 132
 760 634 760 634 810 533 c 132
 860 432 860 432 906 336 c 132
 952 240 952 240 989 165 c 132
 1026 90 1026 90 1055 45 c 132
 1084 0 1084 0 1100 0 c 6
 880 0 l 5
 868 14 868 14 786 165 c 132
 704 316 704 316 580 608 c 5
 530 494 530 494 471 385 c 132
 412 276 412 276 369 191 c 132
 326 106 326 106 308 54 c 132
 290 2 290 2 320 0 c 6
 100 0 l 6
 118 4 118 4 151 52 c 132
 184 100 184 100 228 177 c 132
 272 254 272 254 321 351 c 132
 370 448 370 448 420 547 c 132
 470 646 470 646 516 740 c 132
 562 834 562 834 600 906 c 5
680 1360 m 6
 680 1292 680 1292 680 1246 c 132
 680 1200 680 1200 679 1169 c 132
 678 1138 678 1138 678 1120 c 132
 678 1102 678 1102 678 1090 c 5
 652 1098 652 1098 618 1116 c 132
 584 1134 584 1134 553 1166 c 132
 522 1198 522 1198 501 1245 c 132
 480 1292 480 1292 480 1360 c 6
 480 1602 l 5
 680 1602 l 5
 680 1360 l 6
EndSplineSet
Ligature2: "ccmp-1" I A
Ligature2: "ccmp-1" I a
Ligature2: "ccmp-1" i A
Ligature2: "ccmp-1" i a
Ligature2: "ccmp-0 subtable" i a
Ligature2: "ccmp-0 subtable" i A
Ligature2: "ccmp-0 subtable" I a
Ligature2: "ccmp-0 subtable" I A
Ligature2: "ccmp-1 subtable" i a
Ligature2: "ccmp-1 subtable" i A
Ligature2: "ccmp-1 subtable" I a
Ligature2: "ccmp-1 subtable" I A
EndChar

StartChar: w.y
Encoding: 307 -1 101
Width: 1200
GlyphClass: 3
Flags: HW
LayerCount: 2
Fore
SplineSet
600 -4 m 5
 546 74 546 74 493 171 c 132
 440 268 440 268 390 369 c 132
 340 470 340 470 294 565 c 132
 248 660 248 660 211 735 c 132
 174 810 174 810 145 855 c 132
 116 900 116 900 100 900 c 6
 320 900 l 5
 332 886 332 886 414 736 c 132
 496 586 496 586 620 294 c 5
 670 408 670 408 732 517 c 132
 794 626 794 626 841 710 c 132
 888 794 888 794 909 846 c 132
 930 898 930 898 900 900 c 6
 1100 900 l 6
 1082 896 1082 896 1049 848 c 132
 1016 800 1016 800 972 723 c 132
 928 646 928 646 879 550 c 132
 830 454 830 454 780 355 c 132
 730 256 730 256 684 162 c 132
 638 68 638 68 600 -4 c 5
356 1410 m 260
 356 1458 356 1458 374 1499 c 132
 392 1540 392 1540 423 1571 c 132
 454 1602 454 1602 495 1620 c 132
 536 1638 536 1638 584 1638 c 260
 632 1638 632 1638 673 1620 c 132
 714 1602 714 1602 745 1571 c 132
 776 1540 776 1540 794 1499 c 132
 812 1458 812 1458 812 1410 c 260
 812 1362 812 1362 794 1321 c 132
 776 1280 776 1280 745 1249 c 132
 714 1218 714 1218 673 1200 c 132
 632 1182 632 1182 584 1182 c 260
 536 1182 536 1182 495 1200 c 132
 454 1218 454 1218 423 1249 c 132
 392 1280 392 1280 374 1321 c 132
 356 1362 356 1362 356 1410 c 260
434 1410 m 260
 434 1346 434 1346 477 1303 c 132
 520 1260 520 1260 584 1260 c 260
 648 1260 648 1260 692 1303 c 132
 736 1346 736 1346 736 1410 c 260
 736 1474 736 1474 692 1518 c 132
 648 1562 648 1562 584 1562 c 260
 520 1562 520 1562 477 1518 c 132
 434 1474 434 1474 434 1410 c 260
EndSplineSet
Ligature2: "ccmp-1" U Y
Ligature2: "ccmp-1" U y
Ligature2: "ccmp-1" u Y
Ligature2: "ccmp-1" u y
Ligature2: "ccmp-0 subtable" u y
Ligature2: "ccmp-0 subtable" u Y
Ligature2: "ccmp-0 subtable" U y
Ligature2: "ccmp-0 subtable" U Y
Ligature2: "ccmp-1 subtable" u y
Ligature2: "ccmp-1 subtable" u Y
Ligature2: "ccmp-1 subtable" U y
Ligature2: "ccmp-1 subtable" U Y
EndChar

StartChar: w.u
Encoding: 308 -1 102
Width: 1200
GlyphClass: 3
Flags: HW
GlyphVariantsHorizontal: uu
LayerCount: 2
Fore
SplineSet
600 -4 m 5
 546 74 546 74 493 171 c 132
 440 268 440 268 390 369 c 132
 340 470 340 470 294 565 c 132
 248 660 248 660 211 735 c 132
 174 810 174 810 145 855 c 132
 116 900 116 900 100 900 c 6
 320 900 l 5
 332 886 332 886 414 736 c 132
 496 586 496 586 620 294 c 5
 670 408 670 408 732 517 c 132
 794 626 794 626 841 710 c 132
 888 794 888 794 909 846 c 132
 930 898 930 898 900 900 c 6
 1100 900 l 6
 1082 896 1082 896 1049 848 c 132
 1016 800 1016 800 972 723 c 132
 928 646 928 646 879 550 c 132
 830 454 830 454 780 355 c 132
 730 256 730 256 684 162 c 132
 638 68 638 68 600 -4 c 5
354 1290 m 4
 354 1350 354 1350 384 1398 c 132
 414 1446 414 1446 472 1450 c 4
 504 1452 504 1452 525 1433 c 132
 546 1414 546 1414 554 1387 c 132
 562 1360 562 1360 553 1334 c 132
 544 1308 544 1308 514 1296 c 5
 520 1284 520 1284 541 1279 c 132
 562 1274 562 1274 582 1276 c 4
 622 1278 622 1278 666 1288 c 132
 710 1298 710 1298 756 1320 c 132
 802 1342 802 1342 848 1378 c 132
 894 1414 894 1414 940 1470 c 5
 932 1386 932 1386 899 1321 c 132
 866 1256 866 1256 816 1212 c 132
 766 1168 766 1168 706 1144 c 132
 646 1120 646 1120 584 1116 c 4
 536 1112 536 1112 494 1126 c 132
 452 1140 452 1140 421 1164 c 132
 390 1188 390 1188 372 1221 c 132
 354 1254 354 1254 354 1290 c 4
EndSplineSet
Ligature2: "ccmp-1" U U
Ligature2: "ccmp-1" U u
Ligature2: "ccmp-1" u U
Ligature2: "ccmp-1" u u
Ligature2: "ccmp-0 subtable" u u
Ligature2: "ccmp-0 subtable" u U
Ligature2: "ccmp-0 subtable" U u
Ligature2: "ccmp-0 subtable" U U
Ligature2: "ccmp-1 subtable" u u
Ligature2: "ccmp-1 subtable" u U
Ligature2: "ccmp-1 subtable" U u
Ligature2: "ccmp-1 subtable" U U
EndChar

StartChar: w.o
Encoding: 309 -1 103
Width: 1200
GlyphClass: 3
Flags: HW
GlyphVariantsHorizontal: a
LayerCount: 2
Fore
SplineSet
600 -4 m 5
 546 74 546 74 493 171 c 132
 440 268 440 268 390 369 c 132
 340 470 340 470 294 565 c 132
 248 660 248 660 211 735 c 132
 174 810 174 810 145 855 c 132
 116 900 116 900 100 900 c 6
 320 900 l 5
 332 886 332 886 414 736 c 132
 496 586 496 586 620 294 c 5
 670 408 670 408 732 517 c 132
 794 626 794 626 841 710 c 132
 888 794 888 794 909 846 c 132
 930 898 930 898 900 900 c 6
 1100 900 l 6
 1082 896 1082 896 1049 848 c 132
 1016 800 1016 800 972 723 c 132
 928 646 928 646 879 550 c 132
 830 454 830 454 780 355 c 132
 730 256 730 256 684 162 c 132
 638 68 638 68 600 -4 c 5
916 1522 m 5
 878 1472 878 1472 840 1411 c 132
 802 1350 802 1350 767 1286 c 132
 732 1222 732 1222 704 1161 c 132
 676 1100 676 1100 660 1052 c 5
 502 1052 l 5
 518 1178 518 1178 481 1280 c 132
 444 1382 444 1382 360 1432 c 5
 532 1432 l 5
 574 1420 574 1420 594 1384 c 132
 614 1348 614 1348 632 1288 c 5
 662 1332 662 1332 688 1373 c 132
 714 1414 714 1414 745 1445 c 132
 776 1476 776 1476 816 1496 c 132
 856 1516 856 1516 916 1522 c 5
EndSplineSet
Ligature2: "ccmp-1" u O
Ligature2: "ccmp-1" U o
Ligature2: "ccmp-1" U O
Ligature2: "ccmp-1" u o
Ligature2: "ccmp-0 subtable" u o
Ligature2: "ccmp-0 subtable" U O
Ligature2: "ccmp-0 subtable" U o
Ligature2: "ccmp-0 subtable" u O
Ligature2: "ccmp-1 subtable" u o
Ligature2: "ccmp-1 subtable" U O
Ligature2: "ccmp-1 subtable" U o
Ligature2: "ccmp-1 subtable" u O
EndChar

StartChar: w.i
Encoding: 310 -1 104
Width: 1200
GlyphClass: 3
Flags: HW
LayerCount: 2
Fore
SplineSet
600 -4 m 5
 546 74 546 74 493 171 c 132
 440 268 440 268 390 369 c 132
 340 470 340 470 294 565 c 132
 248 660 248 660 211 735 c 132
 174 810 174 810 145 855 c 132
 116 900 116 900 100 900 c 6
 320 900 l 5
 332 886 332 886 414 736 c 132
 496 586 496 586 620 294 c 5
 670 408 670 408 732 517 c 132
 794 626 794 626 841 710 c 132
 888 794 888 794 909 846 c 132
 930 898 930 898 900 900 c 6
 1100 900 l 6
 1082 896 1082 896 1049 848 c 132
 1016 800 1016 800 972 723 c 132
 928 646 928 646 879 550 c 132
 830 454 830 454 780 355 c 132
 730 256 730 256 684 162 c 132
 638 68 638 68 600 -4 c 5
462 1270 m 4
 462 1328 462 1328 503 1369 c 132
 544 1410 544 1410 600 1410 c 4
 658 1410 658 1410 699 1369 c 132
 740 1328 740 1328 740 1270 c 4
 740 1214 740 1214 699 1173 c 132
 658 1132 658 1132 600 1132 c 4
 544 1132 544 1132 503 1173 c 132
 462 1214 462 1214 462 1270 c 4
EndSplineSet
Ligature2: "ccmp-1" U I
Ligature2: "ccmp-1" U i
Ligature2: "ccmp-1" u I
Ligature2: "ccmp-1" u i
Ligature2: "ccmp-0 subtable" u i
Ligature2: "ccmp-0 subtable" u I
Ligature2: "ccmp-0 subtable" U i
Ligature2: "ccmp-0 subtable" U I
Ligature2: "ccmp-1 subtable" u i
Ligature2: "ccmp-1 subtable" u I
Ligature2: "ccmp-1 subtable" U i
Ligature2: "ccmp-1 subtable" U I
EndChar

